<svg xmlns="http://www.w3.org/2000/svg" viewBox="0 0 2742 1828" id="Businessmanplanscareergrowthanddrawschecklistinformofladderfordevelopingskills">
  <g fill="#000000" class="color000000 svgShape">
    <path fill="#4c55e2" fill-rule="evenodd" d="M2563.94,499.17H2283.57a6.33,6.33,0,0,0-6.34,6.33V652.92H1997.65a6.33,6.33,0,0,0-6.33,6.34v147H1710.94a6.33,6.33,0,0,0-6.33,6.34v147H1425a6.34,6.34,0,0,0-6.34,6.34v147h-280a6.34,6.34,0,0,0-6.34,6.34v147l-278.92.05c-3.5,0-7.16,2.26-7,6.29.22,5.63,7.32,6.34,7.32,6.34h284.53c.16,0,.25-.19.4-.2a6.34,6.34,0,0,0,6.34-6.34V1125.68h279.18c.31,0,.48-.35.79-.39a6.2,6.2,0,0,0,3.76-1.39c0-.05,0-.15,0-.2a6,6,0,0,0,2.58-4.76V972.32h279a6.43,6.43,0,0,0,4.56-1.78,6.07,6.07,0,0,0,2.38-4.76V819h279.17c.32,0,.49-.35.79-.39s.25.2.4.2a6.35,6.35,0,0,0,6.34-6.35V665.6h279.18a6.34,6.34,0,0,0,6.34-6.34c0-.3.4-.48.4-.79V511.84l274.14-.06s2.11-1,2.27-6.38S2563.94,499.17,2563.94,499.17Z" class="colore2724c svgShape"></path>
  </g>
  <g fill="#000000" class="color000000 svgShape">
    <path fill="#ced1ff" fill-rule="evenodd" d="m500.93 1676.55-.17-7.13 10.39 2.79-2.86 2.12-4.42.74ZM692.84 1676.71v-6.41a61 61 0 0 0 7.92 2.12 59 59 0 0 0 11 1c3.9 0 10.8-.71 10.8-.71a13 13 0 0 1-6.29 3.43c-4.15 1-6.43 2.08-10.28 2.29s-4.15.39-6.34.08A55.27 55.27 0 0 1 692.84 1676.71Z" class="colorffe4ce svgShape"></path>
    <path fill="#9799b2" fill-rule="evenodd" d="M486.1,1014.53l242.34-11.27,11.19,83.34,5.24,45.9,8.06,82.08,3.39,46,2.15,31.75.33,26.67-.08,24.48L757,1365.11l-2.59,28.78-2.8,39.95-3.45,57.59-2.07,44.27-1.75,57.11.78,35.18s.46,8.75,1.25,17.62,1.6,17.08,1.6,17.08a31.56,31.56,0,0,1-10,6.37c-5.59,2.32-13.61,3.74-21.2,4.12a84.38,84.38,0,0,1-20.87-1.72c-9-2.16-13.83-5.53-13.83-5.53l-.95-47.87-3.93-60.82L672,1487.77,669,1444l-.68-26,.8-33.06.16-28.22-1.7-19.71-3.23-26-5.81-29.41-7-29.17-7-26.84-22.5-83-7.69,33.61-8.7,51.72L600,1270.15l-4.47,36.4-6.27,46.61-5.93,36.69-5.64,32-6,40.14-6,41.51-5.12,48.64-3.14,41-1.26,28.22L556,1643l1,20.81A37.78,37.78,0,0,1,546,1670a61.83,61.83,0,0,1-19.57,3.49c-7.23.12-17.35-1.69-23.73-3.55-8.2-2.4-11.34-4.86-11.34-4.86l-.95-32.37-1.69-51.86-3.38-70.87-2.67-49.85.66-27.84L485,1408.3l4.42-33.29,4.11-37.89,1.09-21-.31-18.59-1.91-22.33-4.07-35.37-6.14-47.28-2.65-35.36-.8-34.1.55-29.77,2.08-32.65,2.52-26.82Z" class="colorb29e97 svgShape"></path>
    <path fill="#53579b" fill-rule="evenodd" d="M488,1773.12l86.89-.63s2.16,4.54,2.29,6.6a21.33,21.33,0,0,1-1,6.82c-.64,2.26-5.49,5.24-9.47,6.15s-18.29,3.56-24.46,3.55-16.39.12-22.13-.64-13.66-1.19-17.68-2.93-7.44-3-10.14-5.42-3.55-3.7-4.08-6.23A36,36,0,0,1,488,1773.12Z" class="color9b6553 svgShape"></path>
    <path fill="#666bba" fill-rule="evenodd" d="M489,1772.94a110.48,110.48,0,0,1,2.07-16.7c1.85-9.27,4.6-19.81,6.1-31.89,1.14-9.24,1-22,.95-27.44-.08-6.48-1.9-15.13-.26-18.74,1.21-2.67,9.41-4,11.41-4,1.38,0,1.33-2.43,4.22-1.75a48.18,48.18,0,0,0,14.13.94c4.65-.52,8.16-.66,11.37-1.34,2.26-.48,4.91-1.78,5.4-1.27,1.1,1.15,3.81,3.12,5,5.77.36.83.28,8.48,2.25,20.67,1.64,10.15,5,23.79,8.17,35.94,3,11.44,7.72,19.34,11,27.46,2.33,5.77,4,12.12,3.84,15.19-.23,4-2.34,6.34-11,8.14-10.89,2.28-29.17,2.72-36.07,2.72-6.61,0-19.44-1-27.92-3.59C492.34,1780.83,489,1777.13,489,1772.94Z" class="colorba7b66 svgShape"></path>
    <path fill="#53579b" fill-rule="evenodd" d="M684.79,1727.1l142,38.39a22,22,0,0,1,2.14,6,6.61,6.61,0,0,1-2,6c-1.9,2-3.5,2.94-7.42,4.24s-12.13,2.38-17.67,3.08a123.2,123.2,0,0,1-19.34,1.08c-5.5-.32-15-1-19.72-1.59a51.45,51.45,0,0,1-13.47-4.19c-2.21-1.17-9.24-7.56-11.93-10.86A136.5,136.5,0,0,0,726.8,1758c-2.57-2.33-4.59-4-8-4.36s-4.19,1.09-8.41.1-11.2-2-15.12-3.78-8-4-9.85-5.61-1.65-3.6-1.7-6.25S684.79,1727.1,684.79,1727.1Z" class="color9b6553 svgShape"></path>
    <path fill="#666bba" fill-rule="evenodd" d="M685.74,1722.14c.14-2.36,1.12-14,1.84-26.85.48-8.46.64-19.22,1.16-21.83.65-3.21,3.12,2.91,6.86,4.33,5.19,2,12.88.9,18-1.13,4.27-1.68,5.63-3.15,9.55-3.15,1.15,0,7.14-2,12.93-4.17,4.23-1.63,8.64-3.58,9.62-4.14.75-.42,1.59,3.14,2.34,6.19,1.39,5.65,1.5,9,3.64,13.54,1.83,3.89,3.58,8.38,6.58,13.07a140.36,140.36,0,0,0,17.08,20.85,231.5,231.5,0,0,0,19.29,15c9.16,6.4,18.55,11.84,25.42,19,7.69,8,6.46,14.94,3.62,17.86-4.08,4.2-16.78,6.39-30,7.34-12.54.91-25.38.79-37.92-2.84-7.54-2.18-13.44-6.82-18.91-11.85-3.39-3.12-7.79-7.39-8.75-8.28a62.79,62.79,0,0,0-16.94-11.26c-6.53-3-14.28-5.18-18.48-6.64C685.27,1734.52,685.38,1728.41,685.74,1722.14Z" class="colorba7b66 svgShape"></path>
    <path fill="#4c55e2" fill-rule="evenodd" d="M315.9,615.72l811.28-248.49,28.23,92.62L344.48,708s-6.3-3.51-7.77-4.43a61.55,61.55,0,0,1-9.74-9.9c-2.72-3.67-8.71-13.65-10.36-18.29s-5.58-15.95-6.49-22-1.73-11.49-1-17a107.89,107.89,0,0,1,2.21-12.2,38.71,38.71,0,0,1,2.09-5A26.28,26.28,0,0,1,315.9,615.72Z" class="colore2724c svgShape"></path>
    <path fill="#b5b9f3" fill-rule="evenodd" d="M1127.92,367.22l93.77,8,5.8,27.62-71.19,56.54a119.94,119.94,0,0,1-17.49-.2c-6.07-.62-11.31-2.25-12.81-4.56-2-3.12,2.52-7.49,7.7-11.29,3.85-2.82,8.54-5.66,8.54-5.66s-10.46-2.37-18.23-6.65c-4.51-2.48-7.34-5.37-8.72-9.45-1.85-5.55,1.44-11.73,4.91-17.43s7.12-10.93,7.12-10.93a44.1,44.1,0,0,1-6.16-5.46c-2.12-2.37-3.46-4.84-3.4-7.74a14.6,14.6,0,0,1,4.24-9A17.13,17.13,0,0,1,1127.92,367.22Z" class="colorf3d9b5 svgShape"></path>
    <path fill="#4c55e2" fill-rule="evenodd" d="M1212.38,384.42l9.72-9.11,40.49,1.49-36.24,26.73-.36-10.12Z" class="colore2724c svgShape"></path>
    <path fill="#ced1ff" fill-rule="evenodd" d="M777.2,473.21s4.31-5.7,5.84-8.21a13,13,0,0,1,3.89-4.21c1.52-1.27,2.68-.15,4-2a59.37,59.37,0,0,1,4-5.4c1.67-2,1.66-2.5,3.43-2.9s2.42.77,3.55-.39,3.18-3.76,4.71-5.27a6.3,6.3,0,0,1,4.09-2.27c2.12-.46,2.77.16,4.58,0s4.13-2.09,7-3.19,4.75-1.66,6.21-.63,1.78,3.35,3.6,2.76a39.47,39.47,0,0,1,5.53-1.89c2.57-.54,3.43-.32,5,.87a9.66,9.66,0,0,1,3.56,6.71c.33,3.19.68,6,1,10.18s.79,5,.35,7.5-1.43,3.82-2.85,3.06a15.22,15.22,0,0,1-5.28-4.25c-1.73-2.31-2.68-2-2.13.92s.89,3.51.25,6.65-.15,4.09-1.68,4.82-2.56.54-4.55-.62-3.45-3.52-4-1-.9,3.5-2.7,3.41a10,10,0,0,1-5.58-2.28c-1.81-1.42-3.47-2.28-4.78-1.41s-2.86,1-4.86-.29-4.39-2.07-6.16-3.78-4.24-3.84-4.24-3.84Z" class="colorffe4ce svgShape"></path>
    <path fill="#ffffff" fill-rule="evenodd" d="M461.28,776.67s-24.1,22.08-34.4,33.92c-2.26,2.6-19.49,21.81-26.61,31.62-2.43,3.34-10,18-10,18s8.87,11.09,12,16.79c.6,1.12,6.41,11.51,14.9,24.11,8.81,13.05,20.35,28.35,22.36,31.44,1.17,1.8,1.08,6.39,1.26,8.21,0,.26,1.72-3.48,3.77-.91.68.85,4.06,7,8.94,11.85,4.1,4.1,9.88,6.92,10,8.89a20.13,20.13,0,0,1-1.64,9.88,50.48,50.48,0,0,1-8.54,13.11c-3.27,3.54-8,8.12-11.37,10.16-3.57,2.13-6.57,2.6-9,2s-4-4.22-9.28-9.72a129.44,129.44,0,0,0-9.61-8.91c-2-1.69-4.42-3.81-4.62-4.06-1.5-1.81.27-5,0-5-3.27.42-5.9,1-7.7,0-3.55-2-26.37-31.91-29.38-35.22-9.11-10-32-39.34-34.33-42.74-7.74-11.2-13.36-22.3-14.84-28.08-1.44-5.62.21-16.76,5.8-29.2,6.42-14.27,16.08-29.42,17.5-32.31,6.31-12.84,30.34-44.49,32.77-48.61,7.36-12.43,26.63-43.67,31.72-52.64,4.46-7.85,15.48-19.65,18.77-23.1,8.58-9,25.77-15.85,33.09-18.55,10.77-4,35.56-12.58,42.28-15.34,8.69-3.56,19.61-8.74,20.05-9.16,2.77-2.65-.08-4.08.15-4.33,2.27-2.54,6.93-8.36,7.76-10.53,1.29-3.36,3.51-10.37,4.36-12.46,1.18-2.9,6.14-3,6.14-3l75.16,2.73s4.12.5,5.9,3c.64.91,2.71,5.61,5.34,7.23.27.16,3.88,2.19,6.08,3.47,1,.57,1.66,1,4.51,1.15,6.13.37,25.42-3.72,34.08-4.4,2.56-.2,8-.33,13-.31a84,84,0,0,1,19.08,1.82c6.44,1.51,27.56,5.83,41.66,9.7,4.78,1.32,24.41,5.42,32.4,6.05,1.9.15,13.11,1.51,21.53,2.32,7.36.7,12.87.5,17.67.88a57.85,57.85,0,0,1,7.91,1.29l.12-11.43L825.55,605l-3.14-18.77-4.26-22.6,47.58-15,8.54,35.67,8.92,39.37L888.47,653l.8,14.08-1.19,9.69-2.93,5.83-7.92,6.19-12.86,6-16.14,4.64-18.57,3-18.86,1.57-33.24,1.82s-15.43,1.12-28.66,3.48A242,242,0,0,0,725,714.9s-.65,12.49-.35,28.14c.27,14.88,1.19,33.28,1.19,35.83,0,11,.82,31.31,1.19,54.56.34,20.63-1.58,47.15-.66,69.13.89,21.57,2.57,41.18,3.93,57.12s2.88,30.56,3.05,34-6.05,11.17-6.05,11.17-8.74,5.93-27.31,10.83c-17.41,4.59-43.77,8.1-70.19,9.31-22.54,1-48.81,1.06-69.85-1.12a335.24,335.24,0,0,1-51.11-9.08,113.17,113.17,0,0,1-14.53-9,36.42,36.42,0,0,1-8.33-8.86s9.54-50.45,10-54.94c.57-5.7,1.54-18.48,1.12-23.37-.62-7.07-4.25-28.09-9.1-47.81-4.34-17.61-9.89-34.21-11.63-38.47C470.59,818.2,461.28,776.67,461.28,776.67Z" class="colorffffff svgShape"></path>
    <path fill="#9095e7" fill-rule="evenodd" d="M611.34,443.07c-10.82-7.51-18.05-13.67-28.15-13.3-6,.12-14.43-1.08-31.91,2.68-14.49,3.17-29.93,12.28-33.52,17.64-4.23,5.56-11.33,4.28-17.14,16s-7,14.55-10,29.58c-1.72,7.94-3.37,11.63-1.26,19.42,2.42,7.69,11.7,12.5,11.7,12.5s.69,3.31,9.52,15.67a190.93,190.93,0,0,0,17.62,21.2l99.31-53.56s7.23-13.91,8.46-24.51-1.27-14-1.27-14l10.89-3.44a25,25,0,0,1-11.72-4.76C625.45,457.63,615.86,446.22,611.34,443.07Z" class="colore7b890 svgShape"></path>
    <path fill="#ced1ff" fill-rule="evenodd" d="M615.22,601.39a19.25,19.25,0,0,0,14.29-10.5c2.31-4.44,5.92-10,7.67-17.23s1.62-15.84,2.61-21.59c2-11.54-5.62-27.81-6.71-32.4-3.29-13.75-3.16-22.24-5.94-27.71-.73-1.17-1.42-4.48-7.37-11-6.27-6.48-9.76-7.49-13-7.85-13.67-2-25.13,4.06-27.33,8.27-2.07,3.47-5.73,13.08-10.8,18.21a59.66,59.66,0,0,1-13.11,9.78,151.63,151.63,0,0,0-10.3,19.8,31.86,31.86,0,0,0-2,12.38,34.12,34.12,0,0,0,2.42,10.5l-6.25-2.24-7-5.65a35.37,35.37,0,0,0-8.49.64c-8.43,2.31-7.84,10.48-7.15,13.78,3.87,16.74,21.11,16.26,21.11,16.26s20.07,15.63,39.43,22.29A94.41,94.41,0,0,0,615.22,601.39Z" class="colorffe4ce svgShape"></path>
    <path fill="#ced1ff" fill-rule="evenodd" d="M540.67 615.54A38.44 38.44 0 0 0 543 608c.55-3.42 1.25-5.55 1.41-10s-.23-6.31-.25-10.78-1.52-15.49-1.52-15.49L619 597a60.62 60.62 0 0 1 .38 6.86 55 55 0 0 0-.07 8.67c.31 2.86.2 5.29 1.28 7.41s1.78 4.37 1 5.49-4 6.77-6.62 11a98.25 98.25 0 0 0-5.71 10c-1.05 2.35-3.51 6.93-3.65 8s-1.4 8-1.4 8-4.83-5.44-7.21-7.46-13.18-7.94-15.81-9.59-16.81-10-19.25-11.62-9.18-5.91-11.11-7.42-4.94-4-6.56-5.4S540.67 615.54 540.67 615.54ZM440.88 994.38s8.76-6.6 14.29-13.52A49.25 49.25 0 0 0 463 966.68a56.48 56.48 0 0 0 10.67-4.85c6-3.33 14.1-9 20.32-12 6.45-3 11.71-4.15 13-3.84a77.27 77.27 0 0 1 10.11 4.36 34.89 34.89 0 0 1 9.26 6.4 79.1 79.1 0 0 1 5.93 7.71c2.49 3.51 4.14 6 3.9 6.75s-2.14 2.47-7 .06c-3.78-1.88-10.11-7.67-14-9.24s-8.84-2.17-9.5-1.72 5.37 2 11.18 5.64c4.58 2.86 8.4 7.42 12.26 11.4 4.39 4.53 10.4 11.68 11.5 15.67 1 3.58-2.68 4.2-3.17 4.82-1.39 1.73.77 4.94-2.75 4.92A22.61 22.61 0 0 1 522 998.65c-3.5-2.57-5.9-6.84-10.61-8.47-4.09-1.41-9.1-2.65-12.94-1.89-7 1.4-13.07 7-13.07 7l4.2 6.84 8.23 6.12 8.22 5.37 8.6 6.54 1.56 4.29-2.38 2.4-7.19-.79-8.19-4.82-7.94-5.48-9-2.72-11.53-.27-10.76-3-10.74-7.13Z" class="colorffe4ce svgShape"></path>
    <path fill="#8f91af" fill-rule="evenodd" d="M2300.74,498.89c21-16.19,37.18-37.2,56.8-54a111.64,111.64,0,0,1,18.2-12.79c5.55-3.14,10.88-8.56,17.16-10.17,29-7.45,46.46,21.91,70.27,31.85,20.45,8.54,44,14.66,61.72,28.68,6.2,4.92,11.33,15.94,19.83,17Z" class="coloraf9a8f svgShape"></path>
    <path fill="#333999" fill-rule="evenodd" d="M1076.61,1210.1v42.2c0,7-35.17,12.6-78.54,12.6s-78.54-5.64-78.54-12.6l.55-47.94Z" class="color97847e svgShape"></path>
    <path fill="#333999" fill-rule="evenodd" d="M850.06,1180.43l166.38-13.63,136.09,37-183.06,16.06Z" class="color97847e svgShape"></path>
    <path fill="#8c8fc4" fill-rule="evenodd" d="M1231.36,909h156.23l-38,203.57H1193.32Z" class="color8c9fc4 svgShape"></path>
    <path fill="#ffffff" fill-rule="evenodd" d="M1236.08,917.13h143.73l-35,187.28H1201.1Z" class="colorffffff svgShape"></path>
    <path fill="#e6e6e9" fill-rule="evenodd" d="M1285.88,905.86l1.71-9a135.53,135.53,0,0,1,20.11-1.57,214.45,214.45,0,0,1,23.1,1.57l-1.81,9.52Z" class="colore8e9e6 svgShape"></path>
    <path fill="#ffffff" fill-rule="evenodd" d="M1503.88 759.16H1660a16.26 16.26 0 0 1 16.25 16.25V943.6A16.25 16.25 0 0 1 1660 959.86H1503.88a16.25 16.25 0 0 1-16.26-16.26V775.41A16.26 16.26 0 0 1 1503.88 759.16ZM1724.87 684.26a121.35 121.35 0 1 1 121.35 121.35A121.35 121.35 0 0 1 1724.87 684.26Z" class="colorffffff svgShape"></path>
    <path fill="#4c55e2" fill-rule="evenodd" d="M1747.59,684.26a98.63,98.63,0,1,1,98.63,98.63A98.63,98.63,0,0,1,1747.59,684.26Z" class="colore2724c svgShape"></path>
    <path fill="#ffffff" fill-rule="evenodd" d="M1761.89,684.26a84.33,84.33,0,1,1,84.33,84.33A84.32,84.32,0,0,1,1761.89,684.26Z" class="colorffffff svgShape"></path>
    <path fill="#4c55e2" fill-rule="evenodd" d="M1781.37,684.26a64.85,64.85,0,1,1,64.85,64.84A64.86,64.86,0,0,1,1781.37,684.26Z" class="colore2724c svgShape"></path>
    <path fill="#ffffff" fill-rule="evenodd" d="M1797.49,684.26A48.73,48.73,0,1,1,1846.22,733,48.72,48.72,0,0,1,1797.49,684.26Z" class="colorffffff svgShape"></path>
    <path fill="#4c55e2" fill-rule="evenodd" d="M1865.39,675.45a21.12,21.12,0,1,1-14.66-11.79Z" class="colore2724c svgShape"></path>
    <path fill="#505aff" fill-rule="evenodd" d="M2072.35,652.5l12.13-70.5-51.19-50,70.8-10.24,31.69-64.12,31.62,64.16,70.78,10.33-51.25,49.9,12,70.51-63.28-33.33Z" class="colorffba50 svgShape"></path>
    <path fill="#4c55e2" fill-rule="evenodd" d="M2402.21,197.68a329.15,329.15,0,0,0,72.22,8c13.7,0,35.89-8.61,47.42-10.31a110.25,110.25,0,0,1,42,2.32V300.94a63.8,63.8,0,0,0-38.19-7.46c-12.67,1.49-33.05,11.51-54.6,13-40.33,2.87-68.84-5.58-68.84-5.58Z" class="colore2724c svgShape"></path>
    <path fill="#e6e6e9" fill-rule="evenodd" d="M1845.64,680.49l11.56-24.62,5.3,8.5,9.11,3.15-20.43,16s-2.12.67-3.44-.25A7.43,7.43,0,0,1,1845.64,680.49Z" class="colore8e9e6 svgShape"></path>
    <path fill="#4c55e2" fill-rule="evenodd" d="M1944.69,560.37l-3.28-8.58L1961,523.6l5.08,10,10.84,2.16-23,25.63Z" class="colore2724c svgShape"></path>
    <path fill="#505aff" fill-rule="evenodd" d="M1115.12,1318.46a73.4,73.4,0,0,0,2-8.56c.51-3.51,2.3-15,2.23-18.51a151.09,151.09,0,0,1,1-17.18c.71-5.37.71-8.11,1.73-10.79s.83-4.15,2.55-2.24,2.23,4.09,2.87,8.24.58,9.58.84,13.92.83,11.11,1.34,16.22,1,10.15,2.23,13.34,2.62,6.64,2.62,6.64a96.07,96.07,0,0,1-10.88.19A46.64,46.64,0,0,1,1115.12,1318.46Z" class="colorffba50 svgShape"></path>
  </g>
  <g fill="#000000" class="color000000 svgShape">
    <path fill="#363636" d="M606.22,604.11a103.12,103.12,0,0,1-26.06-3.71c-13-3.48-24.11-12.65-24.58-13a2.29,2.29,0,0,1,2.93-3.51c.11.09,10.79,8.93,22.83,12.14,22.19,5.84,36,3.24,40.19,1,5.18-2.58,10.93-12.92,14-25.17,2.34-9.54,3.05-21.32,1.82-30-.61-4.81-2.26-10-4-15.58-.88-2.8-1.78-5.63-2.55-8.46a90.27,90.27,0,0,1-2.62-13.58c-.26-1.81-.5-3.51-.75-5-1.48-8-7.84-22.42-22.32-25.41a2.28,2.28,0,1,1,.92-4.47c20.76,4.27,25.43,26.55,25.89,29.07.27,1.52.52,3.26.78,5.12a87.93,87.93,0,0,0,2.48,12.94c.79,2.85,1.66,5.63,2.53,8.37,1.81,5.74,3.52,11.17,4.18,16.35,1.3,9.17.55,21.63-1.91,31.71-3.51,13.88-9.94,24.92-16.39,28.13C620.79,602.58,614.92,604.11,606.22,604.11Z" class="color571519 svgShape"></path>
    <path fill="#363636" d="M610.22,550a2.24,2.24,0,0,1-1.63-.7,2.29,2.29,0,0,1,0-3.23c1.13-1.1,4.19-4.84,3.39-7.38-.24-.77-.76-1.12-2.19-1.92a12.16,12.16,0,0,1-6.24-6.92c-.73-2.32-1-5.82-.93-11.15a2.29,2.29,0,0,1,2.28-2.25h0a2.29,2.29,0,0,1,2.25,2.33c-.08,4.68.15,7.91.68,9.58,1,2.63,2.46,3.46,4.17,4.42,1.55.88,3.49,2,4.3,4.54,1.79,5.67-3.91,11.4-4.57,12A2.26,2.26,0,0,1,610.22,550Z" class="color571519 svgShape"></path>
    <path fill="#363636" fill-rule="evenodd" d="M626.6,518.26c-1.12-3.52-3.73-6.21-6.29-5.4-2.24.7-3.67,4-2.46,7.82,1.11,3.52,3.73,6.22,6.28,5.41C626.38,525.38,627.71,521.79,626.6,518.26Z" class="color571519 svgShape"></path>
    <path fill="#363636" d="M607 500.62a2.26 2.26 0 0 1-1.66-.72 2.29 2.29 0 0 1 .1-3.23c8.2-7.72 17-5.07 17.4-4.95a2.29 2.29 0 1 1-1.37 4.36c-.25-.08-6.7-1.91-12.9 3.92A2.29 2.29 0 0 1 607 500.62ZM613.67 519.64a2.25 2.25 0 0 1-1.71-.78 2.29 2.29 0 0 1 .2-3.22c5.33-4.71 10.41-6.23 15.12-4.48a2.28 2.28 0 1 1-1.59 4.28c-3-1.1-6.53.11-10.5 3.62A2.28 2.28 0 0 1 613.67 519.64Z" class="color571519 svgShape"></path>
    <path fill="#363636" fill-rule="evenodd" d="M577.73,533.64c-1.12-3.52-.1-7,2.36-8.15,2.56-.8,5.61,1,6.83,4.9,1.11,3.51.1,7-2.36,8.13C582.31,539.23,579.16,537.06,577.73,533.64Z" class="color571519 svgShape"></path>
    <path fill="#363636" d="M562.21 516.17a2.29 2.29 0 0 1-1.59-3.93c.51-.48 12.41-11.86 22.86-8.83a2.29 2.29 0 0 1-1.27 4.39c-6.59-1.89-15.52 4.93-18.4 7.72A2.31 2.31 0 0 1 562.21 516.17ZM571.92 533.53A2.28 2.28 0 0 1 570 530c2.77-4 10.94-8.49 17-6a2.28 2.28 0 1 1-1.73 4.22c-3.75-1.52-9.84 2-11.46 4.38A2.29 2.29 0 0 1 571.92 533.53ZM538.44 577c-10.12 0-17.5-6.46-21.15-12.84-3.5-6-3.75-12.32-.68-16.79s9.11-6.47 16.48-5.3a2.28 2.28 0 1 1-.72 4.51c-5.54-.87-9.91.35-12 3.38s-1.73 7.44.87 11.92c3.22 5.63 9.91 11.31 19.08 10.46a2.29 2.29 0 1 1 .43 4.55A22.92 22.92 0 0 1 538.44 577Z" class="color571519 svgShape"></path>
    <path fill="#363636" d="M532.18 561.57a2.28 2.28 0 0 1-1.51-.56c-.87-.76-2.75-1.93-4-1.86a2.28 2.28 0 0 1-.28-4.56c3.68-.27 7 2.66 7.35 3a2.28 2.28 0 0 1 .21 3.22A2.31 2.31 0 0 1 532.18 561.57ZM604.38 571.26a23.19 23.19 0 0 1-9.3-1.85 2.29 2.29 0 1 1 1.83-4.19c9.15 4 20.4-.75 24.67-5.58a2.28 2.28 0 0 1 3.42 3C620.62 567.62 612.46 571.26 604.38 571.26ZM635.45 475.15h-.29a2.29 2.29 0 0 1 0-4.57h.24a14 14 0 0 0 4.57-.78c-4.15-1.14-9.57-4-15.51-10.53-10.89-11.84-22.64-23.64-35.83-26.33-16.38-3.39-48.74 1.74-61.73 12.34-3.5 2.86-5.27 5.83-5.26 8.85a2.29 2.29 0 0 1-2.28 2.29h0a2.28 2.28 0 0 1-2.28-2.28c0-4.46 2.32-8.63 6.94-12.4 14.13-11.53 47.85-16.93 65.54-13.27 14.52 3 26.88 15.31 38.29 27.72 10.63 11.74 18.52 9.67 18.84 9.57a2.32 2.32 0 0 1 2.6 1 2.28 2.28 0 0 1-.28 2.75A19.93 19.93 0 0 1 635.45 475.15Z" class="color571519 svgShape"></path>
    <path fill="#363636" d="M537.81 514.72a2.29 2.29 0 0 1-.62-4.49c.69-.19 17-5 21.74-22.66a2.28 2.28 0 1 1 4.41 1.19 36.4 36.4 0 0 1-12.73 19.34 35.57 35.57 0 0 0 11.56-5.28c7.83-5.68 10.73-13.29 13.23-21.25.4-1.05.74-2 1.08-3 1.69-4.94 3.61-10.54 8.17-11.89 2.92-.85 6.2.21 10 3.24a2.29 2.29 0 0 1-2.84 3.59c-1.75-1.39-4.2-2.93-5.9-2.44-2.3.67-3.81 5.09-5.14 9-.36 1.05-.71 2.08-1.08 3.06-2.7 8.59-5.9 16.95-14.85 23.44-10.44 7.71-26.34 8.19-27 8.21ZM631.22 511.63a2.28 2.28 0 0 1-2.28-2.24c-.09-4.27 1.41-8.42 2.87-12.42 3-8.31 5.86-16.15-2.6-27a2.29 2.29 0 0 1 3.61-2.81c10 12.87 6.28 23.14 3.28 31.39-1.37 3.78-2.66 7.35-2.59 10.76a2.3 2.3 0 0 1-2.24 2.34Z" class="color571519 svgShape"></path>
    <path fill="#363636" d="M535.66,535.82a2.25,2.25,0,0,1-.91-.19,2.28,2.28,0,0,1-1.17-3c2.24-5.08,5.64-7.68,8.94-10.2,3.94-3,8-6.12,11.16-14a2.29,2.29,0,1,1,4.25,1.69c-3.61,9.1-8.41,12.76-12.64,16-3.09,2.36-5.76,4.41-7.53,8.41A2.3,2.3,0,0,1,535.66,535.82Z" class="color571519 svgShape"></path>
    <path fill="#363636" d="M545.68 554.14h-.17c-.43 0-10.51-.92-15-12.5a2.29 2.29 0 0 1 4.27-1.64 14.89 14.89 0 0 0 7.37 8.45c-1.13-4.31-2.22-11.2-.17-17.6a2.28 2.28 0 1 1 4.35 1.4c-2.72 8.47 1.38 18.64 1.42 18.74a2.3 2.3 0 0 1-.26 2.21A2.27 2.27 0 0 1 545.68 554.14ZM538.91 491.48a2.29 2.29 0 0 1-.2-4.57c13.9-1.23 19.54-12.15 24.52-21.78 2.89-5.61 5.4-10.45 9.24-12.81 10.41-6.19 21.55 5.82 22 6.34a2.28 2.28 0 0 1-3.37 3.08c-.1-.1-9.1-9.77-16.29-5.51-2.73 1.68-5.07 6.2-7.55 11C562 477.38 555.51 490 539.12 491.47ZM603.26 459.88h-.16a2.28 2.28 0 0 1-2.13-2.43 9.93 9.93 0 0 0-2.85-8.22c-4.85-4.82-14.48-5.49-19.41-5.15a2.28 2.28 0 1 1-.33-4.55c1.57-.11 15.57-.9 23 6.45a14.47 14.47 0 0 1 4.19 11.77A2.28 2.28 0 0 1 603.26 459.88ZM516.5 552.09a2.31 2.31 0 0 1-1.55-.6c-6-5.53-14-16.69-16.51-24.51a2.29 2.29 0 0 1 4.36-1.37c2 6.23 9.24 17 15.25 22.52a2.28 2.28 0 0 1-1.55 4Z" class="color571519 svgShape"></path>
    <path fill="#363636" d="M505.66 532.27a2.27 2.27 0 0 1-.77-.13c-6.9-2.48-19.58-10.88-18.14-24.95 2.46-27.65 9-44.35 20-51a2.28 2.28 0 1 1 2.37 3.9c-9.55 5.8-15.56 21.8-17.85 47.56-.81 7.9 3.87 13.23 8.24 16.43-2.23-4.89-4.09-11.6-2.06-18.19a2.28 2.28 0 0 1 4.37 1.33c-3.09 10.06 5.53 21.28 5.61 21.39a2.28 2.28 0 0 1-1.8 3.69ZM542 616.22a2.35 2.35 0 0 1-.69-.1 2.29 2.29 0 0 1-1.49-2.87c2.52-8 3.18-18.32 2.1-32.53a2.28 2.28 0 1 1 4.55-.35c1.14 14.81.41 25.69-2.29 34.25A2.29 2.29 0 0 1 542 616.22ZM620.73 624.11a2.28 2.28 0 0 1-2.22-1.77 77.32 77.32 0 0 1-1.69-19.59 2.27 2.27 0 0 1 2.37-2.2 2.3 2.3 0 0 1 2.2 2.37A72.43 72.43 0 0 0 623 621.3a2.3 2.3 0 0 1-1.71 2.75A2.37 2.37 0 0 1 620.73 624.11ZM404.75 970.71a6.56 6.56 0 0 1-4.81-1.59c-9.64-9.84-20.22-23.09-30.45-35.91-5.81-7.28-11.82-14.81-17.52-21.53-17.17-20.26-28.29-38.28-31.31-50.74-3.42-14.15 14.41-50.94 45.43-93.74 10.23-14.12 18.5-28.34 26.5-42.09 15-25.85 28-48.18 48.44-59.63 12.43-7 27.61-12.28 42.29-17.41 15.38-5.38 29.92-10.46 41.18-17.19a2.29 2.29 0 0 1 2.34 3.93c-11.66 7-26.4 12.12-42 17.58-14.49 5.06-29.48 10.3-41.55 17.07-19.35 10.85-32 32.68-46.73 57.95-8.05 13.85-16.38 28.17-26.75 42.48-29.34 40.47-47.71 77.47-44.69 90 2.86 11.77 13.64 29.12 30.36 48.85 5.74 6.78 11.77 14.34 17.6 21.64 10.16 12.73 20.67 25.89 30.14 35.57.59.42 3.44.21 5.72-.47a2.28 2.28 0 0 1 1.32 4.37A20.45 20.45 0 0 1 404.75 970.71Z" class="color571519 svgShape"></path>
    <path fill="#363636" d="M440.57,942h-.14a2.29,2.29,0,0,1-2.14-2.42c.14-2.27-.12-5.28-.74-6.15-3.64-5.19-7.24-10-10.81-14.83-4.85-6.54-9.87-13.29-14.75-20.63-4.13-6.21-8.36-13.54-12.1-20-1.62-2.81-3.12-5.4-4.42-7.58-5.93-9.89-24.06-26.34-37.62-22.54a2.28,2.28,0,1,1-1.23-4.4c16.73-4.72,36.43,14,42.76,24.59,1.32,2.2,2.83,4.82,4.47,7.65,3.7,6.41,7.9,13.67,11.95,19.76,4.81,7.24,9.57,13.65,14.61,20.43,3.59,4.83,7.22,9.71,10.88,14.93,1.86,2.65,1.63,8,1.56,9.06A2.28,2.28,0,0,1,440.57,942Z" class="color571519 svgShape"></path>
    <path fill="#363636" d="M391.71 860.29a2.24 2.24 0 0 1-.68-.1 2.28 2.28 0 0 1-1.5-2.86c7-22.5 66.56-83.63 98.63-105a2.29 2.29 0 0 1 2.54 3.8c-31.56 21-90 80.78-96.81 102.58A2.29 2.29 0 0 1 391.71 860.29ZM858.58 663.29a2.29 2.29 0 0 1-1.84-.94c-11.53-15.7-23.21-22.7-39.06-23.39-11.29-.5-29.73-2.37-41.35-3.87-14-1.83-27.65-5.23-40.8-8.52-12.1-3-24.61-6.15-37.26-8-11.68-1.68-23.64 0-35.22 1.72-8.31 1.2-16.91 2.44-25.45 2.45h0a2.29 2.29 0 0 1 0-4.57c8.22 0 16.65-1.23 24.81-2.4 11.89-1.72 24.19-3.5 36.53-1.72 12.88 1.86 25.5 5 37.7 8.07 13 3.26 26.51 6.63 40.29 8.41 11.53 1.5 29.8 3.35 41 3.84 17.15.76 30.27 8.55 42.54 25.26a2.29 2.29 0 0 1-1.84 3.64Z" class="color571519 svgShape"></path>
    <path fill="#363636" d="M726.84,716.71a2.28,2.28,0,0,1-.76-4.44c19.62-6.84,44.67-8.33,68.89-9.76,18.17-1.08,36.95-2.2,53.18-5.56,6.81-1.41,29.54-6.82,36.27-17.21,4-6.12,3.64-20.54-1-44.08C880.52,621,876.38,604,872,586c-2.86-11.78-5.78-23.74-8.39-35.27a2.29,2.29,0,0,1,4.46-1c2.6,11.51,5.51,23.45,8.37,35.2C880.83,603,885,620,887.89,634.77c5,25.11,5.07,40.19.36,47.45-7.48,11.56-29.89,17.28-39.17,19.21-16.56,3.43-35.51,4.55-53.84,5.64-23.91,1.42-48.64,2.88-67.65,9.51A2.19,2.19,0,0,1,726.84,716.71Z" class="color571519 svgShape"></path>
    <path fill="#363636" d="M828 637.28h0a2.29 2.29 0 0 1-2.24-2.34c.36-15.37-3.86-38.21-7.24-56.56-.92-4.93-1.77-9.57-2.48-13.71a2.29 2.29 0 0 1 4.51-.76c.7 4.11 1.55 8.73 2.46 13.64 3.43 18.56 7.69 41.65 7.32 57.5A2.28 2.28 0 0 1 828 637.28ZM777.73 474.77a2.23 2.23 0 0 1-1.13-.3 2.29 2.29 0 0 1-.86-3.11c3.3-5.81 9.58-15.3 14.67-14 3.71 1 4.14 6.32 4.14 10.25a2.29 2.29 0 1 1-4.57 0c0-5-.91-5.91-.91-5.92-1.32.23-5.91 5.86-9.35 11.93A2.27 2.27 0 0 1 777.73 474.77Z" class="color571519 svgShape"></path>
    <path fill="#363636" d="M812.91,477.32c-4.93,0-11.15-5.54-11.44-5.8a24.55,24.55,0,0,1-3.17-3.69,22,22,0,0,0-2.2-2.69,2.29,2.29,0,0,1,3.23-3.24,29,29,0,0,1,2.64,3.2,20.52,20.52,0,0,0,2.56,3c2.67,2.4,7.14,5,8.64,4.59.06,0,.14,0,.26-.38.46-1.37-2.86-6.07-4.11-7.84-.77-1.08-1.43-2-1.84-2.74-1.69-3-5.2-9.11-7.54-9.19-1.06-.1-3,1-6.63,6.43a2.29,2.29,0,0,1-3.8-2.54c4-6,7.21-8.58,10.59-8.46,4.51.16,7.81,5.3,11.35,11.49.35.61.94,1.44,1.6,2.38,2.63,3.72,5.9,8.35,4.71,11.91a4.88,4.88,0,0,1-3.42,3.36A5.66,5.66,0,0,1,812.91,477.32Z" class="color571519 svgShape"></path>
    <path fill="#363636" d="M824.28,480.42c-4,0-8.54-3.72-9.72-5.51a2.28,2.28,0,0,1,3.8-2.53c.79,1.19,4.46,3.72,6.12,3.46.12,0,.21,0,.33-.46.67-2.34-1-6.83-2.1-9.8-.36-1-.69-1.86-.93-2.62l-.79-2.51c-1.9-6.11-4.77-15.34-8.43-16-1.83-.33-4.49,1.7-7.47,5.68a2.28,2.28,0,1,1-3.65-2.74c4.24-5.66,8.13-8.12,11.9-7.44,6.41,1.11,9.39,10.67,12,19.11l.78,2.47c.22.7.53,1.53.86,2.42,1.47,4,3.3,8.88,2.22,12.66a4.92,4.92,0,0,1-4,3.71A5.58,5.58,0,0,1,824.28,480.42Z" class="color571519 svgShape"></path>
    <path fill="#363636" d="M833.89,478.87c-3.36,0-6.16-2.51-7-3.32a2.29,2.29,0,0,1,3.23-3.24c1.27,1.27,2.88,2.09,3.94,2a1.52,1.52,0,0,0,1.16-.8c1.12-1.69-.28-7.66-1-10.87-.39-1.69-.73-3.18-.87-4.25-.92-7.4-2.21-15.43-5.71-17-2.06-.93-5.4.1-9.91,3.11a2.29,2.29,0,1,1-2.54-3.8c6-4,10.69-5.14,14.35-3.46,5.65,2.58,7.13,10.87,8.35,20.63.12.94.43,2.26.78,3.76,1.48,6.3,2.44,11.37.38,14.46a6.06,6.06,0,0,1-4.51,2.81Z" class="color571519 svgShape"></path>
    <path fill="#363636" d="M845.08 470.15a3 3 0 0 1-.42 0c-4.29-.38-8.42-6.79-9-8a2.29 2.29 0 0 1 4.09-2c.89 1.78 4.14 5.42 5.32 5.45.71-1.14.23-4.75-.05-6.9-.14-1-.26-1.95-.3-2.69-.15-3.11-.62-12.57-3.9-14.22-1.63-.82-4.17.47-6 1.7a2.28 2.28 0 0 1-2.53-3.8c4.16-2.77 7.72-3.44 10.6-2 5 2.5 6 10.16 6.42 18.07 0 .64.14 1.44.26 2.32.45 3.39 1 7.61-1 10.27A4.28 4.28 0 0 1 845.08 470.15ZM727.59 1006.8a2.28 2.28 0 0 1-1.78-3.72c2.55-3.16 5.31-7.68 5.18-9.09l-1.47-16.11c-3.55-38.75-5.69-62.14-5.26-87.63.49-28.73.62-85.9-1.1-117-1.25-22.51-2.48-64.36 3.31-91.84a2.29 2.29 0 1 1 4.48.94c-5.69 27-4.47 68.37-3.23 90.64 1.73 31.27 1.6 88.59 1.11 117.37-.42 25.25 1.71 48.54 5.24 87.14l1.47 16.12c.36 3.93-4.63 10.46-6.17 12.37A2.27 2.27 0 0 1 727.59 1006.8ZM495.58 950.44h-.17A2.29 2.29 0 0 1 493.3 948c.16-2.3.36-4.67.57-7.07.81-9.31 1.64-18.95.34-27.73-4.95-33.48-11.7-54.54-18.84-76.84-5.34-16.64-10.85-33.85-15.81-57.06a2.28 2.28 0 1 1 4.46-1c4.92 23 10.4 40.09 15.7 56.63 7.2 22.48 14 43.71 19 77.56 1.38 9.32.52 19.22-.31 28.8-.2 2.37-.4 4.71-.57 7A2.28 2.28 0 0 1 495.58 950.44ZM512.74 1029.45c-4.32 0-10.57-2.88-18.62-8.58-6.85-4.84-11.86-5.16-18.21-5.57a73.39 73.39 0 0 1-11.55-1.41c-8-1.72-16-7.2-23.71-16.28a2.28 2.28 0 1 1 3.48-3c7.06 8.3 14.19 13.27 21.2 14.78a69.32 69.32 0 0 0 10.87 1.31c6.5.42 12.65.81 20.55 6.4 9 6.37 14.57 8.12 16.74 7.67a1.28 1.28 0 0 0 .93-.63c-.08-.4-1-1.73-5-4.8-.51-.39-.94-.72-1.21-1a93.77 93.77 0 0 0-7.66-5.6c-6.85-4.69-14.6-10-17.35-16.18a2.29 2.29 0 1 1 4.18-1.86c2.22 5 9.41 9.92 15.76 14.27a99.3 99.3 0 0 1 8.05 5.91c.22.19.57.45 1 .77 3 2.29 8.67 6.56 6.24 10.73a5.82 5.82 0 0 1-3.91 2.8A7.83 7.83 0 0 1 512.74 1029.45Z" class="color571519 svgShape"></path>
    <path fill="#363636" d="M533.31,1005.69c-3.76,0-8.36-2-10.84-3.41a41.21,41.21,0,0,1-7.06-5.91,30.06,30.06,0,0,0-4.5-3.91c-9.83-5.24-18.45-.47-23.94,4.44a2.29,2.29,0,0,1-3.05-3.41c9.31-8.31,19.66-10.1,29.13-5.06a29.81,29.81,0,0,1,5.54,4.65,38.09,38.09,0,0,0,6.16,5.24c4.2,2.41,8.78,3.26,9.7,2.62.29-.2.64-.49.65-.77.06-1.63-3.9-4.82-5.39-6-2.54-2-4.76-4.18-6.91-6.25-3.93-3.79-7.65-7.36-12.09-9.57-2.34-1.17-8.1-2.56-13.19-3.79a100.15,100.15,0,0,1-10.95-3,2.28,2.28,0,1,1,1.68-4.24,106.26,106.26,0,0,0,10.35,2.81c5.57,1.35,11.35,2.74,14.15,4.14,5.07,2.52,9.21,6.51,13.22,10.37,2.17,2.09,4.22,4.06,6.4,5.82,3.08,2.47,7.44,6,7.3,9.9a5.46,5.46,0,0,1-2.64,4.37A6.47,6.47,0,0,1,533.31,1005.69Z" class="color571519 svgShape"></path>
    <path fill="#363636" d="M538,999.81a2.29,2.29,0,0,1-.6-4.49c.38-.1,1-.33,1.13-.67.53-2-3-6.86-10.59-14.51-.88-.89-1.58-1.6-2-2.08-8.48-9.49-14-12.56-23.17-15.85a37.65,37.65,0,0,0-12.33-1.86,2.28,2.28,0,1,1-.25-4.56,41,41,0,0,1,14.12,2.12c9.73,3.49,15.95,6.94,25,17.11.39.44,1,1.09,1.84,1.91,6.69,6.78,13.12,13.83,11.75,18.91-.36,1.33-1.41,3.09-4.34,3.89A2.47,2.47,0,0,1,538,999.81Z" class="color571519 svgShape"></path>
    <path fill="#363636" d="M532.68 975.05c-3.34 0-5.82-2.06-7.92-3.79-.5-.42-1-.84-1.53-1.24-6.8-5.21-11.32-7.9-17.15-8.12a2.29 2.29 0 0 1 .17-4.57c7 .27 12.36 3.39 19.76 9.06.57.44 1.12.9 1.66 1.35 2.47 2 3.9 3.11 5.92 2.63a47.7 47.7 0 0 0-3.36-4.43c-1.23-1.5-2.6-3.17-3.92-5-4.5-6.17-9.6-8.39-19-12.11-4.38-1.75-17.32 6-26.77 11.71-5.62 3.38-10.93 6.56-14.78 8.12a2.28 2.28 0 1 1-1.72-4.23c3.52-1.43 8.68-4.53 14.15-7.81 12-7.19 24.34-14.62 30.81-12 9.59 3.81 15.74 6.51 21 13.67 1.27 1.73 2.58 3.34 3.77 4.78 3.16 3.87 5.25 6.41 4.6 8.89a3.62 3.62 0 0 1-2.31 2.44A9.34 9.34 0 0 1 532.68 975.05ZM501.05 1677.13a2.28 2.28 0 0 1-2.29-2.28v-3.78a2.3 2.3 0 0 1 2.28-2.3h0a2.28 2.28 0 0 1 2.28 2.28v3.8A2.28 2.28 0 0 1 501.05 1677.13ZM491.08 1667.5a2.29 2.29 0 0 1-2.28-2.27c-.37-51.56-2.75-96.22-5.27-143.5-.89-16.74-1.8-33.91-2.66-52-1.5-31.54 2-59.49 5.7-89.08 2-15.85 4-32.23 5.25-49.23 2.28-31.91-2.52-67.72-7.16-102.34-3-22.09-5.75-43-6.82-62.81a796.5 796.5 0 0 1 5.93-150 2.26 2.26 0 0 1 2.56-2 2.29 2.29 0 0 1 2 2.57A792.45 792.45 0 0 0 482.4 1166c1.06 19.67 3.85 40.45 6.79 62.46 4.67 34.85 9.5 70.89 7.18 103.26-1.22 17.13-3.28 33.57-5.27 49.47-3.68 29.4-7.15 57.16-5.67 88.31.86 18.07 1.78 35.23 2.67 52 2.52 47.34 4.9 92 5.27 143.71a2.29 2.29 0 0 1-2.27 2.31ZM557.05 1666.63a2.29 2.29 0 0 1-2.27-2.1c-3.37-41 2.12-121.46 13.34-195.69 4.39-29 9-56.28 12.61-78.16 2.8-16.71 5-29.92 6.22-38.37 3-21.23 5.71-42.51 8.3-63.08 8.7-69 16.91-134.19 36.46-182.41a2.28 2.28 0 1 1 4.23 1.71c-19.32 47.68-27.5 112.57-36.15 181.27-2.6 20.59-5.28 41.89-8.32 63.16-1.21 8.5-3.43 21.73-6.23 38.48-3.66 21.86-8.21 49.07-12.6 78.08-11.18 73.92-16.65 154-13.31 194.64a2.27 2.27 0 0 1-2.09 2.46ZM692.62 1677.13a2.28 2.28 0 0 1-2.28-2.28v-2.93a2.28 2.28 0 0 1 2.27-2.3h0a2.29 2.29 0 0 1 2.28 2.28v2.95A2.28 2.28 0 0 1 692.62 1677.13Z" class="color571519 svgShape"></path>
    <path fill="#363636" d="M682.27 1668.37a2.29 2.29 0 0 1-2.28-2.27c-.3-48.68-3-83.1-6.8-130.75-1.64-20.68-3.49-44.13-5.37-71.86-2.07-30.55-1.6-52-1.18-70.82.33-15.12.65-29.4-.39-46.08-2.69-43-18.46-100.85-31.14-147.36-5.6-20.55-10.44-38.31-13.52-52.31a2.28 2.28 0 1 1 4.46-1c3.06 13.89 7.89 31.59 13.47 52.09 12.73 46.71 28.57 104.84 31.29 148.28 1.05 16.87.73 31.24.4 46.46-.42 18.78-.89 40.07 1.17 70.41 1.87 27.7 3.73 51.14 5.37 71.81 3.64 46 6.51 82.24 6.81 131.08a2.29 2.29 0 0 1-2.27 2.3ZM747.91 1664.92a2.28 2.28 0 0 1-2.26-2c-9-61.8 4.38-251.9 10-310.46 6.2-64.31-16.27-261-29.1-347.16a2.28 2.28 0 0 1 4.52-.67C744 1091 766.46 1288.25 760.23 1353c-5.64 58.42-19 248-10.06 309.36a2.28 2.28 0 0 1-1.93 2.59Z" class="color571519 svgShape"></path>
    <path fill="#363636" d="M784.52,1780.36c-9.44,0-17.9-.73-22.35-1.72-14.83-3-23.18-10.65-31.25-18a122.26,122.26,0,0,0-10.89-9.19c-6.27-4.56-13.32-7-19.55-9-7.18-2.44-13.38-4.54-15.59-9.41-2-4.07-1.26-12.7-.51-21l.31-3.48c.54-6.16.9-13.81,1.21-20.56.28-6.14.53-11.44.86-14.59a2.42,2.42,0,0,1,1.51-2,3,3,0,0,1,2.87,1,11,11,0,0,0,6.62,3.79c4.65,1.08,12.71.69,21.59-3.6a5,5,0,0,1,4.18-.21c4.09,1.63,6.63,8.62,10.14,18.3,4.79,13.18,10.75,29.58,21.73,34.89a2.29,2.29,0,0,1-2,4.12c-12.66-6.13-19-23.49-24-37.45-2.51-6.91-5.36-14.75-7.54-15.62-.1,0-.19-.07-.48.07-12.54,6.06-22,4.57-24.58,4a17,17,0,0,1-5.82-2.35c-.17,2.81-.33,6.19-.5,9.86-.31,6.8-.67,14.49-1.22,20.74l-.31,3.5c-.59,6.62-1.41,15.69.08,18.67,1.43,3.15,6.76,5,12.94,7s13.93,4.72,20.77,9.67a128.86,128.86,0,0,1,11.28,9.52c8,7.28,15.49,14.16,29.12,16.93,13.92,3.1,51.9,2.25,59.84-5.9a3.61,3.61,0,0,0,1.14-3.69c-2.27-9.46-10.87-15.24-22.76-23.25-8.13-5.48-18.25-12.29-28.87-22.07-5.35-4.76-17.23-18.3-23.64-35.29a48.74,48.74,0,0,1-2.36-9.25,28.85,28.85,0,0,0-1.8-6.91,2.29,2.29,0,1,1,4.09-2,31.92,31.92,0,0,1,2.21,8.13,43.92,43.92,0,0,0,2.12,8.43c5.67,15,16.53,28.28,22.45,33.55,10.39,9.57,19.93,16,28.35,21.67,12.75,8.58,22,14.79,24.65,26a8.17,8.17,0,0,1-2.3,8C819.66,1778.21,800.66,1780.36,784.52,1780.36Z" class="color571519 svgShape"></path>
    <path fill="#363636" d="M786.31 1787.71c-11.33 0-21.66-.87-26.5-1.83-13.75-2.8-19.31-9.45-25.19-16.48-3.15-3.76-6.4-7.65-11.15-11.1-3.33-2.45-5.07-2.37-8-2.21a25.36 25.36 0 0 1-7.69-.51c-.89-.17-23.17-4.71-25.43-12.6-1.47-5.18.73-18.14 1-19.6a2.28 2.28 0 1 1 4.5.78c-.89 5.13-2 14.43-1.08 17.56.79 2.78 11.27 7.26 22 9.4a21.4 21.4 0 0 0 6.49.41c3.24-.18 6.29-.33 10.93 3.09 5.2 3.76 8.63 7.87 12 11.85 5.59 6.68 10.42 12.45 22.59 14.92 11.62 2.33 53.73 3.64 64.24-4.76a4.06 4.06 0 0 0 1.83-3c.24-1.59-.79-5.79-2.4-8.38a2.28 2.28 0 1 1 3.87-2.41c1.84 2.94 3.55 8.36 3.07 11.22 0 2.15-1.22 4.33-3.52 6.16C820.61 1786 802.45 1787.71 786.31 1787.71ZM533 1789.42c-18.45 0-42-2.63-45.27-12.78-1.55-5 .1-13.56 2-23.52.45-2.38.92-4.8 1.34-7.18.3-1.68.67-3.47 1.07-5.43a174.5 174.5 0 0 0 4.06-44.35c0-1.37-.15-3.19-.31-5.18-.35-4.45-.75-9.51 0-12.63.84-3.36 7.2-5.73 11.2-5.88s6.94 1.55 8 4.68c1.46 4.36 1.35 9.4 1.2 16.37-.08 3.77-.18 8.2 0 13.54.34 14.74.68 22 .68 22a2.27 2.27 0 0 1-2.17 2.38 2.23 2.23 0 0 1-2.39-2.17s-.34-7.24-.69-22.08c-.13-5.41 0-9.91 0-13.74.15-6.75.24-11.21-1-14.83-.12-.38-.42-1.27-2.24-1.51-3.3-.39-7.65 1.67-8.25 2.59-.52 2.19-.13 7 .18 10.95.17 2.13.32 4.07.32 5.48a178.86 178.86 0 0 1-4.15 45.34c-.4 1.92-.76 3.67-1.05 5.3-.43 2.4-.89 4.84-1.36 7.24-1.64 8.57-3.35 17.44-2.15 21.27 2.21 6.77 26.37 11 52.74 9.22 19.86-1.34 27.18-5.29 27.47-6.89 1-5.3-2.73-13.78-6.66-22.76-2.37-5.4-4.81-11-6.68-16.72-4.88-15.94-8.57-29.55-11.8-60-.24-1-2-4-3-4.42 0 .07-.16.23-.35.53-2.81 4.35-.36 27.32 5.42 51.28a2.27 2.27 0 0 1-1.68 2.75 2.31 2.31 0 0 1-2.76-1.68c-3.78-15.69-9.67-47.31-4.85-54.76 1.65-2.76 3.79-2.85 4.91-2.66 4 .69 6.52 6.78 6.81 8.27 3.22 30.25 6.86 43.65 11.65 59.3 1.79 5.49 4.18 11 6.5 16.26 4.41 10.07 8.21 18.76 7 25.42-1.36 7.48-20.42 9.87-31.66 10.63C541.58 1789.27 537.42 1789.42 533 1789.42Z" class="color571519 svgShape"></path>
    <path fill="#363636" d="M533.19 1798.18c-16.16 0-32.86-2.42-41.93-9.06-5-3.83-6.69-9.63-5-16.82a2.29 2.29 0 0 1 4.45 1c-1.27 5.38-.16 9.46 3.3 12.11 14.2 10.4 53.72 9.8 72.4 4.32 5.28-1.56 7.11-3.08 7.33-3.67 2.37-6.48-1.55-13.84-1.59-13.91a2.29 2.29 0 1 1 4-2.18c.2.37 4.93 9.26 1.85 17.69-1 2.61-4.37 4.7-10.32 6.45C559.74 1796.5 546.66 1798.18 533.19 1798.18ZM515 1692.88a2.28 2.28 0 0 1-.62-4.48c.63-.18 15.53-4.26 26-1.39a2.29 2.29 0 0 1-1.22 4.41c-9.24-2.55-23.41 1.34-23.55 1.38A2.62 2.62 0 0 1 515 1692.88ZM515 1702.52a2.29 2.29 0 0 1-.62-4.49c.63-.17 15.53-4.25 26-1.38a2.29 2.29 0 0 1-1.22 4.41c-9.24-2.56-23.41 1.33-23.55 1.37A2.2 2.2 0 0 1 515 1702.52ZM515.32 1713.87a2.28 2.28 0 0 1-.54-4.5c.72-.18 17.55-4.22 28.31-1.37a2.29 2.29 0 1 1-1.18 4.42c-9.63-2.58-25.88 1.34-26 1.38A2.13 2.13 0 0 1 515.32 1713.87ZM516 1725.22a2.28 2.28 0 0 1-.5-4.51c.78-.18 19.25-4.22 29.66-1.35a2.28 2.28 0 1 1-1.21 4.4c-9.32-2.57-27.28 1.37-27.46 1.41A2 2 0 0 1 516 1725.22ZM734.11 1697.15a2.29 2.29 0 0 1-1.09-4.3 75.07 75.07 0 0 1 18.54-6.77 2.3 2.3 0 0 1 2.68 1.82 2.28 2.28 0 0 1-1.81 2.67 71 71 0 0 0-17.24 6.31A2.3 2.3 0 0 1 734.11 1697.15ZM737.55 1707.48a2.29 2.29 0 0 1-1.13-4.28c.44-.25 10.85-6.1 20.84-7.16a2.28 2.28 0 0 1 .48 4.54c-9 1-19 6.54-19.06 6.6A2.33 2.33 0 0 1 737.55 1707.48ZM742 1717.11a2.28 2.28 0 0 1-1-4.33c.46-.23 11.42-5.68 21.26-7.43a2.29 2.29 0 0 1 .8 4.5c-9.18 1.64-19.91 7-20 7A2.21 2.21 0 0 1 742 1717.11ZM751 1726.05a2.28 2.28 0 0 1-1-4.34c.45-.21 11-5.31 21.18-7.4a2.28 2.28 0 1 1 .92 4.47c-9.57 2-20 7-20.11 7A2.33 2.33 0 0 1 751 1726.05ZM525.62 1676a76.21 76.21 0 0 1-35.57-8.92 2.28 2.28 0 0 1 2.19-4c17.5 9.56 44.89 12.51 63.36-.33a2.29 2.29 0 0 1 3.19.57 2.27 2.27 0 0 1-.58 3.17C548.47 1673.25 537 1676 525.62 1676ZM714.68 1676a76.31 76.31 0 0 1-33.29-7.68 2.28 2.28 0 1 1 2-4.08c17.84 8.91 45.32 10.88 63.31-2.63a2.29 2.29 0 0 1 2.75 3.66C739.28 1672.91 726.86 1676 714.68 1676ZM604.22 665.58a2.29 2.29 0 0 1-2-1.17c-3.33-5.93-8.08-8.73-15.25-13l-5.08-3c-11.32-6.66-24.15-14.2-32.3-20.38-8.92-6.76-12.68-11.56-12.58-16 .05-2.58 1.41-4.81 4-6.63a2.29 2.29 0 0 1 2.6 3.76c-2 1.41-2.07 2.58-2.07 3-.07 2.7 3.56 6.83 10.77 12.3 7.93 6 20.64 13.49 31.85 20.08l5.09 3c7.54 4.45 13 7.67 16.91 14.67a2.29 2.29 0 0 1-2 3.41Z" class="color571519 svgShape"></path>
    <path fill="#363636" d="M604.92 664.19a2.29 2.29 0 0 1-2.28-2.19c-.45-10.14 6-20 11.69-28.71 8.11-12.39 11-18.25 4.82-22.45a2.28 2.28 0 0 1 2.56-3.78c10.56 7.15 3.39 18.12-3.55 28.73-5.32 8.13-11.34 17.34-10.95 26a2.27 2.27 0 0 1-2.18 2.38ZM579.57 685.83a2.07 2.07 0 0 1-.5-.05c-1.67-.38-3.55-2.33-11.58-11.26-5.36-6-12-13.41-18.61-19.7-6.71-6.44-13.4-12.46-18.29-16.85-8.66-7.79-8.66-7.79-7.33-9.63.83-1.15 1.69-2.26 2.55-3.37a46.59 46.59 0 0 0 5.7-8.59 31.91 31.91 0 0 0 1.47-4.24c1.28-4.26 2.73-9.09 7.2-11a2.28 2.28 0 0 1 1.8 4.2c-2.51 1.07-3.58 4.65-4.62 8.11a33.92 33.92 0 0 1-1.73 4.89 50.17 50.17 0 0 1-6.21 9.43c-.45.58-.9 1.16-1.34 1.75 1.25 1.17 3.36 3.07 5.56 5.05 4.91 4.41 11.64 10.46 18.41 16.95s13.42 13.91 18.84 19.94c3.24 3.61 6.83 7.6 8.62 9.26A51.43 51.43 0 0 0 584.88 670c.56-1.47 1.1-3 1.64-4.56 2.53-7.26 4.72-13.52 9.47-12a2.29 2.29 0 0 1-1.11 4.43c-1.19.94-3 6-4 9.12-.56 1.57-1.12 3.18-1.7 4.69C585.5 681.07 582.28 685.83 579.57 685.83Z" class="color571519 svgShape"></path>
    <path fill="#363636" d="M629.32 673.79c-2.77 0-7.81-5.78-10.7-9.43-.73-.91-1.45-1.85-2.16-2.78-2.91-3.8-6.57-8.48-8.6-8.19a2.28 2.28 0 1 1-.72-4.51c4.71-.75 8.73 4.42 12.94 9.92.7.91 1.41 1.82 2.12 2.72a62.8 62.8 0 0 0 5.33 5.88c.33-2.43.74-5.87 1.15-9.24.51-4.3 1.09-9.18 1.72-13.86s1.28-9.07 1.84-12.88c.65-4.38 1.33-8.9 1.43-10.54a12.45 12.45 0 0 0-2.25-1.4 15.57 15.57 0 0 1-5.59-4.39c-.49-.67-.94-1.33-1.38-2-1.79-2.59-2.8-4-4.41-4a2.29 2.29 0 0 1 .05-4.57h0c4 .07 6.09 3.07 8.08 6 .41.6.84 1.22 1.3 1.84a11.2 11.2 0 0 0 4.08 3.09 11.47 11.47 0 0 1 4.16 3.16c.8 1.12.75 1.75-1 13.47-.56 3.8-1.22 8.21-1.83 12.82s-1.2 9.51-1.72 13.79c-1.7 14.3-1.7 14.3-3.26 15A1.61 1.61 0 0 1 629.32 673.79ZM435 998.25a6.47 6.47 0 0 1-3.77-1.11h0a30.73 30.73 0 0 1-4.53-4.48c-1.63-1.8-3.66-4-6.13-6.4-1.53-1.45-3.23-2.92-4.87-4.34-5.86-5.09-10.1-8.77-8.7-12.27.82-2 3.46-3.92 7.46-6.76a94 94 0 0 0 11.31-9c3.46-3.4 6.66-6.9 9.24-9.7 5.29-5.79 6.75-7.3 8.54-7.3s2.87 1.59 5.41 5.42a65.11 65.11 0 0 0 5.36 7.3 57.67 57.67 0 0 0 7 6.38c2.36 1.89 3.79 3 4.17 4.55 1.78 7.12-5.24 17.59-8.34 21.76C451.76 989.54 442 998.25 435 998.25Zm-1.18-4.87c2.76 1.9 12.56-4.26 19.68-13.85 5.48-7.38 8.45-14.42 7.58-17.93-.16-.15-1.51-1.23-2.6-2.1a62 62 0 0 1-7.56-6.87 69.44 69.44 0 0 1-5.78-7.84c-.61-.93-1.31-2-1.87-2.75-1.2 1.13-3.14 3.25-4.9 5.18-2.62 2.85-5.86 6.4-9.41 9.88a96.88 96.88 0 0 1-11.86 9.51c-2.44 1.73-5.47 3.89-5.87 4.75.34.93 4.62 4.64 7.45 7.11 1.7 1.46 3.44 3 5 4.48 2.6 2.47 4.7 4.79 6.38 6.65A31.47 31.47 0 0 0 433.82 993.38Zm8.68-52.29ZM602.73 1028.08c-38.15 0-74.79-4.07-95.85-12a2.28 2.28 0 1 1 1.62-4.27c46.63 17.55 177.89 15.34 217.52-8.93a2.28 2.28 0 0 1 2.38 3.9C705 1021.14 652.58 1028.08 602.73 1028.08Z" class="color571519 svgShape"></path>
    <path fill="#363636" d="M630.43 1025.54a2.29 2.29 0 0 1-2.28-2.2c-.14-4.22-.35-12.24-.62-23.21-1-41.68-3.24-128.43-7.55-208.6-1.85-34.31-9.59-77.78-14.22-103.75l-.08-.47c-1.81-10.12-3.23-18.11-3.77-22.41a2.28 2.28 0 1 1 4.53-.57c.53 4.19 1.94 12.12 3.74 22.17l.08.47c4.65 26.08 12.42 69.72 14.28 104.32 4.31 80.23 6.5 167 7.56 208.73.27 10.94.47 19 .62 23.16a2.28 2.28 0 0 1-2.2 2.36ZM849.18 454.73a2.28 2.28 0 0 1-.66-4.47l279-85.1a2.28 2.28 0 0 1 1.34 4.36l-279 85.11A2.22 2.22 0 0 1 849.18 454.73ZM636.12 519.61a2.29 2.29 0 0 1-.67-4.48l162.74-49.47a2.28 2.28 0 0 1 1.33 4.37L636.78 519.51A2.58 2.58 0 0 1 636.12 519.61ZM344.52 710.09c-5 0-23-11-33.16-42.76-8.68-27.13-2.66-43.35.33-49.06 1.48-2.84 2.84-4.46 4-4.82l198-60.88a2.29 2.29 0 0 1 1.34 4.37L317.5 617.68c-1.28 1.64-11.85 16.81-1.79 48.26 10.18 31.82 26.62 38.84 28.59 39.56l73.64-22.71a2.29 2.29 0 1 1 1.35 4.37L345.18 710A2.48 2.48 0 0 1 344.52 710.09Z" class="color571519 svgShape"></path>
    <path fill="#363636" d="M326 690.23a2.28 2.28 0 0 1-.68-4.46l198.74-61.21a2.29 2.29 0 1 1 1.34 4.37l-198.73 61.2A2.27 2.27 0 0 1 326 690.23ZM628.69 597.53a2.28 2.28 0 0 1-.67-4.47L1141.33 435.7a2.29 2.29 0 1 1 1.34 4.37L629.35 597.43A2.16 2.16 0 0 1 628.69 597.53ZM311 644.34a2.28 2.28 0 0 1-.66-4.47l217.05-66.14a2.29 2.29 0 0 1 1.33 4.38l-217 66.13A2.22 2.22 0 0 1 311 644.34ZM642.46 543.35a2.29 2.29 0 0 1-.67-4.48l484.75-147.69a2.28 2.28 0 1 1 1.33 4.37L643.12 543.25A2.51 2.51 0 0 1 642.46 543.35ZM1156.25 462a2.31 2.31 0 0 1-1.79-.85 2.28 2.28 0 0 1 .36-3.21l70.09-56.31L1255.76 379l-34.86-1.38-92.42-8a2.29 2.29 0 0 1-2.08-2.48 2.22 2.22 0 0 1 2.47-2.08l92.32 8 41.28 1.63a2.29 2.29 0 0 1 1.26 4.13l-36 26.48-70 56.25A2.29 2.29 0 0 1 1156.25 462Z" class="color571519 svgShape"></path>
    <path fill="#363636" d="M1145,462.18c-6.89,0-14.92-.94-18.89-4.14a6.68,6.68,0,0,1-2.69-5.93c.35-4.21,8.15-9.9,14.15-13.68l-5.85-1.78c-6.11-1.89-14.48-4.46-18.12-13.27-3.49-8.45,6.79-23.85,10.84-29.42-2.1-1.61-5.33-4.3-6.94-6.75-2-3.06-2.26-7.25-.72-11.5,1.84-5.07,5.84-9.1,10.44-10.5a2.28,2.28,0,1,1,1.34,4.36c-3.21,1-6.15,4-7.49,7.7-1,2.84-.93,5.62.26,7.44,1.57,2.4,6,5.79,7.63,6.9a2.26,2.26,0,0,1,1,1.53,2.29,2.29,0,0,1-.45,1.75c-5.73,7.37-14,21.16-11.64,26.74,2.82,6.82,9.71,8.94,15.25,10.65,6.17,1.9,10.75,3.24,10.76,3.24a2.28,2.28,0,0,1,.5,4.17c-8.46,4.86-16.1,10.84-16.36,12.8a2.14,2.14,0,0,0,1,2c5,4,22.06,3.51,26.08,2.28a2.28,2.28,0,1,1,1.33,4.37A49.82,49.82,0,0,1,1145,462.18Z" class="color571519 svgShape"></path>
    <path fill="#363636" d="M1143.78 439.63a2.31 2.31 0 0 1-2-1.23 2.29 2.29 0 0 1 1-3.08l81.59-42.85a2.28 2.28 0 1 1 2.13 4l-81.6 42.85A2.26 2.26 0 0 1 1143.78 439.63ZM1128.45 395.75a2.28 2.28 0 0 1-.24-4.55l83.45-8.95a2.28 2.28 0 0 1 .48 4.54l-83.44 8.95Z" class="color571519 svgShape"></path>
    <path fill="#363636" d="M1226.28 404.51a2.3 2.3 0 0 1-2.29-2.26l-.07-7-13-8.65a2.3 2.3 0 0 1-1-1.72 2.26 2.26 0 0 1 .72-1.85l9.63-9a2.29 2.29 0 0 1 3.12 3.34l-7.52 7 11.6 7.72a2.31 2.31 0 0 1 1 1.89l.08 8.22a2.28 2.28 0 0 1-2.26 2.31ZM638.81 620.1a2.29 2.29 0 0 1-.67-4.47l517.43-158.26a2.29 2.29 0 1 1 1.34 4.37L639.48 620A2.22 2.22 0 0 1 638.81 620.1ZM998.07 1267.19c-28 0-80.83-3.11-80.83-14.89l.55-48a2.29 2.29 0 0 1 2.29-2.25h0a2.27 2.27 0 0 1 2.25 2.31l-.55 47.94c1 3.65 27.42 10.29 76.26 10.29s75.21-6.64 76.25-10.36l.2-38.1a2.47 2.47 0 0 1 2.29-2.28 2.3 2.3 0 0 1 2.28 2.3l-.2 38.13C1078.89 1264.08 1026 1267.19 998.07 1267.19Z" class="color571519 svgShape"></path>
    <path fill="#363636" d="M969.47,1222.1a2.46,2.46,0,0,1-.72-.11l-119.41-39.4a2.28,2.28,0,0,1,.53-4.44l166.38-13.63a2.33,2.33,0,0,1,.79.07l136.09,37a2.28,2.28,0,0,1-.4,4.48L969.67,1222.1Zm-108-40.32,108.27,35.72,169.82-14.89-123.33-33.5Z" class="color571519 svgShape"></path>
    <path fill="#363636" d="M1124.07,1261.53h0a2.29,2.29,0,0,1-2.26-2.31l.63-51.47a2.29,2.29,0,0,1,2.29-2.26h0a2.28,2.28,0,0,1,2.25,2.31l-.63,51.48A2.27,2.27,0,0,1,1124.07,1261.53Z" class="color571519 svgShape"></path>
    <path fill="#363636" d="M1115.62,1319.82a2.29,2.29,0,0,1-2.2-2.92c2.24-7.75,3-18,3.67-27.89s1.44-20.31,3.71-28.67a2.28,2.28,0,1,1,4.41,1.19c-2.15,7.94-2.87,18-3.56,27.8-.72,10.14-1.46,20.62-3.83,28.83A2.3,2.3,0,0,1,1115.62,1319.82Z" class="color571519 svgShape"></path>
    <path fill="#363636" d="M1134.05 1320.44a2.29 2.29 0 0 1-2.09-1.36c-4.06-9.06-4.61-21.53-5.1-32.53-.48-10.8-.93-21-4.45-25.35a2.28 2.28 0 1 1 3.54-2.88c4.48 5.51 4.94 16 5.48 28 .49 11.11 1 22.6 4.7 30.87a2.27 2.27 0 0 1-1.15 3A2.21 2.21 0 0 1 1134.05 1320.44ZM1123.56 1320.78h-.28a2.28 2.28 0 0 1-2-2.55 83.69 83.69 0 0 0 .45-8.36l.08-3a2.41 2.41 0 0 1 2.36-2.21 2.28 2.28 0 0 1 2.2 2.36l-.07 2.94a88.16 88.16 0 0 1-.49 8.81A2.28 2.28 0 0 1 1123.56 1320.78ZM1349.55 1114.84H1193.32a2.28 2.28 0 0 1-2.24-2.71l38-203.57a2.28 2.28 0 0 1 2.25-1.86h156.23a2.3 2.3 0 0 1 1.76.82 2.27 2.27 0 0 1 .48 1.88l-38 203.57A2.29 2.29 0 0 1 1349.55 1114.84Zm-153.48-4.57h151.59l37.17-199H1233.26Z" class="color571519 svgShape"></path>
    <path fill="#363636" d="M1344.83 1106.7H1201.1a2.29 2.29 0 0 1-2.25-2.71l35-187.28a2.27 2.27 0 0 1 2.24-1.87h143.73a2.29 2.29 0 0 1 2.25 2.71l-35 187.28A2.28 2.28 0 0 1 1344.83 1106.7Zm-141-4.57h139.08l34.13-182.72H1238ZM1329 908.64a2.15 2.15 0 0 1-.43 0 2.29 2.29 0 0 1-1.82-2.67l1.36-7.1a203.15 203.15 0 0 0-20.4-1.27 137 137 0 0 0-18.17 1.3l-1.41 7.43a2.29 2.29 0 0 1-4.49-.86l1.72-9a2.26 2.26 0 0 1 1.86-1.82 136.11 136.11 0 0 1 20.49-1.6 216.89 216.89 0 0 1 23.39 1.58 2.3 2.3 0 0 1 2 2.7l-1.82 9.52A2.28 2.28 0 0 1 1329 908.64ZM1660 962.15H1503.88a18.57 18.57 0 0 1-18.54-18.55V775.41a18.56 18.56 0 0 1 18.54-18.53H1660a18.56 18.56 0 0 1 18.54 18.53V943.6A18.57 18.57 0 0 1 1660 962.15ZM1503.88 761.44a14 14 0 0 0-14 14V943.6a14 14 0 0 0 14 14H1660a14 14 0 0 0 14-14V775.41a14 14 0 0 0-14-14Z" class="color571519 svgShape"></path>
    <path fill="#4c55e2" fill-rule="evenodd" d="M1646.3,747.16a10.49,10.49,0,0,0-10.24,5.57c0,.06-7.15,13.65-9.68,18.6-7.24,14.15-14.48,28.72-21.24,42.91-2.05,4.3-4,8.53-5.93,12.63-.46,1-.9,2-1.35,3-7.65,16.67-15.23,34.29-22.39,51.8-.45,1.1-3.51,7.21-4,8.28l-27.33-47.28a10.53,10.53,0,0,0-14.42-3.85A10.66,10.66,0,0,0,1526,853.3l38.16,66.05a10.51,10.51,0,0,0,18.94-1.53c0-.06,4.48-9.72,5.17-11.47,2-5,4.21-10.6,6.68-16.64,7.06-17.25,14.51-34.63,22-51,.44-1,5.16-11.06,7.18-15.29,6.67-14,13.82-28.36,21-42.34,2.5-4.9,9.21-17.77,9.35-18l.16-.3a10.64,10.64,0,0,0-4.31-14.36A10.45,10.45,0,0,0,1646.3,747.16Z" class="colore2724c svgShape"></path>
    <path fill="#363636" d="M1846.22,807.89a123.64,123.64,0,1,1,123.63-123.63A123.78,123.78,0,0,1,1846.22,807.89Zm0-242.7a119.07,119.07,0,1,0,119.06,119.07A119.21,119.21,0,0,0,1846.22,565.19Z" class="color571519 svgShape"></path>
    <path fill="#363636" d="M1846.22,785.18a100.92,100.92,0,1,1,100.92-100.92A101,101,0,0,1,1846.22,785.18Zm0-197.27a96.35,96.35,0,1,0,96.35,96.35A96.46,96.46,0,0,0,1846.22,587.91Z" class="color571519 svgShape"></path>
    <path fill="#363636" d="M1846.22,770.88a86.62,86.62,0,1,1,86.62-86.62A86.72,86.72,0,0,1,1846.22,770.88Zm0-168.67a82,82,0,1,0,82,82A82.15,82.15,0,0,0,1846.22,602.21Z" class="color571519 svgShape"></path>
    <path fill="#363636" d="M1846.22,751.39a67.13,67.13,0,1,1,67.13-67.13A67.21,67.21,0,0,1,1846.22,751.39Zm0-129.69a62.56,62.56,0,1,0,62.56,62.56A62.63,62.63,0,0,0,1846.22,621.7Z" class="color571519 svgShape"></path>
    <path fill="#363636" d="M1846.22,735.28a51,51,0,1,1,51-51A51.08,51.08,0,0,1,1846.22,735.28Zm0-97.47a46.45,46.45,0,1,0,46.45,46.45A46.51,46.51,0,0,0,1846.22,637.81Z" class="color571519 svgShape"></path>
    <path fill="#363636" d="M1846.22,707.63a23.38,23.38,0,0,1,0-46.75,24,24,0,0,1,5,.54,2.29,2.29,0,0,1-1,4.47,18.77,18.77,0,1,0,13.06,10.51,2.28,2.28,0,1,1,4.15-1.9,23.09,23.09,0,0,1,2.13,9.76A23.39,23.39,0,0,1,1846.22,707.63Z" class="color571519 svgShape"></path>
    <path fill="#363636" d="M1850.9,686.22h-.12a9.13,9.13,0,0,1-4.23-1.33,8.29,8.29,0,0,1-2.72-3.44,2.33,2.33,0,0,1,0-1.83l11.35-24.56a2.28,2.28,0,0,1,4-.26l5,7.86,8.39,2.81a2.28,2.28,0,0,1,.68,4l-21,16.3A2.22,2.22,0,0,1,1850.9,686.22Zm-2.39-5.74a3,3,0,0,0,.6.63,3.63,3.63,0,0,0,1.16.43l16.84-13.09-5.11-1.71a2.26,2.26,0,0,1-1.21-.94l-3.18-5Z" class="color571519 svgShape"></path>
    <path fill="#363636" d="M1864.21,665.62a2.28,2.28,0,0,1-1.79-3.7l108.9-138.24a2.29,2.29,0,0,1,3.59,2.83L1866,664.75A2.29,2.29,0,0,1,1864.21,665.62Z" class="color571519 svgShape"></path>
    <path fill="#363636" d="M1944.42,562.3a2.29,2.29,0,0,1-2.15-1.52l-2.8-7.82a2.27,2.27,0,0,1,.28-2.07l19.91-28.53a2.28,2.28,0,0,1,4,.39l4.55,10.43A2.28,2.28,0,1,1,1964,535l-2.93-6.69-16.9,24.21,2.4,6.71a2.28,2.28,0,0,1-1.38,2.92A2.37,2.37,0,0,1,1944.42,562.3Z" class="color571519 svgShape"></path>
    <path fill="#363636" d="M1954.05 564.23h-.24l-8.25-.86a2.29 2.29 0 1 1 .47-4.55l7.08.74 19.51-22.17-7.19-1.25a2.28 2.28 0 1 1 .77-4.5l11.21 1.94a2.28 2.28 0 0 1 1.33 3.76l-23 26.12A2.26 2.26 0 0 1 1954.05 564.23ZM2199 654.86a2.22 2.22 0 0 1-1.06-.26l-62.22-32.77-62.28 32.69a2.29 2.29 0 0 1-3.32-2.41L2082 582.8l-50.34-49.12a2.29 2.29 0 0 1 1.27-3.9l69.61-10.07 31.16-63.05a2.28 2.28 0 0 1 2.05-1.27h0a2.31 2.31 0 0 1 2 1.27l31.09 63.09 69.59 10.16a2.28 2.28 0 0 1 1.26 3.9l-50.39 49.06 11.85 69.32a2.31 2.31 0 0 1-.91 2.24A2.35 2.35 0 0 1 2199 654.86ZM2135.69 617a2.23 2.23 0 0 1 1.06.27l59.19 31.17-11.27-65.95a2.29 2.29 0 0 1 .66-2l47.94-46.67-66.2-9.66a2.28 2.28 0 0 1-1.72-1.25l-29.58-60-29.63 60a2.28 2.28 0 0 1-1.73 1.24l-66.21 9.58 47.88 46.73a2.29 2.29 0 0 1 .66 2l-11.35 65.93 59.23-31.1A2.38 2.38 0 0 1 2135.69 617ZM2402.2 420.75a2.28 2.28 0 0 1-2.28-2.28V196.83a2.29 2.29 0 1 1 4.57 0V418.47A2.28 2.28 0 0 1 2402.2 420.75Z" class="color571519 svgShape"></path>
    <path fill="#363636" d="M2454.14 309.41c-31 0-51.58-6-52.58-6.28a2.28 2.28 0 1 1 1.29-4.38c.28.08 28.61 8.28 68 5.49 12.49-.88 24.52-4.67 35.14-8 7.49-2.36 14-4.39 19.35-5a67 67 0 0 1 36.17 5.93V199.46a109.62 109.62 0 0 0-39.37-1.84 158 158 0 0 0-16.74 4.11c-10.45 2.92-22.29 6.22-31 6.22a335.24 335.24 0 0 1-72.78-8 2.28 2.28 0 0 1 1.11-4.43 330.61 330.61 0 0 0 71.67 7.91c8.1 0 19.62-3.21 29.78-6a160 160 0 0 1 17.31-4.23 111.81 111.81 0 0 1 42.95 2.39 2.28 2.28 0 0 1 1.65 2.19V300.94a2.29 2.29 0 0 1-3.49 1.94 62.12 62.12 0 0 0-36.71-7.13c-5 .58-11.25 2.56-18.52 4.85-10.86 3.41-23.17 7.28-36.19 8.2C2465.24 309.22 2459.53 309.41 2454.14 309.41ZM2544.72 501.76l-.3 0c-6.44-.83-11-6.35-15-11.21a44.65 44.65 0 0 0-5.91-6.31c-12.79-10.12-28.94-16.13-44.56-21.93-5.52-2.06-11.23-4.18-16.62-6.43-8.55-3.57-16.29-9.55-23.78-15.33-14-10.8-27.17-21-45-16.42-3.65.94-7.17 3.47-10.56 5.91a65.52 65.52 0 0 1-6 4A110.58 110.58 0 0 0 2359 446.59c-8.68 7.45-16.53 15.8-24.13 23.88-9.52 10.13-19.36 20.6-31.13 29.66a2.28 2.28 0 0 1-2.78-3.62c11.47-8.84 21.19-19.17 30.59-29.17 7.67-8.17 15.61-16.61 24.48-24.22a113.59 113.59 0 0 1 18.56-13 67 67 0 0 0 5.61-3.76c3.75-2.7 7.62-5.48 12.11-6.64 20-5.14 34.72 6.24 49 17.23 7.26 5.6 14.75 11.4 22.75 14.73 5.31 2.22 11 4.33 16.45 6.36 15.95 5.93 32.45 12.06 45.81 22.64a47.58 47.58 0 0 1 6.58 7c3.67 4.42 7.46 9 12.12 9.6a2.28 2.28 0 0 1-.29 4.55Z" class="color571519 svgShape"></path>
  </g>
</svg>
