<svg xmlns="http://www.w3.org/2000/svg" id="Careergrowth" viewBox="0 0 2873.23 1815">
  <path d="M2242.09 1005.52s184.48-120.93 176-289.64-124-151.29-125.16-306.82-18.36-255.44-201.53-254.42-367.57 78.93-613 68.94-475.33-133.76-676-66.88S685 384.14 539.91 509.73c-190.21 164.69-213.27 473.4 68.15 525.09" stroke-linecap="round" stroke-linejoin="round" stroke="#afb3f9" stroke-width="3.41px" stroke-dasharray="13.65" fill="none" class="colorStrokef9d6af svgStroke"></path>
  <path d="M314.29 1699.84s-133.29-108.1-97.13-153.65c22.52-28.41 40.07-2.38 56.34-31.4 13.67-24.39-12.37-118.26-23.71-170.94-17.65-82 10.58-130.37 64.5-132.65s68.29 19.54 100.95-17.56-45.24-172.59-11.41-226.11 78 25.05 127.49 19.08 1.83-143.19 66.24-181.9 102.56 90.52 190.23 56.36 47.26-122.94 139.48-148.38c42.09-11.61 104.53 30.75 158.84 22.56 64.72-9.75 88.67-86 155-96.77 85.6-14 107.07 73.59 144.45 117.44 54.22 63.62 162.77-35 218-13.41 55.77 21.84 24 87.71 88.86 120.91s146.42-20.75 200.17-25.69 84 77.61 108.7 137.77c45.69 111.39 102.18 2.28 156.83 22.78s96.5 109.88 80.7 162.54 85.46-47.77 147.16-11.23c62.92 37.27 4.88 120.36-1 170.77-6.07 51.75 16.08 77.11 50.37 55.55 46-28.93 124.17-11.3 90.44 79.9-30.33 82-32.88 121.74-5.55 111.86 20.24-7.32 74.29-16.59 67.17 44.09-8.7 74.18-46.68 90.36-46.68 90.36Z" fill="#e9eaff" class="colorfff3e9 svgShape"></path>
  <path d="M495.92 947.09s-26.35-15.58-33.92-30.32-9.51-20.17-21.9-32.77c-12.15-12.35-28.38-16-41.61-31-9.9-11.17-28.05-17.44-26-22.78s21.51-9.22 39.26-3.45c15.56 5.07 51.77 33.5 67.65 57.84 16.02 24.57 16.52 62.48 16.52 62.48Z" fill="#333999" class="color357093 svgShape"></path>
  <path d="M506.93 982.86a175.77 175.77 0 0 0-5.63-20.42q-1.73-5-3.57-10c-1.36-3.26-2.6-6.57-4-9.79s-2.9-6.43-4.43-9.61l-4.83-9.42c-3.51-6.12-7-12.26-11-18l-2.9-4.43c-1-1.45-2.1-2.83-3.15-4.25-2.14-2.8-4.18-5.68-6.4-8.42-4.64-5.3-9.07-10.81-14.18-15.68-9.71-10.28-20.95-18.93-32.38-27.24l8.7 6.07a92.54 92.54 0 0 1 8.51 6.34l8.15 6.83a49 49 0 0 1 3.89 3.6l3.8 3.72c5.25 4.79 9.67 10.36 14.38 15.65 2.25 2.74 4.32 5.63 6.48 8.43 1.06 1.42 2.18 2.81 3.19 4.26l2.94 4.43a218.67 218.67 0 0 1 20.12 37.4 193.4 193.4 0 0 1 12.31 40.53Z" fill="#ced0f2" class="colorcef2f2 svgShape"></path>
  <path d="M522.13 940s-26.76-30.83-30.13-52.66-3.51-29.5-13.87-50.65C468 816 449 804.48 438.57 780c-7.81-18.29-28.11-33.86-23.27-39.75s31.15-2.67 51.12 12.1c17.54 13 51.33 64.17 61.15 101.64 9.91 37.84-5.44 86.01-5.44 86.01Z" fill="#333999" class="color357093 svgShape"></path>
  <path d="M521 989.84a225.3 225.3 0 0 0 1.49-28.2c0-9.41-.43-18.82-1.28-28.19s-2-18.7-3.71-28-3.74-18.43-6.21-27.5-5.38-18-8.63-26.83-7.12-17.4-11.18-25.89a281.13 281.13 0 0 0-13.68-24.67c-4.85-8.08-10.33-15.75-15.94-23.32 5.83 7.41 11.53 14.93 16.62 22.89a276.08 276.08 0 0 1 14.13 24.54A280.73 280.73 0 0 1 504 850.62c3.31 8.85 6.35 17.81 8.82 26.94a304.13 304.13 0 0 1 9.59 55.79c1.43 18.82 1.32 37.82-1.41 56.49Z" fill="#ced0f2" class="colorcef2f2 svgShape"></path>
  <path d="M447.3 1519.75S295.2 1541.39 216.76 1330" fill="none" stroke-linecap="round" stroke-linejoin="round" stroke="#353b93" stroke-width="1.97px" class="colorStroke357093 svgStroke"></path>
  <path d="M213.65 1302.9c4.75 11.23 3.33 28.91 3.33 28.91s-13.68-11.29-18.43-22.52-2.93-16.35 1.24-18.12 9.11.51 13.86 11.73ZM245.36 1339.4c-2.84 11.85-14.48 25.24-14.48 25.24s-4.31-17.22-1.47-29.07 7.35-14.9 11.75-13.84 7.04 5.82 4.2 17.67ZM208.53 1346c11.18 4.85 22.35 18.64 22.35 18.64s-17.7 1.25-28.88-3.61-13.4-9.82-11.6-14 6.95-5.89 18.13-1.03ZM264.06 1374.1c-2.84 11.85-14.48 25.24-14.48 25.24s-4.31-17.21-1.47-29.06 7.35-14.9 11.75-13.85 7.04 5.82 4.2 17.67ZM223.17 1387.12c12.05 1.79 26.41 12.22 26.41 12.22s-16.77 5.79-28.83 4-15.48-6-14.82-10.5 5.19-7.52 17.24-5.72ZM287.15 1407.79c-2.84 11.85-14.48 25.25-14.48 25.25s-4.31-17.22-1.46-29.07 7.34-14.9 11.74-13.85 7.05 5.82 4.2 17.67Z" fill="#333999" class="color357093 svgShape"></path>
  <path d="M244.82 1424.61c12.18.1 27.85 8.43 27.85 8.43s-15.81 8.06-28 8-16.17-3.8-16.14-8.33 4.1-8.2 16.29-8.1ZM315.54 1437.93c-2.31 12-13.35 25.85-13.35 25.85s-5.06-17-2.74-29 6.68-15.21 11.12-14.35 7.29 5.57 4.97 17.5ZM273.4 1459.58c12.06-1.71 28.79 4.2 28.79 4.2s-14.43 10.33-26.5 12-16.56-1.36-17.19-5.84 2.83-8.66 14.9-10.36ZM349.34 1465.3c-1.44 12.1-11.45 26.76-11.45 26.76s-6.27-16.6-4.83-28.7 5.57-15.66 10.06-15.12 7.67 4.96 6.22 17.06ZM308.85 1494c11.44-4.21 29-1.94 29-1.94s-11.94 13.12-23.38 17.33-16.48 2.14-18-2.11.95-9.08 12.38-13.28ZM386.52 1482.92c-.49 12.17-9.32 27.56-9.32 27.56s-7.56-16-7.06-28.23 4.32-16 8.85-15.86 8.01 4.35 7.53 16.53ZM349.57 1519.63c10-6.93 27.63-9.15 27.63-9.15s-8.28 15.7-18.3 22.63-15.41 6.21-18 2.48-1.35-9.03 8.67-15.96Z" fill="#333999" class="color357093 svgShape"></path>
  <path d="M430.29 1450.34s-120.71-16.56-134.57-194.83" fill="none" stroke-linecap="round" stroke-linejoin="round" stroke="#353b93" stroke-width="1.56px" class="colorStroke357093 svgStroke"></path>
  <path d="M299.24 1234.16c1.18 9.59-3.74 22.78-3.74 22.78s-8-11.59-9.16-21.19 1.31-13.11 4.88-13.55 6.84 2.37 8.02 11.96ZM315.49 1268.89C310.74 1277.31 299 1285 299 1285s.46-14.06 5.21-22.48 8.84-9.77 12-8 4.02 5.95-.72 14.37ZM286 1265.91c7.46 6.14 13 19.08 13 19.08s-13.77-2.89-21.24-9-8.08-10.4-5.8-13.18 6.54-3.03 14.04 3.1ZM322.2 1299.42c-4.74 8.42-16.53 16.1-16.53 16.1s.46-14.06 5.2-22.48 8.85-9.77 12-8 4.13 5.96-.67 14.38Z" fill="#333999" class="color357093 svgShape"></path>
  <path d="M288.19 1300.46c8.8 4 17.48 15.06 17.48 15.06s-14.05.77-22.85-3.22-10.5-8-9-11.23 5.57-4.6 14.37-.61ZM332.49 1330.14c-4.74 8.42-16.53 16.1-16.53 16.1s.46-14.06 5.2-22.48 8.84-9.77 12-8 4.07 5.96-.67 14.38ZM296.55 1333.76c9.27 2.72 19.41 12.48 19.41 12.48s-13.81 2.72-23.08 0-11.51-6.42-10.5-9.86 4.9-5.38 14.17-2.62ZM347.59 1359.29c-4.37 8.62-15.8 16.82-15.8 16.82s-.16-14.07 4.2-22.69 8.4-10.15 11.61-8.53 4.4 5.78-.01 14.4ZM310.74 1366.64c9.57 1.32 21.05 9.47 21.05 9.47s-13.26 4.73-22.83 3.41-12.33-4.64-11.84-8.2 4.05-6 13.62-4.68ZM367.41 1387.52c-3.73 8.91-14.55 17.91-14.55 17.91s-1.17-14 2.56-22.94 7.65-10.72 11-9.34 4.73 5.45.99 14.37Z" fill="#333999" class="color357093 svgShape"></path>
  <path d="M330.3 1400.6c9.63-.72 22.56 4.83 22.56 4.83s-12 7.41-21.59 8.13-13-1.94-13.3-5.52 2.69-6.72 12.33-7.44ZM391.94 1409c-3 9.18-13.1 19-13.1 19s-2.27-13.89.75-23.07 6.79-11.29 10.2-10.17 5.21 5.09 2.15 14.24ZM355.78 1429c9.15-3.11 23.06-1 23.06-1s-9.73 10.17-18.88 13.28-13.1 1.38-14.26-2 .93-7.17 10.08-10.28Z" fill="#333999" class="color357093 svgShape"></path>
  <path d="M2083.12 630.82s152.1 21.64 230.54-189.74" fill="none" stroke-linecap="round" stroke-linejoin="round" stroke="#353b93" stroke-width="1.97px" class="colorStroke357093 svgStroke"></path>
  <path d="M2316.77 414c-4.75 11.22-3.33 28.91-3.33 28.91s13.68-11.3 18.43-22.52 2.93-16.35-1.24-18.12-9.11.48-13.86 11.73ZM2285.06 450.47c2.84 11.85 14.48 25.24 14.48 25.24s4.31-17.22 1.47-29.07-7.35-14.9-11.75-13.84-7.04 5.82-4.2 17.67Z" fill="#333999" class="color357093 svgShape"></path>
  <path d="M2321.89 457.06c-11.18 4.86-22.35 18.65-22.35 18.65s17.71 1.25 28.88-3.61 13.4-9.82 11.6-14-6.95-5.89-18.13-1.04ZM2266.36 485.17c2.84 11.85 14.48 25.24 14.48 25.24s4.31-17.21 1.47-29.06-7.35-14.91-11.75-13.85-7.04 5.82-4.2 17.67ZM2307.25 498.19c-12.05 1.79-26.41 12.22-26.41 12.22s16.78 5.79 28.83 4 15.48-6 14.82-10.49-5.19-7.53-17.24-5.73ZM2243.27 518.86c2.84 11.85 14.48 25.25 14.48 25.25s4.31-17.22 1.47-29.07-7.35-14.9-11.75-13.85-7.04 5.81-4.2 17.67Z" fill="#333999" class="color357093 svgShape"></path>
  <path d="M2285.6 535.68c-12.18.1-27.85 8.43-27.85 8.43s15.81 8.06 28 8 16.18-3.8 16.14-8.33-4.1-8.21-16.29-8.1ZM2214.88 549c2.31 12 13.35 25.85 13.35 25.85s5.06-17 2.75-29-6.69-15.21-11.13-14.35-7.29 5.5-4.97 17.5Z" fill="#333999" class="color357093 svgShape"></path>
  <path d="M2257 570.65c-12.07-1.71-28.8 4.2-28.8 4.2s14.43 10.33 26.5 12 16.56-1.36 17.19-5.85-2.8-8.65-14.89-10.35ZM2181.08 576.37c1.44 12.1 11.45 26.76 11.45 26.76s6.27-16.6 4.83-28.7-5.57-15.66-10.06-15.12-7.67 4.96-6.22 17.06ZM2221.57 605.07c-11.44-4.21-29-1.94-29-1.94s11.94 13.12 23.38 17.33 16.48 2.14 18-2.11-.95-9.08-12.38-13.28ZM2143.9 594c.49 12.17 9.32 27.56 9.32 27.56s7.56-16 7.06-28.23-4.32-16-8.84-15.86-8.03 4.34-7.54 16.53Z" fill="#333999" class="color357093 svgShape"></path>
  <path d="M2180.85 630.7c-10-6.93-27.63-9.15-27.63-9.15s8.28 15.7 18.3 22.63 15.41 6.21 18 2.48 1.35-9.03-8.67-15.96Z" fill="#333999" class="color357093 svgShape"></path>
  <path d="M2100.13 561.41s120.71-16.56 134.57-194.83" fill="none" stroke-linecap="round" stroke-linejoin="round" stroke="#353b93" stroke-width="1.56px" class="colorStroke357093 svgStroke"></path>
  <path d="M2231.18 345.23c-1.18 9.59 3.74 22.78 3.74 22.78s8-11.6 9.16-21.19-1.31-13.11-4.88-13.55-6.84 2.37-8.02 11.96ZM2214.94 380c4.74 8.42 16.53 16.1 16.53 16.1s-.46-14.06-5.21-22.48-8.84-9.77-12-8-4.07 5.92.68 14.38Z" fill="#333999" class="color357093 svgShape"></path>
  <path d="M2244.45 377c-7.46 6.14-13 19.08-13 19.08s13.77-2.9 21.24-9 8.08-10.4 5.8-13.18-6.57-3.05-14.04 3.1ZM2208.22 410.49c4.74 8.42 16.53 16.1 16.53 16.1s-.46-14.06-5.2-22.48-8.85-9.77-12-8-4.08 5.96.67 14.38ZM2242.23 411.53c-8.8 4-17.48 15.06-17.48 15.06s14.05.77 22.85-3.22 10.5-8 9-11.23-5.6-4.6-14.37-.61ZM2197.93 441.21c4.74 8.42 16.53 16.1 16.53 16.1s-.46-14.06-5.2-22.48-8.84-9.77-12-8-4.07 5.96.67 14.38ZM2233.87 444.82c-9.27 2.73-19.41 12.49-19.41 12.49s13.81 2.72 23.08 0 11.51-6.42 10.5-9.86-4.9-5.35-14.17-2.63ZM2182.83 470.36c4.37 8.62 15.8 16.82 15.8 16.82s.17-14.07-4.2-22.7-8.4-10.14-11.61-8.52-4.36 5.78.01 14.4ZM2219.68 477.71c-9.57 1.32-21 9.47-21 9.47s13.26 4.73 22.83 3.41 12.33-4.64 11.84-8.2-4.1-6-13.67-4.68ZM2163 498.59c3.73 8.91 14.55 17.91 14.55 17.91s1.17-14-2.56-22.94-7.65-10.73-11-9.34-4.72 5.45-.99 14.37ZM2200.12 511.67c-9.63-.72-22.56 4.83-22.56 4.83s12 7.41 21.59 8.13 13-1.94 13.3-5.52-2.69-6.72-12.33-7.44ZM2138.48 520.1c3 9.18 13.1 19 13.1 19s2.27-13.89-.75-23.07-6.78-11.29-10.19-10.17-5.18 5.06-2.16 14.24Z" fill="#333999" class="color357093 svgShape"></path>
  <path d="M2174.64 540.07c-9.15-3.11-23.06-1-23.06-1s9.73 10.17 18.88 13.28 13.1 1.38 14.26-2-.93-7.17-10.08-10.28Z" fill="#333999" class="color357093 svgShape"></path>
  <path d="M555.45 794.26h267v906.86h-267z" fill="#8488c3" class="color84c3bd svgShape"></path>
  <circle cx="688.95" cy="1552.08" r="97.17" transform="rotate(-45 688.943 1552.08)" fill="#ced0f2" class="colorcef2f2 svgShape"></circle>
  <path d="M689 1639.58a87.5 87.5 0 1 1 87.5-87.5 87.6 87.6 0 0 1-87.5 87.5Z" fill="#8488c3" class="color84c3bd svgShape"></path>
  <path d="M689 1633a80.89 80.89 0 1 1 80.88-80.89A81 81 0 0 1 689 1633Z" fill="#131862" class="color621317 svgShape"></path>
  <path d="M555.45 952.96h267v45.13h-267zM555.45 873.51h267v45.13h-267z" fill="#afb3f9" class="colorf9d6af svgShape"></path>
  <path d="M348.65 957.28h178v737.88h-178z" transform="rotate(4.52 437.712 1326.26)" fill="#2b36eb" class="coloreb5c2b svgShape"></path>
  <circle cx="419.09" cy="1560.92" r="63.57" transform="rotate(-86.41 419.027 1560.882)" fill="#ced0f2" class="colorcef2f2 svgShape"></circle>
  <path d="M419.16 1619.66c-1.56 0-3.12-.06-4.7-.18a58.74 58.74 0 0 1 4.54-117.29c1.56 0 3.12.06 4.7.18a58.74 58.74 0 0 1-4.56 117.29Z" fill="#8488c3" class="color84c3bd svgShape"></path>
  <path d="M415.12 1611.14a50.38 50.38 0 1 1 54.19-46.25 50.42 50.42 0 0 1-54.19 46.25Z" fill="#131862" class="color621317 svgShape"></path>
  <path d="M368.13 1062.03h178v35.42h-178z" transform="rotate(4.52 457.172 1079.829)" fill="#afb3f9" class="colorf9d6af svgShape"></path>
  <rect width="1538.4" height="1066.17" x="606.98" y="255.63" rx="29.32" fill="#131862" class="color621317 svgShape"></rect>
  <rect width="1012.42" height="1484.65" x="869.97" y="46.39" rx="2.44" transform="rotate(-90 1376.18 788.72)" fill="#ffffff" class="colorffffff svgShape"></rect>
  <path d="M1365.84 1321.8h20.67v302.37h-20.67z" fill="#131862" class="color621317 svgShape"></path>
  <path d="m1386.52 1624.17-314.46 76.8 314.46-101.01v24.21z" fill="#131862" class="color621317 svgShape"></path>
  <path d="m1365.84 1624.17 314.46 76.8-314.46-101.01v24.21z" fill="#131862" class="color621317 svgShape"></path>
  <path d="m1386.52 1624.17-10.34 76.54-10.34-76.54h20.68z" fill="#131862" class="color621317 svgShape"></path>
  <path d="M700.68 1229.52h307.48l168.38-251.22h378.25l204.99-213.15h290.4" stroke="#141963" stroke-width="4.17px" stroke-dasharray="16.88" stroke-linecap="round" stroke-linejoin="round" fill="none" class="colorStroke144963 svgStroke"></path>
  <path d="M1734.73 355.54h308.38v308.38h-308.38z" fill="#afb3f9" class="colorf9d6af svgShape"></path>
  <path d="M691.59 478.91h309.27v309.27H691.59z" fill="#e9eaff" class="colorfff3e9 svgShape"></path>
  <path d="M873.75 539.32s-22.82-24.45-62.91 0-21.17 54.91-20.84 74.16-28.54 33-30.14 60.62 3.52 60.3 3.52 60.3h149.46S930.16 708 925 677s-26-36.54-20.2-60.92-12.72-77.79-31.05-76.76Z" fill="#131862" class="color621317 svgShape"></path>
  <path d="M965.53 729.16c-16.25-22.24-87.47-27.39-87.47-27.39h-63.68s-71.21 5.15-87.46 27.39-28 59-28 59h294.62s-11.76-36.76-28.01-59Z" fill="#434de8" class="colore84354 svgShape"></path>
  <path d="M878.94 701.77c-32.28 18.19-64.56 0-64.56 0 2.31-5 3.48-20.74 4.1-34.1.49-11.37.58-21 .58-21l53-2.57c-.23 5.58-.18 11 .09 16 1.21 24.37 6.79 41.67 6.79 41.67Z" fill="#6e76f1" class="colorf1876e svgShape"></path>
  <path d="M872.19 660c-7.28 12.89-17.74 22-29.37 22-9.18 0-17.62-5.64-24.34-14.35.49-11.37.58-21 .58-21l53-2.57c-.19 5.56-.14 10.92.13 15.92Z" fill="#131862" class="color621317 svgShape"></path>
  <path d="M883.3 608.67c0 32.12-17.69 65.75-39.51 65.75s-39.5-33.63-39.5-65.75 17.71-50.57 39.5-50.57 39.51 18.45 39.51 50.57Z" fill="#6e76f1" class="colorf1876e svgShape"></path>
  <path d="M883.3 593.59c0 1.72 0 3.43-.17 5.15-6.52-2.71-15.59-8.16-18.63-18.15 0 0-14.12 30.36-62.18 35.67l-.05-.12a94.53 94.53 0 0 1-2.84-22.55c0-32.17 18.77-48.29 41.94-48.29s41.93 16.12 41.93 48.29Z" fill="#131862" class="color621317 svgShape"></path>
  <path d="m846.22 709.73-8.11 27.77-33.82-34.73 11.95-8.5 29.98 15.46zM846.22 709.73l8.12 27.77 33.82-34.73-11.95-8.5-29.99 15.46z" fill="#ffffff" class="colorffffff svgShape"></path>
  <path d="M1221.24 596.89h308.38v308.38h-308.38z" fill="#e9eaff" class="colorfff3e9 svgShape"></path>
  <path d="M1496.46 845.54C1480 823 1408 817.83 1408 817.83h-64.5s-72.07 5.17-88.5 27.71-28.35 59.73-28.35 59.73h298.17s-11.91-37.22-28.36-59.73Z" fill="#8488c3" class="color84c3bd svgShape"></path>
  <path d="M1408.83 817.83c-32.66 18.41-65.33 0-65.33 0 2.34-5.12 3.52-21 4.15-34.51.5-11.51.59-21.3.59-21.3l53.67-2.6c-.23 5.65-.17 11.09.09 16.18 1.18 24.72 6.83 42.23 6.83 42.23Z" fill="#6970e0" class="colore07d69 svgShape"></path>
  <path d="M1402 775.6c-7.36 13-18 22.24-29.72 22.24-9.29 0-17.83-5.71-24.63-14.52.5-11.51.59-21.3.59-21.3l53.67-2.6c-.23 5.65-.17 11.09.09 16.18Z" fill="#131862" class="color621317 svgShape"></path>
  <path d="M1418.8 746.57c-2.47 5.3-5.83 9-9.06 8.46s-3.61-4.95-2.61-10.54 4.41-9.65 7.64-9.07c4.57.81 6.42 6.01 4.03 11.15ZM1327.72 746.57c2.47 5.3 5.83 9 9.06 8.46s3.61-4.95 2.61-10.54-4.41-9.65-7.64-9.07c-4.57.81-6.42 6.01-4.03 11.15Z" fill="#6970e0" class="colore07d69 svgShape"></path>
  <path d="M1413.25 723.6c0 32.5-17.9 66.55-40 66.55-17.73 0-32.76-21.94-38-47.38a96.39 96.39 0 0 1-1.86-14.32c-.09-1.6-.15-3.24-.15-4.85 0-32.5 17.9-43 40-43s40.01 10.5 40.01 43Z" fill="#6970e0" class="colore07d69 svgShape"></path>
  <path d="M1403.18 715.72s-58.3 35.5-85.65 8.14c0 0 28.88 9.11 48.6-21.92Z" fill="#131862" class="color621317 svgShape"></path>
  <path d="M1402 716.26s10.82 11.35 9.93 22.89c0 0 6.9-28.89 2.28-42.74-4.1-12.31-13.3-11.31-13.3-11.31s-5.6-17.74-34.15-14.81-44 36.26-33.46 54.65l38.71-1.12Z" fill="#131862" class="color621317 svgShape"></path>
  <path d="M1367.81 705.56s-27.08 13.85-48.7 1.05c0 0 2.94 23.5 35.27 22.87Z" fill="#131862" class="color621317 svgShape"></path>
  <path d="M1335.28 742.77a96.39 96.39 0 0 1-1.86-14.32l4.85-1.12c-3.22 4.76-3.02 14.4-2.99 15.44Z" fill="#131862" class="color621317 svgShape"></path>
  <path d="M698.81 829.97h306.91v306.91H698.81z" fill="#e9eaff" class="colorfff3e9 svgShape"></path>
  <path d="M973.25 1076.32c-16.48-22.55-88.7-27.77-88.7-27.77H820s-72.22 5.22-88.7 27.77-28.41 59.85-28.41 59.85h298.8s-11.96-37.3-28.44-59.85Z" fill="#333999" class="color357093 svgShape"></path>
  <path d="M885.44 1048.55c-32.73 18.45-65.47 0-65.47 0 2.34-5.13 3.53-21 4.15-34.58.51-11.53.6-21.34.6-21.34L878.5 990c-.23 5.66-.17 11.11.09 16.21 1.19 24.79 6.85 42.34 6.85 42.34ZM895.42 968.5c-2.47 5.31-5.84 9.06-9.07 8.48s-3.62-5-2.62-10.56 4.43-9.67 7.65-9.09c4.62.81 6.45 6.02 4.04 11.17ZM804.16 968.5c2.47 5.31 5.84 9.06 9.07 8.48s3.62-5 2.62-10.56-4.42-9.67-7.65-9.09c-4.58.81-6.44 6.02-4.04 11.17Z" fill="#6e76f1" class="colorf1876e svgShape"></path>
  <path d="M808.37 942.86c1 9.92 5.1 31.2 6.15 38.52s1.1 34 11 38.5c10.19 4.57 13.15-.88 13.15-.88s3.88 11.78 12.65 11c12.43-1 13.64-14 13.64-14a10.53 10.53 0 0 0 12.2 1.9c9.09-4.26 5.75-28.19 8.24-37.86s6.74-30.92 6.22-43c-.46-10.76-7.31-9.88-12.15-17.24s-1.89-9.47-8.83-13.89c-7.42-4.71-13.2-1.57-22.25-.94-10.72.75-19.68-1.9-24.31 2.52-5.32 5.08-5.78 8.22-12.6 14-6.43 5.59-3.75 15.3-3.11 21.37Z" fill="#414cf7" class="colorf7a741 svgShape"></path>
  <path d="M878.59 942s-2-6.3-9.28-4.1c-9 2.73-15.46 3.78-17.95 3.78s-10.55 0-17.49-3.68c-6.7-3.55-9.75 4-9.75 4-2.18 5-3.86 17.25-3.23 25.14s3.68 17.13 13 20.5 12-1.89 17.43-1.68c5.39-.21 8.06 5 17.42 1.68s12.41-12.62 13-20.5-.97-20.08-3.15-25.14Z" fill="#6e76f1" class="colorf1876e svgShape"></path>
  <path d="M811.76 952c1 6.63 1.82 13.27 2.44 19.94.3 3.34.56 6.69.58 10a49.26 49.26 0 0 1-.28 5c-.14 1.66-.25 3.33-.32 5-.24 6.62-.14 13.49 2.53 19.63a16 16 0 0 0 6.45 7.38 21.65 21.65 0 0 0 9.55 2.67 21.76 21.76 0 0 1-9.63-2.54 16.2 16.2 0 0 1-6.65-7.38c-2.8-6.19-3-13.13-2.88-19.78.05-1.67.14-3.35.25-5a41.6 41.6 0 0 0 .18-5c-.08-3.31-.42-6.64-.78-10-.77-6.63-1.76-13.24-2.86-19.82Z" fill="#414cf7" class="colorf7a741 svgShape"></path>
  <path d="M838.71 1019s.16 13.46 12.65 12.51 13.64-15.46 13.64-15.46" stroke-width=".72px" stroke-miterlimit="10" stroke="#414cf7" fill="none" class="colorStrokef7a741 svgStroke"></path>
  <path d="M887.68 968.67a124.42 124.42 0 0 0-2.11 14 63.15 63.15 0 0 0 .06 14.15 28.9 28.9 0 0 1-.84 14.24 13.22 13.22 0 0 1-3.84 6 8.58 8.58 0 0 1-6.73 1.83 8.51 8.51 0 0 0 6.61-2 13 13 0 0 0 3.62-6 28.29 28.29 0 0 0 .47-14 63.22 63.22 0 0 1-.42-14.35 124.62 124.62 0 0 1 1.77-14.25Z" fill="#414cf7" class="colorf7a741 svgShape"></path>
  <path d="M1176.36 1155.14h57.35v74.38h-57.35zM1265.59 1119.7h57.35v109.82h-57.35zM1354.83 1080.76h57.35v148.75h-57.35zM1444.06 1129.53h57.35v99.99h-57.35zM1533.3 1039.13h57.35v190.39h-57.35zM1622.54 1119.7h57.35v109.82h-57.35zM1711.77 1039.13h57.35v190.39h-57.35zM1801.01 932.01h57.35v297.51h-57.35zM1890.24 848.74h57.35v380.78h-57.35zM1979.48 796.93h57.35v432.58h-57.35z" fill="#ced0f2" class="colorcef2f2 svgShape"></path>
  <path d="M1107 408.6a13.44 13.44 0 0 0-5.19-4.1 15.5 15.5 0 0 0-6.48-1.43 17.4 17.4 0 0 0-7.4 1.53 17.19 17.19 0 0 0-5.67 4.2 19.13 19.13 0 0 0-3.65 6.25 22.22 22.22 0 0 0-1.3 7.67 21.22 21.22 0 0 0 1.23 7.24 18.15 18.15 0 0 0 3.55 6 16.83 16.83 0 0 0 5.66 4.09 18.35 18.35 0 0 0 7.58 1.5 15.11 15.11 0 0 0 7.3-1.7 15.87 15.87 0 0 0 5.33-4.78l5.52 4.16a21.27 21.27 0 0 1-1.91 2.15 19.2 19.2 0 0 1-3.61 2.8 26.2 26.2 0 0 1-5.43 2.46 23.38 23.38 0 0 1-7.34 1.05 23.82 23.82 0 0 1-10.34-2.18 25.27 25.27 0 0 1-7.85-5.73 25.64 25.64 0 0 1-6.65-17.07 28.32 28.32 0 0 1 1.84-10.34 24.35 24.35 0 0 1 5.16-8.18 22.83 22.83 0 0 1 8-5.36 26.48 26.48 0 0 1 10.23-1.91 25 25 0 0 1 9.39 1.84 17.61 17.61 0 0 1 7.54 5.66ZM1138.78 398.16h5.93l20.68 48.32h-7.64l-4.85-12h-23l-4.78 12h-7.64Zm11.73 30.64-9-22.18h-.13l-9.15 22.18ZM1173.92 398.16h17a19.89 19.89 0 0 1 7.64 1.26 12.94 12.94 0 0 1 4.74 3.21 10.85 10.85 0 0 1 2.43 4.36 17.48 17.48 0 0 1 .68 4.68 12.34 12.34 0 0 1-.82 4.47 12.81 12.81 0 0 1-2.35 3.89 13.43 13.43 0 0 1-3.76 2.93 13 13 0 0 1-5 1.47l13.72 22.05h-8.19l-12.28-21.3h-7.3v21.3h-6.56Zm6.56 21.29h8.6a22.77 22.77 0 0 0 3.78-.31 10 10 0 0 0 3.35-1.13 6.17 6.17 0 0 0 2.35-2.35 9.39 9.39 0 0 0 0-8 6.19 6.19 0 0 0-2.35-2.36 10.26 10.26 0 0 0-3.35-1.12 22.77 22.77 0 0 0-3.78-.31h-8.6ZM1217.87 398.16h31.19v6.14h-24.63v14.4h22.93v6.14h-22.93v15.49h25.86v6.15h-32.42ZM1261.83 398.16H1293v6.14h-24.64v14.4h22.93v6.14h-22.93v15.49h25.86v6.15h-32.41ZM1305.78 398.16h17a20 20 0 0 1 7.65 1.26 12.94 12.94 0 0 1 4.74 3.21 10.82 10.82 0 0 1 2.42 4.36 17.11 17.11 0 0 1 .69 4.68 12.57 12.57 0 0 1-3.18 8.36 13.24 13.24 0 0 1-3.75 2.93 13 13 0 0 1-4.95 1.47l13.72 22.05h-8.19l-12.29-21.3h-7.3v21.3h-6.55Zm6.55 21.29h8.6a22.89 22.89 0 0 0 3.79-.31 10 10 0 0 0 3.34-1.13 6.12 6.12 0 0 0 2.36-2.35 9.49 9.49 0 0 0 0-8 6.15 6.15 0 0 0-2.36-2.36 10.2 10.2 0 0 0-3.34-1.12 22.89 22.89 0 0 0-3.79-.31h-8.6ZM1412.11 419.45v23.82a21.84 21.84 0 0 1-4 1.91 45.23 45.23 0 0 1-4.67 1.4 40.46 40.46 0 0 1-4.92.85 43.5 43.5 0 0 1-4.67.27 27.77 27.77 0 0 1-11-2 23.48 23.48 0 0 1-13.16-13.7 27.28 27.28 0 0 1-1.74-9.73 26.56 26.56 0 0 1 1.88-10 24.67 24.67 0 0 1 5.19-8 23.53 23.53 0 0 1 8-5.36 26 26 0 0 1 10.17-1.94 30 30 0 0 1 10.92 1.67 20.05 20.05 0 0 1 7.09 4.6l-4.64 5a17.12 17.12 0 0 0-6.34-4 21.67 21.67 0 0 0-7-1.13 17.52 17.52 0 0 0-13.24 5.66 18.23 18.23 0 0 0-3.69 6.11 21.57 21.57 0 0 0-1.3 7.47 19.83 19.83 0 0 0 1.44 7.61 18.62 18.62 0 0 0 4 6.11 18.11 18.11 0 0 0 5.93 4.06 18.64 18.64 0 0 0 7.44 1.47 31.68 31.68 0 0 0 6.59-.65 18.42 18.42 0 0 0 5.29-1.87v-13.49h-10.72v-6.14ZM1426.31 398.16h17a19.89 19.89 0 0 1 7.64 1.26 12.9 12.9 0 0 1 4.75 3.21 10.94 10.94 0 0 1 2.42 4.36 17.48 17.48 0 0 1 .68 4.68 12.34 12.34 0 0 1-.82 4.47 12.61 12.61 0 0 1-2.35 3.89 13.28 13.28 0 0 1-3.76 2.93 12.88 12.88 0 0 1-4.94 1.47l13.72 22.05h-8.19l-12.29-21.3h-7.3v21.3h-6.55Zm6.55 21.29h8.6a23 23 0 0 0 3.79-.31 10 10 0 0 0 3.34-1.13 6.1 6.1 0 0 0 2.35-2.35 9.39 9.39 0 0 0 0-8 6.13 6.13 0 0 0-2.35-2.36 10.2 10.2 0 0 0-3.34-1.12 23 23 0 0 0-3.79-.31h-8.6ZM1492.44 447.7a26 26 0 0 1-10.17-1.94 23.73 23.73 0 0 1-8-5.36 24.67 24.67 0 0 1-5.19-8 27.72 27.72 0 0 1 0-20.07 24.67 24.67 0 0 1 5.19-8 23.73 23.73 0 0 1 8-5.36 27.63 27.63 0 0 1 20.34 0 23.73 23.73 0 0 1 8 5.36 24.83 24.83 0 0 1 5.19 8 27.86 27.86 0 0 1 0 20.07 24.83 24.83 0 0 1-5.19 8 23.73 23.73 0 0 1-8 5.36 26 26 0 0 1-10.17 1.94Zm0-6.14a17.52 17.52 0 0 0 13.24-5.66 18.21 18.21 0 0 0 3.68-6.11 22.14 22.14 0 0 0 0-15 18.21 18.21 0 0 0-3.68-6.11 18.09 18.09 0 0 0-26.48 0 18.4 18.4 0 0 0-3.69 6.11 22.3 22.3 0 0 0 0 15 18.4 18.4 0 0 0 3.69 6.11 17.52 17.52 0 0 0 13.24 5.66ZM1523.15 398.16h6.85l10.68 38.62h.13l11.37-38.62h7.5l11.32 38.62h.13l10.69-38.62h6.82l-14.06 48.32h-7L1556 407h-.14l-11.6 39.45h-7ZM1607.3 404.3h-15.56v-6.14h37.67v6.14h-15.56v42.18h-6.55ZM1638.63 398.16h6.55v20.06h25v-20.06h6.55v48.32h-6.55v-22.12h-25v22.12h-6.55Z" fill="#414cf7" class="colorf7a741 svgShape"></path>
  <path d="M2003.76 577h-61.58s-9.59-14.23-2.1-35.58 1.64-34.46-1.61-48.31-9.25-39.7 5.73-64.42 39.33-27.39 70.79-18.19 49.44 26.43 46.07 52.27 8.24 35.39 16.48 50 26.22 30.53 13.86 64.23Z" fill="#131862" class="color621317 svgShape"></path>
  <path d="M2424.87 1701.12 2271.8 959.97h-272.98l153.07 741.15" fill="none" stroke="#414cf7" stroke-miterlimit="10" stroke-width="7.09px" class="colorStrokef7a741 svgStroke"></path>
  <path d="m1845.75 1701.12 153.07-741.15h272.98l-153.07 741.15" fill="none" stroke="#414cf7" stroke-miterlimit="10" stroke-width="7.09px" class="colorStrokef7a741 svgStroke"></path>
  <path d="M2001.61 973.41h272.98l-2.79-13.44h-272.98l2.79 13.44zM2035.16 1135.63h272.98l-2.8-13.44h-272.97l2.79 13.44zM2068.52 1296.8h272.98l-2.8-13.44h-272.97l2.79 13.44zM2101.8 1460.08h272.98l-2.79-13.44h-272.98l2.79 13.44zM2135.9 1622.3h272.98l-2.79-13.44h-272.98l2.79 13.44z" fill="#414cf7" class="colorf7a741 svgShape"></path>
  <path d="m1993.02 526.81 6.39 96.3 58.68-32.89-11.05-99.63-14.05 9.41-39.97 26.81z" fill="#6e76f1" class="colorf1876e svgShape"></path>
  <path d="m1993 526.81 2.69 40.58c19.35-15.49 35.21-39.24 37.16-65.4 0-.66.11-1.32.12-2Z" fill="#131862" class="color621317 svgShape"></path>
  <path d="M1943.28 479.25c7.87 45.25 16.91 77.61 38 77.6 28.84-.82 67.56-39.28 66.39-80.56s-25.29-66.57-54.12-65.75-57.35 28.03-50.27 68.71Z" fill="#6e76f1" class="colorf1876e svgShape"></path>
  <path d="M2054.35 811.5a39.71 39.71 0 0 0 36.9-42.11l-11.68-177a39.7 39.7 0 0 0-42.1-36.9 39.71 39.71 0 0 0-36.9 42.11l11.68 177a39.7 39.7 0 0 0 42.1 36.9Z" fill="#434de8" class="colore84354 svgShape"></path>
  <path d="m1900.86 902.13 200.17-116A34.84 34.84 0 0 0 2064.1 727L1877 861c1.91-1.11 8.83 7.2 15.4 18.55s10.38 21.45 8.46 22.58Z" fill="#434de8" class="colore84354 svgShape"></path>
  <path d="M2279.8 780.51s-9.05 18.55-15.54 23.67-134.82 104.37-134.82 104.37l-19.73-5.74-9.18-.85 52-74.7 70.88-46.75Z" fill="#131862" class="color621317 svgShape"></path>
  <path d="M1900.86 902.12c.9-.52.53-3-.78-6.64-.4-1.13-.9-2.39-1.46-3.73a122 122 0 0 0-6.25-12.2 118.79 118.79 0 0 0-7.38-11.31l-.53-.7c-3.5-4.58-6.35-7.18-7.48-6.53a1 1 0 0 0-.25.21c-.7 1 .07 4.27 1.94 8.79.26.64.53 1.34.86 2a115 115 0 0 0 5.92 11.52 111.56 111.56 0 0 0 8.38 12.62c1 1.27 1.93 2.37 2.78 3.26 1.95 2.14 3.5 3.16 4.25 2.71Z" fill="#2b33b8" class="colorb82b3b svgShape"></path>
  <path d="M2155.65 908.69a81.57 81.57 0 1 1 137.16-85.42 83.39 83.39 0 0 1 3.09 8.06L2402.66 1047c1.38 2.56 3.53 7 5.16 10.7a45.64 45.64 0 0 1-78.52 45.53l-169.54-190c-1.42-1.46-2.78-3-4.1-4.58Z" fill="#141963" class="color144963 svgShape"></path>
  <path d="M2388 1118.22a43.56 43.56 0 0 1-61-31.39c-4.18-21.51 7.75-44.77 27.81-51.86 0 0 21.23-28.24 63.31-49.94s210.91-59.43 210.91-59.43l10.97 55.88-247 134.08a43.93 43.93 0 0 1-4.33 2.35Z" fill="#141963" class="color144963 svgShape"></path>
  <path d="M2099.9 868.66a81.24 81.24 0 0 0 3.11 22.25c.54 2 1.17 4 1.87 5.84l3 9.34 74.63 233.16a45.65 45.65 0 0 0 90.26-9.66c0-4-.14-9-.37-11.88l-9.83-240.42a79.11 79.11 0 0 0 .47-8.63 81.56 81.56 0 0 0-163-4 48.75 48.75 0 0 0-.14 4Z" fill="#333999" class="color357093 svgShape"></path>
  <path d="M2099.9 868.66a81.24 81.24 0 0 0 3.11 22.25c.54 2 1.17 4 1.87 5.84l3 9.34c1.14-.35 75.19-22.67 85.72-40.33 9.42-15.81 36.11-38.35 51.81-47.76a58.79 58.79 0 0 1 5.35-2.9c14-6.5-31.48-28-31.48-28l-8.4 5.45L2100 864.69c-.07 1.31-.1 2.64-.1 3.97Z" fill="#141963" class="color144963 svgShape"></path>
  <path d="M2184.64 1141.73a43.52 43.52 0 0 1 42.44-53.84c21.92 0 42.47 16.15 45.6 37.19 0 0 23.68 26.23 36.95 71.68s18.1 218.37 18.1 218.37h-57l-84.48-268.07a43.51 43.51 0 0 1-1.48-4.7Z" fill="#333999" class="color357093 svgShape"></path>
  <path d="M2083.64 569c27.14 30.11 55.32 95.15 93 134.77 35.17 37 92.66 70.33 103.12 76.77-15.69 8.2-65.86 33.78-85.16 65.15s-94.11 56.3-94.11 56.3-12.06-45.85-26.54-74-80.43-82.84-88.48-99.73 11.76-144.16 11.76-144.16 40.21-66.39 86.41-15.1Z" fill="#434de8" class="colore84354 svgShape"></path>
  <path d="m2328.16 1415.12 3.82 31.52H2206.5l64.29-31.52h57.37zM2629.09 925.57l30.19-9.8 24.11 123.13-43.28-57.03-11.02-56.3z" fill="#131862" class="color621317 svgShape"></path>
  <path d="M1829 944.6c6.78-.56 23.07-10.82 31-17.71 5.68-4.93 23.83-21.58 33.79-30.7 2-1.85 3.63-3.38 4.79-4.44a122 122 0 0 0-6.25-12.2 118.79 118.79 0 0 0-7.38-11.31 41.13 41.13 0 0 1-5.46 3.81 24.69 24.69 0 0 1-8.34 3.18c-8.88 1.41-21.29.95-35.81 3.18s-27 14.21-29.09 17.37.74 6.71 5.08 4.73 18.86-9.09 19.9-5.7-19.42 14-22.89 15.82-8.76 7.31-6.45 11.89a5.62 5.62 0 0 0 7 2.87s-.21 7.27 6.91 7.35c0 0-.25 7.09 6.68 6.17.01 0-.25 6.24 6.52 5.69Z" fill="#6e76f1" class="colorf1876e svgShape"></path>
  <path d="M2383.84 1009.34s12.07 27.85 5.73 33.88-9.05-19.36-9.05-19.36-5.73 17.25-11.76 12.42 9.35-22.32 9.35-22.32" stroke-width="2.11px" stroke="#8488c3" stroke-linecap="round" stroke-linejoin="round" fill="none" class="colorStroke84c3bd svgStroke"></path>
  <path d="M1942.18 464.54c4.5.73 11.89 16.15 28.37 19.15s29.34-9.74 36.45 0 6 16.31 6 16.31 4.61-23.73 16.22-14.74-9.73 28.47-9.73 28.47 4.83 10 6.06 15.94c2.15 10.28.8 20.83-2.22 27.49-6 13.25 6.08 19.86 6.08 19.86h62l-45.49-133.71-30.92-32.79-37.45-2.41-35.36 27.71Z" fill="#131862" class="color621317 svgShape"></path>
  <path d="M1934.5 577s-4.72-21.16 5-40.26c17.7-34.71-18.93-39.13-8.31-75.47 9.12-31.21 21.86-40.2 21.86-40.2M2094.39 577s7.25-14.93 5.43-27.49c-4.21-29.06-32.14-38-34.39-67.26-1.75-22.7-4.41-50.44-28.47-60.18M2022.65 581.72s-21.62 12.16 12.57 159M2015.36 761.92s12.24-16.11 23.48-16.1c8.38 0 9 6.49-4.25 8.49M2068.54 805s36.59-11.33 38.59-33.8-22.47-144.32-22.47-144.32" fill="none" stroke-linecap="round" stroke-linejoin="round" stroke="#131862" stroke-width="1.71px" class="colorStroke621317 svgStroke"></path>
  <path d="M1576.82 1371.79c-13-41.48-35.8-143.53-48.26-200.72-5.26-24.34-8.68-40.55-8.68-40.55a87.88 87.88 0 0 0-7.66-21.1l-63.45 261.67c11 26.63 19.68 48 19.68 48l.33-.15a61.75 61.75 0 0 0 3.17 5.79 59 59 0 0 0 81.3 18.75c24.5-15.33 31.95-45.06 23.57-71.69Z" fill="#3e4284" class="color3e847a svgShape"></path>
  <path d="M1508.58 1103a87.75 87.75 0 0 0-25.17-26.18 88.26 88.26 0 0 0-156.29 52.1 85.74 85.74 0 0 0 2.16 23.71c.35 4.08.71 8.53 1.08 13.32 2.52 32.49 5.37 79 3.73 108-2.77 48.38-8 115.36-8 115.36h.38a63.36 63.36 0 0 0 .25 6.57 59 59 0 0 0 64.36 53.08c28.8-2.77 48.74-26 53.14-53.61 1.08-6.8 2.62-15 4.51-24.39l63.45-261.67c-1.09-2.03-2.29-4.16-3.6-6.29Z" fill="#8488c3" class="color84c3bd svgShape"></path>
  <path d="M1765.42 945.48s-12.41 26-30 35.39l-15.41-19s14.37-13.08 14.91-18.62 30.5 2.23 30.5 2.23Z" fill="#6e76f1" class="colorf1876e svgShape"></path>
  <path d="M1415 710.46c-1.34 6.24-5.3 12.52-8.69 12.51s-1.87-13.25-10-20.07-36.13-29.35-33.48-55.06 14.31-31.41 20.85-34.25 10.73 0 19.44-11.68 20.4-33.84 48.13-26.21c22.68 6.24 33-19.39 49.42 7.15 9.67 15.62-.27 34.41-20.15 35.92-20.31 1.55-33.84 79.69-33.84 79.69Z" fill="#414cf7" class="colorf7a741 svgShape"></path>
  <path d="M1504 795.87a43.8 43.8 0 0 0-63.16 60.68s98.37 113.22 130.06 130.76a43.26 43.26 0 0 0 59.68-13.53c12.74-20.21 1.47-43.62-13.53-59.68l-112.19-117.34-.68-.7Z" fill="#333999" class="color357093 svgShape"></path>
  <path d="m1743.49 810.7 33 38.36a24.1 24.1 0 0 1-3.94 3.88s-112.76 96.87-146.31 132.26a51.89 51.89 0 0 1-8 7c-9.85 7-23 8.61-35.33 4.45a40.82 40.82 0 0 1-12.71-70.41s5.06-3.65 7.39-4.88c0 0 122.24-82.15 161.45-108.22a30.69 30.69 0 0 1 4.45-2.44Z" fill="#333999" class="color357093 svgShape"></path>
  <path d="M1758.36 819.25c2 2 4.14 4.23 6.28 6.7a90.87 90.87 0 0 1 8.25 11.29 34.36 34.36 0 0 1 3.68 7.63c.64 2.1.61 3.67-.2 4.36s-2.32.49-4.21-.43a32.36 32.36 0 0 1-7.11-4.89c-1.09-.89-2.18-1.92-3.3-3l-.28-.3-1.87-1.91-.43-.39c-1.3-1.4-2.63-2.83-4-4.38a88.83 88.83 0 0 1-5.62-7.27c-.87-1.23-1.68-2.42-2.39-3.57a35.22 35.22 0 0 1-4-8.34c-.59-1.95-.49-3.39.29-4s1.88-.56 3.41.08c2.95 1.09 7.05 4.17 11.5 8.42Z" fill="#141963" class="color144963 svgShape"></path>
  <path d="M1482.88 742.46c-16.51 5.88-39.09-.86-58-15.5-.07 0-.1-.1-.17-.14-12.72-9.92-23.73-23.46-30.06-39.17-.14-.33-.27-.67-.38-1-.31-.71-.59-1.47-.85-2.19-14.53-40.77-.55-74.62 27.94-84.77 20.38-7.24 42.69-.38 59 19.08 6.49 7.69 10.92 18.92 15 30.5 5.26 14.81 8.75 28.77 8.58 42.86-.07 24.77-7.94 45.26-21.06 50.33Z" fill="#6e76f1" class="colorf1876e svgShape"></path>
  <path d="M1528.56 1171.07c-26.73 4.31-76.39 11.28-110.07 10.12-33-1.13-68.87-9.84-88.13-15.17-.37-4.79-.73-9.24-1.08-13.32a85.74 85.74 0 0 1-2.16-23.71 88.26 88.26 0 0 1 156.29-52.1 88.28 88.28 0 0 1 36.45 53.66s3.44 16.18 8.7 40.52Z" fill="#3e4284" class="color3e847a svgShape"></path>
  <path d="M1552.78 1154.11S1472.1 1169 1424 1167.37 1321.81 1148 1321.81 1148s9.39-51.93 14.92-100-11.28-142.15-23.51-160.25c-16.56-24.49-6.15-48.71 4.44-59.06 15.75-15.37 53.51-30.77 73.9-47.88 0 0 77.78 61.09 91 113.6 0 0 3-85.46.38-109.6 12.56 27.39 33 76.62 39.72 120.27 9.98 64.7 30.12 249.03 30.12 249.03Z" fill="#333999" class="color357093 svgShape"></path>
  <path d="m1830.26 948.07-13.88 1.83-87.49 11.58-29.29 3.91h-.08l-8 1-7.07.93-2.72.37-115 15.23-8.71 1.15-36-272.28 272.29-36Z" fill="#e9eaff" class="colorfff3e9 svgShape"></path>
  <path d="m1615 872.62 121-16s-14-9-12.17-22.9 7.59-27.81-2.61-40.47-11.08-18.53-13.68-29.72c-2.82-12.12-13.71-12.66-13.71-12.66s-19.69-6.43-37.68-1.21-33.79 21.64-34.55 41.23 10.3 31.84 9.49 44.14-18.87 21.34-16.09 37.59Z" fill="#414cf7" class="colorf7a741 svgShape"></path>
  <path d="m1816.38 949.9-87.49 11.54-29.29 3.91h-.08l-8 1-7.07.93h-.07l-2.65.37-115 15.23s5.29-36.71 16.19-59.94c8.31-17.65 44.71-29.34 61.77-33.95 2.34-.6 4.31-1.12 5.8-1.49l3.09-.71 12.81-1.71 14.15-1.86 14.85-2 12.14-1.61s1.41-.07 3.83-.11c1.53 0 3.5-.07 5.81-.07 17.87 0 55.47 2 68 16.71 16.21 19.25 30.54 52.23 31.21 53.76Z" fill="#2b36eb" class="coloreb5c2b svgShape"></path>
  <path d="M1712 879.12c-28.74 21.62-62.12 8.22-62.12 8.22 1.58-5.16.71-20.41-.4-33.34-1-11-2.12-20.32-2.12-20.32l50.71-9.23a168 168 0 0 0 2.12 15.38c4.27 23.36 11.81 39.29 11.81 39.29Z" fill="#6e76f1" class="colorf1876e svgShape"></path>
  <path d="M1700.22 839.83c-5.36 13.32-14.27 23.4-25.46 24.88-8.83 1.17-17.68-3.18-25.25-10.71-1-11-2.12-20.32-2.12-20.32l50.71-9.23c.49 5.41 1.23 10.55 2.12 15.38Z" fill="#131862" class="color621317 svgShape"></path>
  <path d="M1704.38 789c4.09 30.9-8.65 65.53-29.65 68.31-16.86 2.23-33.92-16.74-42.08-40.28a90.92 90.92 0 0 1-3.57-13.38c-.29-1.52-.55-3.06-.75-4.59-4.09-30.91 11.61-43.17 32.61-45.95s39.35 4.95 43.44 35.89Z" fill="#6e76f1" class="colorf1876e svgShape"></path>
  <path d="M1681.37 776.58c-5 6.59-3.41 15.68-18.67 18.51s-19.94 7.29-20.68 17.16c-1.21 16.15 6.48 22.93 9.36 33.94 2.65 10.12 2 18.84 2.52 21.3l-12.4 1.62-16.77-72.4 3.37-24.05 12.06-13.66 16.52-7.52 37.08-.64 17 46.8 4.36 61.7-13 1.74s-8.15-15.52-6.69-24.45 8.89-14.17 3.83-26.3-8.1-22.89-8.59-31.15-7.39-5.09-9.3-2.6Z" fill="#414cf7" class="colorf7a741 svgShape"></path>
  <path d="m1650.75 879.31-6.08 9.77 34.16 27.96 3.17-26.03-31.25-11.7z" fill="#ffffff" class="colorffffff svgShape"></path>
  <path d="m1708.79 871.63 8.41 7.86-25.71 35.88-9.49-24.36 26.79-19.38z" fill="#ffffff" class="colorffffff svgShape"></path>
  <path d="M1484 902.37s34 115.12 37.78 237.3" fill="none" stroke-linecap="round" stroke-linejoin="round" stroke="#8488c3" stroke-width="1.89px" class="colorStroke84c3bd svgStroke"></path>
  <path d="M1378.27 835.83a43.8 43.8 0 0 0-58.77 64.94s106 106.09 138.86 121.37a43.26 43.26 0 0 0 58.59-17.66c11.31-21-1.57-43.62-17.65-58.59l-120.12-109.23-.72-.65ZM1479.2 776.74c6.34 5.3 23 14.28 38 35.53 11.41 16.18 27 57.44 29.1 71.83 5.53 37.57-28.36 60.78-28.36 60.78l-61.09-84Z" fill="#333999" class="color357093 svgShape"></path>
  <path d="m1688.12 949.4 6.83 50.17a23.52 23.52 0 0 1-5.42 1.11s-147.33 19.84-194.74 31.23a50.75 50.75 0 0 1-10.47 1.52c-12 .47-24-5.32-32-15.51A40.82 40.82 0 0 1 1480 952s6.24-.3 8.86-.07c0 0 147.26-2.32 194.34-2.82a30.56 30.56 0 0 1 4.92.29Z" fill="#333999" class="color357093 svgShape"></path>
  <path d="M1695.94 964.67c.63 2.77 1.17 5.8 1.61 9a90.26 90.26 0 0 1 .77 14 34.39 34.39 0 0 1-1.07 8.41c-.6 2.11-1.49 3.4-2.54 3.54s-2.21-.85-3.29-2.65a32.2 32.2 0 0 1-3.31-8c-.43-1.33-.78-2.79-1.15-4.28l-.07-.41-.52-2.61-.15-.56c-.33-1.89-.67-3.82-.93-5.83-.43-3.21-.66-6.29-.76-9.16 0-1.51-.08-2.95 0-4.3a34.51 34.51 0 0 1 1.18-9.18c.57-1.95 1.43-3.1 2.45-3.24s1.88.56 2.81 1.94c1.79 2.53 3.57 7.31 4.97 13.33Z" fill="#141963" class="color144963 svgShape"></path>
  <path d="M1575.06 1365.24c4.12 8.63 5.3 17.77 5.73 26.71 3.3 68.09 33.62 275.91 33.62 275.91h-72l-75.26-255a59 59 0 0 1 107.88-47.61Z" fill="#3e4284" class="color3e847a svgShape"></path>
  <path d="M1439 1415.2c-4 8.69-10.24 15.46-16.82 21.52-50.13 46.21-192.62 206.2-192.62 206.2l-50.75-50.35L1333.24 1363a59 59 0 0 1 105.76 52.2Z" fill="#8488c3" class="color84c3bd svgShape"></path>
  <path d="m1464.55 728.83 8.1 34.63-11.42 21.36-45.31-6.63-12.89-21.26 5.89-53.15 55.63 25.05z" fill="#6e76f1" class="colorf1876e svgShape"></path>
  <path d="M1482.6 894.42c-13.26-52.51-91-113.6-91-113.6 2.12-2.87 5-6.09 6.49-9.62a106.2 106.2 0 0 0 5-14.22v-.05s26.51 17.22 51.38 15.91c13.54-.68 18.25-9.39 18.25-9.39s2.54 4.91 6.54 13.29q1.74 3.63 3.78 8.08c2.53 24.18-.44 109.6-.44 109.6Z" fill="#ffffff" class="colorffffff svgShape"></path>
  <path d="m1454.41 772.84-6.62 31.86-49.74-33.5a106.2 106.2 0 0 0 5-14.22v-.05s26.49 17.22 51.36 15.91Z" fill="#ffffff" class="colorffffff svgShape"></path>
  <path d="m1453.44 777.49-5.65 27.22-47.26-31.84" fill="none" stroke-linecap="round" stroke-linejoin="round" stroke="#353b93" stroke-width="1.26px" class="colorStroke357093 svgStroke"></path>
  <path d="m1479.2 776.74-6.54 21.52-18.25-25.42c13.54-.68 18.25-9.39 18.25-9.39s2.54 4.91 6.54 13.29Z" fill="#ffffff" class="colorffffff svgShape"></path>
  <path d="m1478.44 779.24-5.78 19.02-15.79-21.99" fill="none" stroke-linecap="round" stroke-linejoin="round" stroke="#353b93" stroke-width="1.26px" class="colorStroke357093 svgStroke"></path>
  <path d="M1504.68 725.52c-3.94 21.19-15.42 28.63-35.14 24.43-19.55-4.16-38.63-18-44.61-23-.07 0-.1-.1-.17-.14-5.85-5-6.9-39.28-12-51.1-5-11.48-24.3-6.53-18.44 10.93-.31-.71-.59-1.47-.85-2.19-14.53-40.77-.55-74.62 27.94-84.77 20.38-7.24 42.69-.38 59 19.08-4.09 1.06-7.34 2.3-8.89 3.67-7 6.13.68 17.93-9.58 25.06s-23.72 2.59-28.23 11.8c-8 16.43 25 51.77 70.32 32.83s4.6 12.21.65 33.4Z" fill="#414cf7" class="colorf7a741 svgShape"></path>
  <path d="m1542.62 1667.86-4.01 33.15h143.66l-67.68-33.15h-71.97zM1178.78 1592.57l-31.76 22.35 70.36 86.09h34.25l-22.65-13.98.55-44.11-50.75-50.35z" fill="#131862" class="color621317 svgShape"></path>
  <path d="M1487.2 617.23a53.33 53.33 0 0 0 10.55-5.34 33.34 33.34 0 0 0 8.7-7.81 17.73 17.73 0 0 0 3.79-10.7 22.16 22.16 0 0 0-3.27-11 33.27 33.27 0 0 0-7.32-9 20.92 20.92 0 0 0-10.46-4.67 23.66 23.66 0 0 0-11.49 1.42 30.33 30.33 0 0 0-10 6.1 30.67 30.67 0 0 1 9.83-6.65 24.44 24.44 0 0 1 11.82-1.79 21.4 21.4 0 0 1 11 4.75 33.29 33.29 0 0 1 7.65 9.27 23.19 23.19 0 0 1 3.33 11.57 18.12 18.12 0 0 1-4.15 11.23c-5.13 6.33-12.52 10.13-19.98 12.62Z" fill="#414cf7" class="colorf7a741 svgShape"></path>
  <path d="M1367.3 807.92c12.15.29 33.23 1.77 33.23 1.77l-7.45 16s73.46 48.27 82.52 68.75M1498.68 798.26l-5.6 9.66 11.36 11s-14.48 37.37-16 70.62M1492.67 1187.97l-42.73 177.31" fill="none" stroke-linecap="round" stroke-linejoin="round" stroke="#8488c3" stroke-width="1.89px" class="colorStroke84c3bd svgStroke"></path>
  <path d="m1206.32 1592.57 159.14-209.71 24.31-188.97" stroke="#ffffff" stroke-width="2.52px" stroke-linecap="round" stroke-linejoin="round" fill="none" class="colorStrokeffffff svgStroke"></path>
  <path d="M1725.17 963.66c4.08-.07 20.39 10.82 12.79 15.83-4.42 2.91-23.63 6-39.64 8.18-3.61.51-7.13 1-10.21 1.32-.43-1.33-.78-2.79-1.15-4.28l-.07-.41-.52-2.61-.15-.56c-.33-1.89-.67-3.82-.93-5.83-.43-3.21-.66-6.29-.76-9.16 0-1.51-.08-2.95 0-4.3 3-.1 7.14.16 11.45-.78 3.3-.74 6.86-1.27 10.11-2.85 11.84-5.79 14.55-9.54 22.06-18.94s10.67-.27 6.34 7.17-13.41 17.26-9.32 17.22ZM1822.42 806.1c.1 3.58-4 6.33-8.68 6.13l-17.42-.73a4.85 4.85 0 0 1-4.78-4.52 4.85 4.85 0 0 1 4.51-4.78l17.35-1.73c4.6-.47 8.92 2.05 9.02 5.63Z" fill="#6e76f1" class="colorf1876e svgShape"></path>
  <path d="M1821.82 794.49c.35 3.57-3.58 6.6-8.23 6.73l-17.43.5a4.87 4.87 0 0 1-5.09-4.17 4.86 4.86 0 0 1 4.17-5.09l17.18-3c4.58-.73 9.04 1.47 9.4 5.03Z" fill="#6e76f1" class="colorf1876e svgShape"></path>
  <path d="M1815.2 783.53c.35 3.56-3.57 6.6-8.23 6.73l-17.43.49a4.85 4.85 0 0 1-5.09-4.17 4.87 4.87 0 0 1 4.17-5.09l17.19-2.94c4.59-.79 9.04 1.45 9.39 4.98Z" fill="#6e76f1" class="colorf1876e svgShape"></path>
  <path d="M1811 768.66c1.19 3.38-1.91 7.25-6.41 8.48l-16.81 4.6a4.85 4.85 0 0 1-5.93-2.85 4.86 4.86 0 0 1 2.85-5.93l16-6.92c4.24-1.85 9.08-.76 10.3 2.62Z" fill="#6e76f1" class="colorf1876e svgShape"></path>
  <path d="M1565.94 950.69s-96.39-2.39-104.38 11.41 16.88 0 16.88 0M1329.73 825.12s31.56-27 127.14 113.33M1335.79 916.89s80.75 111.2 102 116.57 82.58-6.84 82.58-6.84" fill="none" stroke-linecap="round" stroke-linejoin="round" stroke="#8488c3" stroke-width="1.89px" class="colorStroke84c3bd svgStroke"></path>
  <path d="M1506.3 842.62s16.7 43.59 21.7 107.92" fill="none" stroke-linecap="round" stroke-linejoin="round" stroke="#8488c3" stroke-width="1.89px" class="colorStroke84c3bd svgStroke"></path>
  <path d="M2302.33 139a9 9 0 0 1 .46-11.94 38.58 38.58 0 0 0-11.42-6 9 9 0 0 1-17.73-1.67 38.64 38.64 0 0 0-12.35 3.77 9 9 0 0 1-13.74 11.35 38.81 38.81 0 0 0-6 11.42 9 9 0 0 1-1.69 17.73 38.64 38.64 0 0 0 3.74 12.34 9 9 0 0 1 11.4 13.72 38.8 38.8 0 0 0 11.43 6.05 9 9 0 0 1 17.73 1.67 38.64 38.64 0 0 0 12.35-3.77 9 9 0 0 1 13.74-11.36 38.64 38.64 0 0 0 6-11.41 9 9 0 0 1 1.69-17.73 38.89 38.89 0 0 0-3.78-12.36 8.93 8.93 0 0 1-11.83-1.81ZM2291 173.1a19.06 19.06 0 1 1 2.54-26.84 19.06 19.06 0 0 1-2.54 26.84Z" stroke-width="1.56px" stroke-miterlimit="10" stroke="#414cf7" fill="#ffffff" class="colorffffff svgShape colorStrokef7a741 svgStroke"></path>
  <path d="M2246 182.47a21.09 21.09 0 1 1-26.58-13.53 21.09 21.09 0 0 1 26.58 13.53ZM2215.48 157a9.93 9.93 0 0 1-12.09-5.33 42.64 42.64 0 0 0-10.85 9.29 9.92 9.92 0 0 1-8.94 17.56 42.6 42.6 0 0 0-1.13 14.23 9.92 9.92 0 0 1 6.09 18.75 42.64 42.64 0 0 0 9.29 10.85 9.92 9.92 0 0 1 17.55 9 42.6 42.6 0 0 0 14.23 1.13 9.92 9.92 0 0 1 18.75-6.09 43 43 0 0 0 10.86-9.29 9.92 9.92 0 0 1 8.94-17.56 42.64 42.64 0 0 0 1.14-14.24 9.92 9.92 0 0 1-6.09-18.75 42.59 42.59 0 0 0-9.29-10.84 9.92 9.92 0 0 1-17.55-9 42.76 42.76 0 0 0-14.25-1.13 9.9 9.9 0 0 1-6.66 11.42Z" stroke-width="1.34px" stroke-miterlimit="10" stroke="#414cf7" fill="#ffffff" class="colorffffff svgShape colorStrokef7a741 svgStroke"></path>
  <path d="M2471.59 653.21h-48.46a5.06 5.06 0 0 0-5 5v29.93a5.06 5.06 0 0 0 5 5 5.06 5.06 0 0 0 5-5v-22.69a2 2 0 0 1 1.95-2 2 2 0 0 1 2 2v79.79a6.49 6.49 0 0 0 6.47 6.47 6.49 6.49 0 0 0 6.47-6.47V714a2.35 2.35 0 0 1 2.35-2.35 2.35 2.35 0 0 1 2.35 2.35v31.09a6.58 6.58 0 0 0 5.83 6.59 6.49 6.49 0 0 0 7.11-6.44v-79.79a2 2 0 0 1 1.95-2 2 2 0 0 1 2 2v22.6a5.13 5.13 0 0 0 4.42 5.14 5.06 5.06 0 0 0 5.66-5v-29.94a5.06 5.06 0 0 0-5.1-5.04Z" fill="#ffffff" stroke="#414cf7" stroke-miterlimit="10" stroke-width="1.5px" class="colorffffff svgShape colorStrokef7a741 svgStroke"></path>
  <circle cx="2447.36" cy="639.19" r="12.12" fill="#ffffff" stroke="#414cf7" stroke-miterlimit="10" stroke-width="1.5px" class="colorffffff svgShape colorStrokef7a741 svgStroke"></circle>
  <path d="M2412 653.21h-48.46a5.06 5.06 0 0 0-5 5v29.93a5.06 5.06 0 0 0 5 5 5.06 5.06 0 0 0 5-5v-22.69a2 2 0 0 1 1.95-2 2 2 0 0 1 1.95 2v79.79a6.49 6.49 0 0 0 6.47 6.47 6.49 6.49 0 0 0 6.47-6.47V714a2.35 2.35 0 0 1 2.35-2.35 2.36 2.36 0 0 1 2.35 2.35v31.09a6.58 6.58 0 0 0 5.83 6.59 6.49 6.49 0 0 0 7.11-6.44v-79.79a2 2 0 0 1 1.95-2 2 2 0 0 1 1.95 2v22.6a5.13 5.13 0 0 0 4.42 5.14 5.06 5.06 0 0 0 5.66-5v-29.94a5.06 5.06 0 0 0-5-5.04Z" fill="#ffffff" stroke="#414cf7" stroke-miterlimit="10" stroke-width="1.5px" class="colorffffff svgShape colorStrokef7a741 svgStroke"></path>
  <circle cx="2387.78" cy="639.19" r="12.12" fill="#ffffff" stroke="#414cf7" stroke-miterlimit="10" stroke-width="1.5px" class="colorffffff svgShape colorStrokef7a741 svgStroke"></circle>
  <path d="M2442.32 670.85h-48.46a5.06 5.06 0 0 0-5 5v29.94a5.06 5.06 0 0 0 5 5 5.06 5.06 0 0 0 5-5v-22.7a2 2 0 0 1 1.95-2 2 2 0 0 1 2 2v79.79a6.49 6.49 0 0 0 6.47 6.47 6.49 6.49 0 0 0 6.47-6.47v-31.23a2.35 2.35 0 0 1 2.35-2.35 2.35 2.35 0 0 1 2.35 2.35v31.08a6.56 6.56 0 0 0 5.83 6.59 6.49 6.49 0 0 0 7.11-6.44v-79.79a2 2 0 0 1 1.95-2 2 2 0 0 1 2 2v22.6a5.13 5.13 0 0 0 4.42 5.14 5.05 5.05 0 0 0 5.66-5v-29.94a5.06 5.06 0 0 0-5.1-5.04Z" fill="#ffffff" stroke="#414cf7" stroke-miterlimit="10" stroke-width="1.5px" class="colorffffff svgShape colorStrokef7a741 svgStroke"></path>
  <circle cx="2418.09" cy="656.83" r="12.12" fill="#ffffff" stroke="#414cf7" stroke-miterlimit="10" stroke-width="1.5px" class="colorffffff svgShape colorStrokef7a741 svgStroke"></circle>
  <path d="M388.28 644.98h93.88l14.3-75.27h-93.89l-14.29 75.27z" stroke-linecap="round" stroke-linejoin="round" fill="#ffffff" stroke="#414cf7" stroke-width="1.35px" class="colorffffff svgShape colorStrokef7a741 svgStroke"></path>
  <path d="M511.44 644.98h-93.89l-14.29-75.27h93.88l14.3 75.27z" stroke-linecap="round" stroke-linejoin="round" fill="#ffffff" stroke="#414cf7" stroke-width="1.35px" class="colorffffff svgShape colorStrokef7a741 svgStroke"></path>
  <path d="M499.26 580.84h-93.89" stroke-width="1.35px" stroke="#414cf7" stroke-linecap="round" stroke-linejoin="round" fill="none" class="colorStrokef7a741 svgStroke"></path>
  <path d="M417.37 590.66h37.27M433.12 613h-14.43l-2.83-14.43h14.44l2.82 14.43zM454.86 613h-14.43l-2.83-14.43h14.43l2.83 14.43zM476.6 613h-14.44l-2.83-14.43h14.44L476.6 613zM498.33 613H483.9l-2.83-14.43h14.43l2.83 14.43zM458.41 633.65h-14.43l-2.83-14.43h14.43l2.83 14.43zM480.15 633.65h-14.44l-2.82-14.43h14.43l2.83 14.43zM501.88 633.65h-14.43l-2.83-14.43h14.43l2.83 14.43z" stroke-linecap="round" stroke-linejoin="round" fill="#ffffff" stroke="#414cf7" stroke-width="1.35px" class="colorffffff svgShape colorStrokef7a741 svgStroke"></path>
  <path d="m1522.05 204.19 34.27 41.65-5.4 4.41-34.2-41.64c1-.68 1.89-1.35 2.78-2.1s1.73-1.51 2.55-2.32Z" stroke-width=".81px" stroke-miterlimit="10" stroke="#414cf7" fill="#ffffff" class="colorffffff svgShape colorStrokef7a741 svgStroke"></path>
  <path d="M1477.4 155.27a33.18 33.18 0 0 0 39.32 53.34c1-.68 1.89-1.35 2.78-2.1s1.73-1.5 2.55-2.32a33.16 33.16 0 0 0-44.65-48.92Zm40.86 9.32a25.68 25.68 0 1 1-36.14-3.55 25.68 25.68 0 0 1 36.14 3.55Z" fill="#ffffff" stroke="#414cf7" stroke-miterlimit="10" stroke-width=".88px" class="colorffffff svgShape colorStrokef7a741 svgStroke"></path>
  <path d="M1518.26 164.59a25.68 25.68 0 1 1-36.14-3.55 25.68 25.68 0 0 1 36.14 3.55Z" fill="#ffffff" stroke="#414cf7" stroke-miterlimit="10" stroke-width=".88px" class="colorffffff svgShape colorStrokef7a741 svgStroke"></path>
  <path d="M1487.64 162.58a20.18 20.18 0 0 1 4.49-1.83M1479.23 189.58a20.47 20.47 0 0 1 5.32-24.9" stroke-linecap="round" stroke-linejoin="round" fill="#ffffff" stroke="#414cf7" stroke-width=".82px" class="colorffffff svgShape colorStrokef7a741 svgStroke"></path>
  <path d="m845.3 128.5 34.63 52.6a6.86 6.86 0 0 1-1.72 9.51h0a6.86 6.86 0 0 1-9.42-2.17L858.63 173" stroke-linecap="round" stroke-linejoin="round" fill="#ffffff" stroke="#414cf7" stroke-width="1.23px" class="colorffffff svgShape colorStrokef7a741 svgStroke"></path>
  <path d="M867.06 198a6.86 6.86 0 0 0 1.73-9.51 6.68 6.68 0 1 0 11.14-7.34l-23.2-35.24-3-20-22.33-7.13-5.9-9-39.43 26 14.6 22.17 6.48 9.85 28.15 42.74a6.68 6.68 0 1 0 11.14-7.34 6.68 6.68 0 1 0 11.15-7.33 6.86 6.86 0 0 0 9.47 2.13Z" stroke-linecap="round" stroke-linejoin="round" fill="#ffffff" stroke="#414cf7" stroke-width="1.23px" class="colorffffff svgShape colorStrokef7a741 svgStroke"></path>
  <path d="m858.63 173 10.16 15.43a6.86 6.86 0 0 1-1.73 9.51h0a6.86 6.86 0 0 1-9.42-2.17" stroke-linecap="round" stroke-linejoin="round" fill="#ffffff" stroke="#414cf7" stroke-width="1.23px" class="colorffffff svgShape colorStrokef7a741 svgStroke"></path>
  <path d="m847.48 180.35 10.16 15.43a6.85 6.85 0 0 1-1.73 9.51h0a6.86 6.86 0 0 1-9.42-2.18l-10.15-15.42" stroke-linecap="round" stroke-linejoin="round" fill="#ffffff" stroke="#414cf7" stroke-width="1.23px" class="colorffffff svgShape colorStrokef7a741 svgStroke"></path>
  <path d="m836.34 187.69 10.15 15.42a6.87 6.87 0 0 1-1.72 9.52h0a6.85 6.85 0 0 1-9.42-2.18l-34.63-52.59" stroke-linecap="round" stroke-linejoin="round" fill="#ffffff" stroke="#414cf7" stroke-width="1.23px" class="colorffffff svgShape colorStrokef7a741 svgStroke"></path>
  <path d="M865.44 113.81 818.1 145a6.87 6.87 0 0 0-1.61 9.57h0a6 6 0 0 0 8.19 2L845 143.19l3 4.17v.07a18.67 18.67 0 0 0 10.25 6.94l4.67 1.28 11.19 17 42.38-27.89-24.93-37.86-5.56 3.72a7.74 7.74 0 0 1-6.1 1l-.41-.1a17.68 17.68 0 0 0-14.05 2.29Z" stroke-width="1.22px" stroke="#414cf7" fill="#ffffff" stroke-linecap="round" stroke-linejoin="round" class="colorffffff svgShape colorStrokef7a741 svgStroke"></path>
  <path d="M794.83 168.65h0a5.79 5.79 0 0 1 1.64-8l6-4a5.79 5.79 0 0 1 8 1.65h0a5.79 5.79 0 0 1-1.65 8l-6 3.95a5.78 5.78 0 0 1-7.99-1.6ZM801.17 178.29h0a5.8 5.8 0 0 1 1.65-8l6-3.95a5.79 5.79 0 0 1 8 1.65h0a5.78 5.78 0 0 1-1.64 8l-6 4a5.79 5.79 0 0 1-8.01-1.7Z" stroke-linecap="round" stroke-linejoin="round" fill="#ffffff" stroke="#414cf7" stroke-width="1.26px" class="colorffffff svgShape colorStrokef7a741 svgStroke"></path>
  <path d="M807.52 187.93h0a5.8 5.8 0 0 1 1.65-8l6-4a5.79 5.79 0 0 1 8 1.65h0a5.78 5.78 0 0 1-1.64 8l-6 3.95a5.79 5.79 0 0 1-8.01-1.6ZM813.87 197.57h0a5.79 5.79 0 0 1 1.65-8l6-3.95a5.79 5.79 0 0 1 8 1.65h0a5.78 5.78 0 0 1-1.65 8l-6 4a5.78 5.78 0 0 1-8-1.7Z" stroke-linecap="round" stroke-linejoin="round" fill="#ffffff" stroke="#414cf7" stroke-width="1.26px" class="colorffffff svgShape colorStrokef7a741 svgStroke"></path>
  <path d="M879.9 120.12h54.4v7.3h-54.4z" transform="rotate(56.64 907.064 123.748)" stroke-linecap="round" stroke-linejoin="round" fill="#ffffff" stroke="#414cf7" stroke-width="1.23px" class="colorffffff svgShape colorStrokef7a741 svgStroke"></path>
  <path d="M776.94 115.81h54.4v7.3h-54.4z" transform="rotate(146.64 804.143 119.443)" stroke-linecap="round" stroke-linejoin="round" fill="#ffffff" stroke="#414cf7" stroke-width="1.23px" class="colorffffff svgShape colorStrokef7a741 svgStroke"></path>
  <path d="M2579.53 1716H244.06a7.17 7.17 0 0 1-7.14-7.15 7.17 7.17 0 0 1 7.14-7.15h2335.47a7.17 7.17 0 0 1 7.15 7.15 7.17 7.17 0 0 1-7.15 7.15Z" fill="#333999" class="color357093 svgShape"></path>
</svg>
