<svg xmlns="http://www.w3.org/2000/svg" viewBox="0 0 64 64" id="Communication">
  <path d="M31.93 44.05c-.89-.32-1.82-.64-2.71-1.03-.49-.21-.98-.33-1.47-.39v-1.85a9.11 9.11 0 0 0 1.84-5.21c.71-.9 1.32-1.81 1.8-2.73.56-1.07.87-2.23.93-3.45l.22-4.82v-.14c-.21-2.13-2.1-3.06-3.4-3.34-1.1-1.7-5.66-7.57-14.57-4.07a9.716 9.716 0 0 0-5.91 6.83c-.75 3.17.06 8.27 2.67 11.51.02 2.03.7 3.91 1.85 5.42v1.4c-.1.05-.2.11-.3.17-.39.23-1.06.61-1.21.68-.88.38-1.79.7-2.67 1.01-3.3 1.17-6.72 2.37-8.25 6.59-.5 1.52-.87 2.92-.69 5.9.03.51.46.91.97.91h38.89c.51 0 .94-.4.97-.91.18-2.98-.19-4.38-.7-5.93-1.54-4.17-4.95-5.38-8.26-6.55zM12.29 27.98c-.54 0-.97.43-.97.97v2.54c-.98-2.46-1.22-5.28-.78-7.18.59-2.5 2.35-4.54 4.73-5.47 8.64-3.39 12.25 3.31 12.4 3.6.15.29.44.49.77.52.02 0 1.95.2 2.15 1.62l-.22 4.74c-.04.93-.28 1.82-.71 2.64-.02.04-.05.08-.07.11v-4.52c0-.35-.18-.67-.48-.84a.986.986 0 0 0-.97 0c-.67.39-2.49-1.11-3.49-2.36a.981.981 0 0 0-.94-.35c-.35.07-.64.32-.75.66-.65 2.09-2.91 3.1-3.48 3.33h-7.19zm8.17 14.52c-3.97 0-7.2-3.23-7.2-7.2v-5.38h6.4c.1 0 .21-.02.3-.05.13-.04 2.74-.93 4.19-3.2.89.87 2.2 1.91 3.51 2.02v6.61c0 3.97-3.23 7.2-7.2 7.2zm5.35.19v.67c-.57 2.48-3.27 4.23-5.32 4.16-3.33-.13-5.1-3.17-5.39-4.17v-.67a9.108 9.108 0 0 0 5.35 1.75 8.95 8.95 0 0 0 5.36-1.74zm13.17 12.83H1.94c-.04-2.02.24-3.06.62-4.23 1.21-3.33 3.92-4.29 7.06-5.4.91-.32 1.85-.65 2.77-1.05.17-.07.46-.23.98-.53.76 2.01 3.21 5.02 7.04 5.16h.2c2.64 0 5.78-1.91 6.86-4.93.32.04.64.11.98.26.95.41 1.91.75 2.83 1.07 3.14 1.11 5.85 2.07 7.06 5.37.4 1.21.68 2.26.64 4.28zM60 6.54H39.37c-2.21 0-4 1.8-4 4v13.21c0 2.21 1.8 4 4 4h.91v2.48c0 .36.2.69.51.86.14.08.3.11.46.11.19 0 .38-.06.54-.16l4.92-3.28H60c2.21 0 4-1.8 4-4V10.55c0-2.21-1.8-4.01-4-4.01zm2.06 17.21c0 1.14-.93 2.06-2.06 2.06H46.41c-.19 0-.38.06-.54.16l-3.65 2.44v-1.63c0-.54-.43-.97-.97-.97h-1.88c-1.14 0-2.06-.93-2.06-2.06v-13.2c0-1.14.93-2.06 2.06-2.06H60c1.14 0 2.06.93 2.06 2.06v13.2z" fill="#333999" class="color000000 svgShape"></path>
  <path d="M56.94 12.33H42.43c-.54 0-.97.43-.97.97s.43.97.97.97h14.51a.97.97 0 0 0 0-1.94zM43.9 17.9h-.99c-.54 0-.97.43-.97.97s.43.97.97.97h.99c.54 0 .97-.43.97-.97 0-.53-.44-.97-.97-.97zm6.28 0h-.99c-.54 0-.97.43-.97.97s.43.97.97.97h.99c.54 0 .97-.43.97-.97 0-.53-.44-.97-.97-.97zm6.28 0h-.99c-.54 0-.97.43-.97.97s.43.97.97.97h.99c.54 0 .97-.43.97-.97a.984.984 0 0 0-.97-.97z" fill="#333999" class="color000000 svgShape"></path>
</svg>
