<svg xmlns="http://www.w3.org/2000/svg" enable-background="new 0 0 66 66" viewBox="0 0 66 66" id="CorporateProfile">
  <path d="M58.4,5.4H7.6c-2.2,0-4,1.8-4,4v42.3H2c-0.6,0-1,0.4-1,1c0,4.3,3.5,7.9,7.9,7.9h48.2c4.3,0,7.9-3.5,7.9-7.9
		c0-0.6-0.4-1-1-1h-1.6V9.4C62.4,7.2,60.6,5.4,58.4,5.4z M5.6,9.4c0-1.1,0.9-2,2-2h50.8c1.1,0,2,0.9,2,2v42.3H39.1
		c-0.4,0-0.8,0.3-1,0.7l-0.7,2.2h-8.8l-0.7-2.2c-0.1-0.4-0.5-0.7-1-0.7H5.6V9.4z M57.1,58.6H8.9c-2.9,0-5.3-2.1-5.8-4.9h23.1
		l0.7,2.2c0.1,0.4,0.5,0.7,1,0.7h10.3c0.4,0,0.8-0.3,1-0.7l0.7-2.2h23.1C62.4,56.5,60,58.6,57.1,58.6z" fill="#333999" class="color000000 svgShape"></path>
  <path d="M38.2 47.8c.6 0 1-.4 1-1v-5.6c0-1.9-1.2-3.6-3.1-4.2L29.5 35v-2.6c3-2.8 4.9-7.7 4.9-11.3 0-5.4-4.4-9.8-9.8-9.8s-9.8 4.4-9.8 9.8c0 3.6 1.9 8.5 4.9 11.3V35L13.1 37c-1.8.6-3.1 2.3-3.1 4.2v5.6c0 .6.4 1 1 1H38.2zM18.4 27.1c.9-1.2 1.5-3.6 1.6-5.9 3 1.8 6.9 1.7 9.5 0 .2 1.5.6 3.3 1.6 4.2.1.1.2.1.3.2C28.4 33.6 22.5 35.4 18.4 27.1zM21.7 33.8c1.8 1 3.8 1 5.8 0v1.9c0 1.8-5.8 1.8-5.8 0V33.8zM24.6 13.3c4.3 0 7.8 3.5 7.8 7.8 0 .7-.1 1.4-.3 2.2-.5-1.1-.7-3-.8-4.3 0-.4-.3-.8-.7-.9-.4-.1-.8 0-1.1.3-2.2 2.8-7.3 2.8-9.8-.1-.3-.3-.8-.4-1.2-.2-.4.2-.6.6-.6 1 .3 2-.1 4.1-.5 5.5-.4-1.3-.6-2.5-.6-3.6C16.8 16.8 20.3 13.3 24.6 13.3zM12 41.2c0-1 .7-2 1.7-2.3l6.3-2c1.5 2.8 7.7 2.8 9.1 0l6.4 2c1 .3 1.7 1.2 1.7 2.3v4.6H34v-3.5c0-.6-.4-1-1-1s-1 .4-1 1v3.5H17.1v-3.5c0-.6-.4-1-1-1s-1 .4-1 1v3.5H12V41.2zM39.1 21.9h9.6c.6 0 1-.4 1-1s-.4-1-1-1h-9.6c-.6 0-1 .4-1 1S38.5 21.9 39.1 21.9zM55 19.9h-1.8c-.6 0-1 .4-1 1s.4 1 1 1H55c.6 0 1-.4 1-1S55.6 19.9 55 19.9zM55 31.4H43.2c-.6 0-1 .4-1 1 0 .6.4 1 1 1H55c.6 0 1-.4 1-1C56 31.9 55.6 31.4 55 31.4zM39.1 27.7h1.7c.6 0 1-.4 1-1s-.4-1-1-1h-1.7c-.6 0-1 .4-1 1S38.5 27.7 39.1 27.7zM55 25.7h-9.7c-.6 0-1 .4-1 1s.4 1 1 1H55c.6 0 1-.4 1-1S55.6 25.7 55 25.7zM55 37.2H43.2c-.6 0-1 .4-1 1s.4 1 1 1H55c.6 0 1-.4 1-1S55.6 37.2 55 37.2zM39.1 16.1H42c.6 0 1-.4 1-1s-.4-1-1-1h-2.9c-.6 0-1 .4-1 1S38.5 16.1 39.1 16.1zM46.5 16.1H55c.6 0 1-.4 1-1s-.4-1-1-1h-8.5c-.6 0-1 .4-1 1S45.9 16.1 46.5 16.1zM55 43H43.2c-.6 0-1 .4-1 1s.4 1 1 1H55c.6 0 1-.4 1-1S55.6 43 55 43z" fill="#333999" class="color000000 svgShape"></path>
</svg>
