<svg xmlns="http://www.w3.org/2000/svg" viewBox="0 0 64 64" id="Experience">
  <path d="M21 7H51a1 1 0 0 0 0-2H21a1 1 0 0 0 0 2zM21 11H51a1 1 0 0 0 0-2H21a1 1 0 0 0 0 2zM21 15H51a1 1 0 0 0 0-2H21a1 1 0 1 0 0 2zM21 19H51a1 1 0 0 0 0-2H21a1 1 0 1 0 0 2zM21 23H51a1 1 0 0 0 0-2H21a1 1 0 1 0 0 2zM21 27H38a1 1 0 0 0 0-2H21a1 1 0 1 0 0 2zM44 35a6 6 0 1 0 6 6A6.006 6.006 0 0 0 44 35zm0 10a4 4 0 1 1 4-4A4 4 0 0 1 44 45z" fill="#333999" class="color000000 svgShape"></path>
  <path d="M6,16h5a1,1,0,0,0,0-2H7V5.5a3.5,3.5,0,0,1,7,0V19.478C13.894,24.32,13.019,37.5,10.284,40.3,6.4,44.287,6,45.887,6,51a1,1,0,0,0,1,1h4a1,1,0,0,0,0-2H8.006c.05-3.9.5-5.017,3.71-8.3A11.757,11.757,0,0,0,14,36.756V56a1,1,0,0,0,1,1H33a1,1,0,0,0,0-2H16V5.5A5.477,5.477,0,0,0,14.739,2H52.5A3.5,3.5,0,0,1,56,5.5V39.586l-2.515-2.515V33.515a2,2,0,0,0-2-2H47.929L45.414,29a2,2,0,0,0-2.828,0l-2.515,2.515H36.515a2,2,0,0,0-2,2v3.556L32,39.586a2,2,0,0,0,0,2.828l2.515,2.515v3.556a2,2,0,0,0,2,2h1.761L33.081,62.606A1,1,0,0,0,34.6,63.8l3.154-2.366,1.414,2.121A1,1,0,0,0,40,64a1.02,1.02,0,0,0,.145-.01,1,1,0,0,0,.811-.7L42.893,57h2.214l1.937,6.294a1,1,0,0,0,.811.7A1.02,1.02,0,0,0,48,64a1,1,0,0,0,.832-.445l1.414-2.121L53.4,63.8a1,1,0,0,0,1.519-1.194L49.724,50.485h1.761a2,2,0,0,0,2-2V44.929L56,42.414V55H55a1,1,0,0,0,0,2h2a1,1,0,0,0,1-1V5.5A5.506,5.506,0,0,0,52.5,0H10a.987.987,0,0,0-.389.079A5.5,5.5,0,0,0,5,5.5V15A1,1,0,0,0,6,16ZM39.664,60.693l-.832-1.248A1,1,0,0,0,37.4,59.2l-1.007.756,3.944-9.205,1.824,1.824ZM43.508,55l.437-1.42c.018,0,.037.005.055.005s.037-.005.055-.005L44.492,55ZM50.6,59.2a1,1,0,0,0-1.432.245l-.832,1.248-2.5-8.118,1.824-1.824,3.944,9.205Zm1.471-15.685a1.986,1.986,0,0,0-.586,1.414v3.556H47.929a2.013,2.013,0,0,0-1.414.586L44,51.586l-2.808-2.808a1,1,0,0,0-.707-.293h-3.97V44.929a1.986,1.986,0,0,0-.586-1.414L33.414,41l2.515-2.515a1.986,1.986,0,0,0,.586-1.414V33.515h3.556a2.013,2.013,0,0,0,1.414-.586L44,30.414l2.515,2.515a2.013,2.013,0,0,0,1.414.586h3.556v3.97a1,1,0,0,0,.293.707L54.586,41Z" fill="#333999" class="color000000 svgShape"></path>
</svg>
