<svg xmlns="http://www.w3.org/2000/svg" viewBox="0 0 512 512" id="Job">
  <g fill="#333999" class="color000000 svgShape">
    <path d="M27.991,228H44V352.509C44,380.82,65.9,404,92.7,404H273.13c16.958,41,57.737,70.691,105.236,70.691A113.688,113.688,0,0,0,432,260.763V228h16.027A7.769,7.769,0,0,0,456,220.248V153.725C456,125.414,434.226,102,407.427,102H318V88.726C318,60.415,296.476,37,269.677,37h-69.23C173.648,37,152,60.415,152,88.726V102H68.591C41.793,102,20,125.414,20,153.725v66.523A7.785,7.785,0,0,0,27.991,228ZM476.009,360.975a97.643,97.643,0,1,1-97.643-97.643A97.754,97.754,0,0,1,476.009,360.975ZM416,253.714a114.448,114.448,0,0,0-37.591-6.382c-62.663,0-113.664,51.053-113.664,113.716a116.56,116.56,0,0,0,3.2,26.952H92.7C74.721,388,60,372,60,352.509V228H180v29.186A7.776,7.776,0,0,0,187.92,265h93.746c4.418,0,8.334-3.4,8.334-7.814V228H416ZM196,249V191h78v58ZM168,88.726C168,69.237,182.472,53,200.447,53h69.23C287.652,53,302,69.237,302,88.726V102H168Zm-132,65C36,134.236,50.615,118,68.591,118H407.427C425.4,118,440,134.236,440,153.725V212H290V183.309A8.56,8.56,0,0,0,281.666,175H187.92a8.2,8.2,0,0,0-7.92,8.309V212H36Z" fill="#333999" class="color000000 svgShape"></path>
    <path d="M342.759,313.591a35.608,35.608,0,1,0,35.607-35.607A35.647,35.647,0,0,0,342.759,313.591Zm55.215,0a19.608,19.608,0,1,1-19.608-19.607A19.629,19.629,0,0,1,397.974,313.591Z" fill="#333999" class="color000000 svgShape"></path>
    <path d="M405.064,349a8.175,8.175,0,0,0-6.446,3.435,25.5,25.5,0,0,1-5.371,5.457,25.183,25.183,0,0,1-35.133-5.5A8.122,8.122,0,0,0,351.668,349h0C333.562,349,319,364.089,319,382.193v37.772A7.889,7.889,0,0,0,326.833,428H429.9a8.116,8.116,0,0,0,8.1-8.035V382.193c0-18.1-14.829-33.193-32.932-33.193Zm3.5,16.7A16.919,16.919,0,0,1,422,382.193V412H335V382.193a16.8,16.8,0,0,1,13.3-16.488,41.061,41.061,0,0,0,60.273,0Z" fill="#333999" class="color000000 svgShape"></path>
  </g>
</svg>
