<svg xmlns="http://www.w3.org/2000/svg" viewBox="0 0 512 512" id="Leadership">
  <g fill="#000000" class="color000000 svgShape">
    <path fill="#ffffff" d="m390.6303563,372.6488584c-10.760622-3.2213327-19.0538403-13.4336428-20.3560812-24.6740378-.7539289-6.8538994.9595459-14.0504937,5.2089635-19.4650742,4.2494176-5.5516585,11.308934-12.1999409,21.521244-12.5426359h.068539c3.0157157-.068539,5.7572755.342695,8.2932182,1.1651629.068539,0,.137078.068539.137078.068539,6.3741264,1.9190918,11.5830899,6.0999704,15.7639686,11.7887069.6168509.8910069,1.2337019,1.7134748,1.7820138,2.6730208,5.9628925,9.5269201,5.1404245,22.8920239-1.9190918,31.6650151-6.9909774,8.8415302-19.6706912,12.6797138-30.4998522,9.3213032Z" class="colorffbb33 svgShape"></path>
    <polygon fill="#333999" points="252.456 162.92 258.83 167.991 265.204 162.92 273.36 205.345 258.83 219.19 244.437 205.345 252.456 162.92" class="color446bd5 svgShape"></polygon>
    <path fill="#333999" d="m287.7751487,108.7838024c-8.8062845,11.1301651-24.7676751,15.9613906-38.405185,11.7417126-13.5763552-4.1585232-24.033818-17.0010214-25.6849964-31.0666146-.9173213-8.683975,1.2842498-17.7348784,6.6658681-24.6453655,5.3204635-6.8493324,14.1879027-15.3498431,27.0304009-15.6556168,3.9139042-.1223095,7.5831894.3669285,11.0078556,1.4677141,7.8889632,2.3850354,14.371367,7.7054989,19.569521,14.7994503.7950118,1.1007856,1.5900236,2.2015711,2.2627259,3.3635114,7.5831894,12.0474864,6.4824038,28.8650435-2.4461901,39.9952086Z" class="color446bd5 svgShape"></path>
    <path fill="#ffffff" d="M236.3490813 328.5097464c4.1808786-5.5516585 11.240395-12.1999409 21.4527051-12.5426359 1.1651629 0 2.3988648 0 3.4954887.205617 1.7134748.137078 3.3584107.411234 4.9348076.9595459.068539 0 .137078.068539.137078.068539 6.3055874 1.9190918 11.514551 6.0999704 15.6268906 11.7887069.6168509.8910069 1.2337019 1.7134748 1.7820138 2.6730208 6.0999704 9.5269201 5.2089635 22.8920239-1.8505528 31.6650151-6.9909774 8.8415302-19.6706912 12.6797138-30.4998522 9.3213032-10.760622-3.2213327-19.0538403-13.4336428-20.3560812-24.6740378-.7539289-6.8538994 1.0280849-14.0504937 5.2775025-19.4650742zM94.4733642 328.5097464c4.2494176-5.5516585 11.240395-12.1999409 21.521244-12.5426359 1.5763969-.068539 3.1527937.068539 4.6606516.342695 1.3022409.205617 2.6044818.411234 3.7696447.8224679.068539 0 .137078.068539.137078.068539 6.3055874 1.9190918 11.514551 6.0999704 15.6268906 11.7887069.6168509.8910069 1.2337019 1.7134748 1.7820138 2.6730208 6.0314315 9.5269201 5.2089635 22.8920239-1.8505528 31.6650151-7.0595164 8.8415302-19.6706912 12.6797138-30.4998522 9.3213032-10.760622-3.2213327-19.1223793-13.4336428-20.3560812-24.6740378-.8224679-6.8538994.9595459-14.0504937 5.2089635-19.4650742z" class="colorffbb33 svgShape"></path>
  </g>
  <g fill="#000000" class="color000000 svgShape">
    <path fill="none" stroke="#080c4b" stroke-linecap="round" stroke-linejoin="round" stroke-width="7.802" d="M268.389092 50.6256321c-3.4246662-1.1007856-7.0939514-1.5900236-11.0078556-1.4677141-12.8424982.3057738-21.7099374 8.8062845-27.0304009 15.6556168-5.3816183 6.9104871-7.5831894 15.9613906-6.6658681 24.6453655 1.6511783 14.0655932 12.1086411 26.9080914 25.6849964 31.0666146 13.63751 4.219678 29.5989006-.6115475 38.405185-11.7417126 8.928594-11.1301651 10.0293795-27.9477222 2.4461901-39.9952086-.6727023-1.1619403-1.4677141-2.2627259-2.2627259-3.3635114-5.198154-7.0939514-11.6805579-12.4144149-19.569521-14.7994503zM215.3761492 155.4487871c17.0662095-11.7887069 40.3009283-15.4212736 61.1367824-10.486466 20.6987761 5.0033465 35.9144327 18.0942944 46.7435938 34.8863478 10.829161 16.7920535 14.6673447 37.0795956 11.7887069 56.3390529-44.413268 5.9628925-96.2287473 4.2494176-152.2251052-1.4393189-1.9190918-14.5302667-1.3022409-29.4717673 3.2898717-43.4537221 4.7291906-13.9819547 16.4493585-27.0043635 29.2661503-35.8458937zM261.2972751 316.1727275c-1.0966239-.205617-2.3303258-.205617-3.4954887-.205617-10.2123101.342695-17.2718264 6.9909774-21.4527051 12.5426359-4.2494176 5.4145805-6.0314315 12.6111749-5.2775025 19.4650742 1.3022409 11.240395 9.5954591 21.4527051 20.3560812 24.6740378 10.829161 3.3584107 23.5088749-.479773 30.4998522-9.3213032 7.0595164-8.7729912 7.9505233-22.138095 1.8505528-31.6650151-.548312-.9595459-1.1651629-1.7820138-1.7820138-2.6730208-4.1123396-5.6887365-9.3213032-9.8696151-15.6268906-11.7887069 0 0-.068539-.068539-.137078-.068539-1.5763969-.548312-3.2213327-.8224679-4.9348076-.9595459zM302.9004443 420.3519981c7.6763673 11.9257849 10.4179271 26.2504346 8.2932182 39.8896944-31.3223202 4.1808786-68.1277598 3.0157157-107.6747592-1.0966239-1.3707799-10.2123101-1.0280849-20.8358541 2.3303258-30.7054692 3.3584107-9.9381541 11.6516289-19.1223793 20.6987761-25.3594277 12.0628629-8.3617572 28.5807604-10.8977 43.1795661-7.4707503 14.7358837 3.5640277 25.4965057 12.8167918 33.172873 24.7425768zM120.6552598 316.3098055c-1.5078579-.274156-3.0842547-.411234-4.6606516-.342695-10.2808491.342695-17.2718264 6.9909774-21.521244 12.5426359-4.2494176 5.4145805-6.0314315 12.6111749-5.2089635 19.4650742 1.2337019 11.240395 9.5954591 21.4527051 20.3560812 24.6740378 10.829161 3.3584107 23.4403359-.479773 30.4998522-9.3213032 7.0595164-8.7729912 7.8819843-22.138095 1.8505528-31.6650151-.548312-.9595459-1.1651629-1.7820138-1.7820138-2.6730208-4.1123396-5.6887365-9.3213032-9.8696151-15.6268906-11.7887069 0 0-.068539-.068539-.137078-.068539-1.1651629-.411234-2.4674038-.6168509-3.7696447-.8224679zM161.0932662 420.3519981c7.6763673 11.9257849 10.3493881 26.2504346 8.2932182 39.8896944-31.3908591 4.1808786-68.1277598 3.0157157-107.7432982-1.0966239-1.3707799-10.2123101-.9595459-20.8358541 2.3988648-30.7054692 3.2213327-9.9381541 11.5830899-19.1223793 20.6302371-25.3594277 12.1314019-8.3617572 28.5807604-10.8977 43.2481051-7.4707503 14.7358837 3.5640277 25.4965057 12.8167918 33.172873 24.7425768zM397.0730217 315.9671105h-.068539c-10.2123101.342695-17.2718264 6.9909774-21.521244 12.5426359-4.2494176 5.4145805-5.9628925 12.6111749-5.2089635 19.4650742 1.3022409 11.240395 9.5954591 21.4527051 20.3560812 24.6740378 10.829161 3.3584107 23.5088749-.479773 30.4998522-9.3213032 7.0595164-8.7729912 7.8819843-22.138095 1.9190918-31.6650151-.548312-.9595459-1.1651629-1.7820138-1.7820138-2.6730208-4.1808786-5.6887365-9.3898421-9.8696151-15.7639686-11.7887069 0 0-.068539-.068539-.137078-.068539-2.5359428-.8224679-5.2775025-1.2337019-8.2932182-1.1651629zM442.1031406 420.3519981c7.6763673 11.9257849 10.4179271 26.2504346 8.2932182 39.8896944-31.3908591 4.1808786-68.1277598 3.0157157-107.7432982-1.0966239-1.3707799-10.2123101-.9595459-20.8358541 2.3303258-30.7054692 3.3584107-9.9381541 11.6516289-19.1223793 20.7673151-25.3594277 12.0628629-8.3617572 28.5122214-10.8977 43.1795661-7.4707503 14.7358837 3.5640277 25.4965057 12.8167918 33.172873 24.7425768z" class="colorStroke0f084b svgStroke"></path>
    <polyline fill="none" stroke="#0f084b" stroke-linecap="round" stroke-linejoin="round" stroke-width="7.802" points="261.297 244.412 261.297 268.538 261.297 314.528"></polyline>
    <path fill="none" stroke="#080c4b" stroke-linecap="round" stroke-linejoin="round" stroke-width="7.802" d="M120.6552598 314.8019477v-31.4593981c0-8.1561403 6.5797434-14.8044227 14.8044227-14.8044227h246.8089166c8.1561403 0 14.8044227 6.6482824 14.8044227 14.8044227v32.624561M387.1348676 233.377623c1.1651629-6.5112044.205617-5.9628925 1.3707799-12.4055579M418.1144928 238.6551256c6.7168214-6.3741264 5.2089635-5.0033465 12.0628629-11.308934M421.8155985 264.5628652q5.4831195 1.0966239 10.966239 2.2617868" class="colorStroke0f084b svgStroke"></path>
    <polyline fill="none" stroke="#0f084b" stroke-linecap="round" stroke-linejoin="round" stroke-width="7.802" points="237.514 151.199 252.456 162.92 258.83 167.991 265.204 162.92 280.145 151.199"></polyline>
    <polyline fill="none" stroke="#0f084b" stroke-linecap="round" stroke-linejoin="round" stroke-width="7.802" points="252.524 162.782 252.456 162.92 244.437 205.345 258.83 219.19 273.36 205.345 265.204 162.92 265.204 162.782"></polyline>
  </g>
</svg>
