<svg xmlns="http://www.w3.org/2000/svg" viewBox="0 0 512 512" id="mentorsupport">
  <path fill-rule="evenodd" d="M310.368,201.759c-3.528,0-6.388-2.86-6.388-6.388s2.86-6.388,6.388-6.388h1.929c3.528,0,6.388,2.86,6.388,6.388s-2.86,6.388-6.388,6.388h-1.929ZM345.671,201.759c-3.528,0-6.388-2.86-6.388-6.388s2.86-6.388,6.388-6.388h1.929c3.528,0,6.388,2.86,6.388,6.388s-2.86,6.388-6.388,6.388h-1.929ZM380.974,201.759c-3.528,0-6.388-2.86-6.388-6.388s2.86-6.388,6.388-6.388h1.929c3.528,0,6.388,2.86,6.388,6.388s-2.86,6.388-6.388,6.388h-1.929ZM416.277,201.759c-3.528,0-6.388-2.86-6.388-6.388s2.86-6.388,6.388-6.388h1.929c3.528,0,6.388,2.86,6.388,6.388s-2.86,6.388-6.388,6.388h-1.929ZM236.922,76.405c0,3.528-2.86,6.388-6.388,6.388s-6.388-2.86-6.388-6.388c0-8.997,3.648-17.143,9.544-23.04,5.897-5.896,14.043-9.544,23.04-9.544s17.144,3.648,23.04,9.544c5.897,5.897,9.544,14.043,9.544,23.04,0,7.535-2.247,14.417-6.489,19.968-4.11,5.378-10.039,9.405-17.552,11.456-.488.133-.857.576-1.135,1.258-.693,1.699-.926,4.202-.848,7.275.082,3.514-2.699,6.43-6.213,6.513-3.514.082-6.43-2.699-6.513-6.213-.12-4.782.364-8.975,1.747-12.365,1.798-4.405,4.866-7.447,9.619-8.744,4.68-1.277,8.313-3.706,10.764-6.914,2.513-3.288,3.843-7.503,3.843-12.233,0-5.471-2.217-10.423-5.801-14.007s-8.537-5.801-14.007-5.801-10.423,2.217-14.007,5.801-5.801,8.537-5.801,14.007h0ZM250.342,139.733c0-3.528,2.86-6.388,6.388-6.388s6.388,2.86,6.388,6.388v.408c0,3.528-2.86,6.388-6.388,6.388s-6.388-2.86-6.388-6.388v-.408h0ZM441.069,458.162H133.735v25.062h307.334v-25.062h0ZM142.622,220.825c-6.088-6.088-14.501-9.855-23.793-9.855s-17.705,3.766-23.793,9.855c-6.089,6.088-9.855,14.501-9.855,23.793s3.766,17.705,9.855,23.793c6.088,6.089,14.501,9.855,23.793,9.855s17.705-3.766,23.793-9.855c6.089-6.089,9.855-14.501,9.855-23.793s-3.766-17.705-9.855-23.793h0ZM118.829,198.194c12.819,0,24.425,5.197,32.826,13.598,8.401,8.401,13.598,20.007,13.598,32.826s-5.196,24.425-13.598,32.826c-8.401,8.401-20.007,13.598-32.826,13.598s-24.425-5.196-32.826-13.598c-8.401-8.401-13.598-20.007-13.598-32.826s5.197-24.425,13.598-32.826c8.401-8.401,20.007-13.598,32.826-13.598h0ZM341.972,28.776h-170.484c-1.563,0-2.99.644-4.027,1.682-1.037,1.038-1.682,2.464-1.682,4.027v123.709c0,1.563.644,2.99,1.682,4.027s2.464,1.682,4.027,1.682h28.691c3.528,0,6.388,2.86,6.388,6.388v23.182l25.22-14.56c.106-.07.215-.138.327-.203l23.751-13.713c1.02-.691,2.251-1.095,3.576-1.095h82.531c1.563,0,2.99-.644,4.027-1.682,1.038-1.037,1.682-2.464,1.682-4.027V34.485c0-1.563-.644-2.99-1.682-4.027s-2.464-1.682-4.027-1.682h0ZM286.132,176.68v62.604c0,1.126.465,2.154,1.215,2.904s1.778,1.215,2.904,1.215h24.92c3.528,0,6.388,2.86,6.388,6.388v18.67l20.928-12.083.006.011,20.449-11.806c1.044-.743,2.321-1.18,3.7-1.18h71.681c1.126,0,2.154-.465,2.904-1.215s1.215-1.778,1.215-2.904v-107.446c0-1.126-.465-2.155-1.215-2.904s-1.778-1.215-2.904-1.215h-77.866v30.476c0,5.09-2.078,9.713-5.425,13.06-3.347,3.347-7.97,5.425-13.06,5.425h-55.84ZM360.457,114.943V34.485c0-5.09-2.078-9.713-5.425-13.06-3.347-3.347-7.97-5.425-13.06-5.425h-170.484c-5.09,0-9.713,2.078-13.06,5.425-3.347,3.347-5.425,7.97-5.425,13.06v123.709c0,5.09,2.078,9.713,5.425,13.06,3.347,3.347,7.97,5.425,13.06,5.425h22.303v27.827h.027c-.001,1.077.272,2.168.847,3.169,1.75,3.045,5.638,4.096,8.683,2.345l34.799-20.091c.119-.059.237-.122.354-.19l22.62-13.06h12.235v62.604c0,4.653,1.899,8.878,4.958,11.937,3.059,3.059,7.284,4.958,11.937,4.958h18.532v23.329h.015c-.001,1.086.275,2.187.859,3.194,1.764,3.045,5.663,4.084,8.708,2.321l30.51-17.615-.006-.011,19.429-11.217h70.025c4.653,0,8.878-1.899,11.937-4.958,3.059-3.059,4.958-7.284,4.958-11.937v-107.446c0-4.653-1.899-8.878-4.958-11.937-3.059-3.059-7.284-4.958-11.937-4.958h-77.866ZM215.379,390.726l102.896-59.407c3.045-1.764,6.944-.725,8.708,2.321,1.764,3.045.725,6.944-2.321,8.708l-103.74,59.894c1.207,5.196.994,10.77-.917,16.116-.036.116-.075.233-.118.349-2.754,7.423-8.311,13.053-15.044,16.141-6.718,3.081-14.596,3.619-22.014.871l-23.256-8.629v18.297h287.882c3.528,0,6.388,2.86,6.388,6.388v37.838c0,3.528-2.86,6.388-6.388,6.388H63.171c-3.528,0-6.388-2.86-6.388-6.388v-132.656c0-14.14,5.781-26.991,15.093-36.304,9.312-9.312,22.163-15.093,36.304-15.093s26.714,5.721,35.943,14.95c9.28,9.28,15.099,22.148,15.428,36.322l.205,8.825,42.817,15.873c.105.033.21.069.315.108,5.087,1.888,9.331,5.092,12.492,9.089h0ZM207.559,402.221c1.576,3.598,1.851,7.778.465,11.756-.058.135-.111.272-.159.412-1.556,4.092-4.618,7.186-8.309,8.88-3.7,1.697-8.046,2.002-12.163.515-.1-.04-.202-.077-.305-.112l-31.522-11.696c-.104-.042-.21-.081-.316-.117l-30.789-11.424-10.889-10.889c-2.494-2.494-6.539-2.494-9.033,0-2.494,2.494-2.494,6.539,0,9.033l11.79,11.79c.288.299.607.573.955.814h0s.13.088.13.088h.002s.132.086.132.086c.408.255.838.459,1.281.614l27.97,10.378v23.038h-19.453c-3.528,0-6.388,2.86-6.388,6.388v31.45h-51.4v-126.268c0-10.614,4.347-20.268,11.35-27.271,7.003-7.003,16.657-11.35,27.271-11.35,10.53,0,19.992,4.289,26.91,11.207,7.06,7.06,11.486,16.818,11.735,27.538l.297,12.756c-.129,2.71,1.495,5.306,4.177,6.289l46.837,17.363c.102.044.206.086.311.125,4.062,1.507,7.153,4.492,8.886,8.112.068.167.143.332.227.495Z" fill="#333999" class="color000000 svgShape"></path>
</svg>
