<svg xmlns="http://www.w3.org/2000/svg" xml:space="preserve" viewBox="0 0 66 66" id="Opportunities">
  <path d="M58.7 45.2c-2 0-3.9 1-5 2.5l-7-4.7c2.9-2.5 2.6-7.2-.5-9.2.2-1.2.5-4.2-.1-6.9l7.9-5.8c1.2 1.4 2.9 2.2 4.8 2.2 3.5 0 6.3-2.8 6.3-6.3s-2.8-6.3-6.3-6.3-6.3 2.8-6.3 6.3c0 1 .2 2 .7 2.8l-7.5 5.5c-1.2-3.3-3.9-4.4-7.4-3.5-.7-.5-2.3-1.6-4.7-2v-5c3.1-.4 5.6-3 5.6-6.3 0-3.5-2.8-6.3-6.3-6.3S26.6 5 26.6 8.5c0 3.2 2.4 5.9 5.6 6.3v4.8c-4.7-.2-8.8 2.6-10.7 6.7l-8.6-6c.6-1 1-2.1 1-3.3 0-3.5-2.8-6.3-6.3-6.3C3.8 10.7 1 13.5 1 17s2.8 6.3 6.3 6.3c1.7 0 3.3-.7 4.4-1.8l8.9 6.2c-.3.8-.5 1.6-.6 2.5-.1 1.2-.1 2.4 0 3.6-2.9 1.9-3.4 6.2-.8 8.9l-7.1 4.9c-1.2-1.5-3-2.4-5-2.4-3.5 0-6.3 2.8-6.3 6.3s2.8 6.3 6.3 6.3 6.3-2.8 6.3-6.3c0-.9-.2-1.8-.6-2.6l7.6-5.3c.5.3 1.1.5 1.6.6.2 4.1 2.4 7.6 5.6 9.5.1 3.7-2.7 7.7-10.6 8.5-.9.1-.9 1.5.1 1.5H48c.9 0 1-1.4.1-1.5-4.7-1-11-3.8-9.8-8.5 3.2-1.9 5.4-5.4 5.6-9.5.4-.1.8-.2 1.1-.3l7.7 5.1c-.3.8-.5 1.6-.5 2.6 0 3.5 2.8 6.3 6.3 6.3s6.3-2.8 6.3-6.3c.2-3.5-2.6-6.4-6.1-6.4zm0-33c2.7 0 4.8 2.2 4.8 4.8s-2.2 4.8-4.8 4.8c-2.7 0-4.8-2.2-4.8-4.8s2.1-4.8 4.8-4.8zM27.9 8.6c0-2.7 2.2-4.8 4.8-4.8 2.7 0 4.8 2.2 4.8 4.8 0 2.7-2.2 4.8-4.8 4.8-2.6 0-4.8-2.1-4.8-4.8zM7.3 21.8c-2.7 0-4.8-2.2-4.8-4.8s2.2-4.8 4.8-4.8c2.7 0 4.8 2.2 4.8 4.8s-2.1 4.8-4.8 4.8zm0 34.6c-2.7 0-4.8-2.2-4.8-4.8 0-2.7 2.2-4.8 4.8-4.8 2.7 0 4.8 2.2 4.8 4.8 0 2.6-2.1 4.8-4.8 4.8zm30.2-33.2c.2.2.5.2.7.2 6.1-1.8 7.3 3.9 6.4 10.2-2.6-.1-3.9-4.3-3.9-4.4-.1-.3-.3-.5-.5-.5-.3-.1-.5 0-.7.2-4.7 4.7-11.7 6.1-17.8 4.8-.1-1.1-.1-2.2 0-3.2.9-8.8 10.7-11.8 15.8-7.3zm5.8 39h-20c3.8-1.7 5.7-4.6 6-7.8 2.4 1 5.2 1 7.5.1-.2 3.8 3.1 6.3 6.5 7.7zm0-19.4c-.4 0-.8.3-.8.8 0 4.3-2.5 8-6 9.5-6.2 2.6-12.9-2.4-12.9-9.5 0-.4-.3-.8-.8-.8-3.8 0-5.2-5.6-1.9-7.7 5.5 1.3 13.1.6 18.6-4.3.7 1.6 2.3 4.3 5.1 4.3h.5c3.5 2 2.1 7.7-1.8 7.7zm15.4 13.6c-2.7 0-4.8-2.2-4.8-4.8 0-2.7 2.2-4.8 4.8-4.8 2.7 0 4.8 2.2 4.8 4.8 0 2.6-2.2 4.8-4.8 4.8z" fill="#333999" class="color000000 svgShape"></path>
</svg>
