<svg xmlns="http://www.w3.org/2000/svg" viewBox="0 0 64 64" id="Personalized-learning">
  <path fill="#333999" d="M48.799 36.163c-.053 0-.107-.008-.161-.014-.081-.01-.171-.021-.264-.023l-.648-2.055c1.653-2.255 1.666-5.583 1.655-6.152.365-.151.795-.404 1.149-.843.559-.69.774-1.622.636-2.771-.027-.227-.199-.422-.426-.448-.234-.022-.435.091-.511.308-.117.2-.972.513-3.3-.631-1.499-.7-4.726-1.269-6.189 1.569-.052.093-1.212 2.267-.687 4.01 0 .005 0 .011 0 .016.002.013.009.025.011.038.005.017.005.034.011.051.001.004.005.005.006.009.132.633.616 1.218.907 1.517-.199 1.256.29 2.468 1.411 3.538l-.59 1.868c-.093 0-.186.001-.267.007-.054.004-.108.008-.157.008-3.646 0-6.613 2.962-6.613 6.603v1.8c0 .57.468 1.034 1.043 1.034h3.903c.008 0 .015.005.024.005s.015-.004.024-.005h10.652c.008 0 .015.005.024.005s.015-.004.024-.005h3.911c.57 0 1.033-.464 1.033-1.034v-1.8c0-3.641-2.967-6.603-6.613-6.603zm-3.169 2.589c-.147.162-.373.413-.588.637l-1.82-2.17c-.026-.032-.054-.066-.104-.136l-.137-.175c-.08-.104-.162-.205-.245-.301-.009-.01-.018-.023-.027-.033l.509-1.615c.044.032.087.059.131.09.042.029.084.058.126.086.087.058.171.111.253.162.028.017.057.036.084.053.109.066.213.126.311.181.023.013.042.023.064.035.075.041.146.079.211.113.029.015.053.027.079.04.056.028.106.053.151.075.019.009.036.017.053.026.047.022.085.039.115.053.009.004.015.007.023.01.032.014.054.023.06.026.057.023.117.034.177.035.004 0 .008.002.012.002.05 0 .101-.008.149-.023.292-.093.565-.22.829-.362.073-.039.142-.082.213-.125.207-.126.405-.267.592-.425.036-.03.078-.05.113-.081l.513 1.626c-.042.049-.085.102-.13.157l-.1.123c-.062.075-.124.152-.221.261-.052.069-.105.13-.17.205l-1.097 1.304-.131.146zm-4.021-13.189c.658-1.273 1.746-1.617 2.729-1.617 1.115 0 2.096.442 2.166.474 1.611.793 2.853 1.079 3.704.851-.044.475-.189.869-.435 1.176-.359.451-.861.618-1.109.676-.141-.089-.274-.161-.411-.243-.133-.079-.269-.163-.399-.235-.159-.088-.31-.163-.463-.241-.127-.065-.257-.135-.38-.193-.146-.068-.284-.123-.424-.181-.121-.05-.245-.107-.362-.15-.134-.049-.259-.084-.388-.123-.114-.035-.231-.077-.341-.104-.124-.031-.24-.047-.359-.068-.104-.019-.212-.045-.312-.056-.117-.013-.225-.01-.336-.013-.092-.002-.189-.013-.277-.008-.116.006-.222.03-.332.048-.073.012-.152.016-.222.034-.175.045-.34.106-.494.185-.762.389-1.074 1.086-1.199 1.553-.233.011-.442.057-.639.122-.06.02-.113.049-.17.074-.077.034-.161.057-.232.101.145-1.051.673-2.037.684-2.058zm.395 5.123c.042-.177-.017-.363-.154-.483-.273-.241-.717-.756-.81-1.158 0-.006.002-.011.003-.018.003-.016.008-.035.012-.053.005-.022.012-.045.02-.069.006-.018.013-.036.021-.054.011-.027.026-.055.041-.083.01-.018.02-.035.032-.053.019-.029.043-.058.068-.086.015-.017.029-.034.046-.05.029-.028.065-.053.101-.078.021-.014.04-.029.063-.043.042-.024.092-.043.143-.062.027-.01.051-.022.08-.031.06-.017.131-.028.202-.037.03-.004.056-.012.089-.014.109-.009.23-.009.367.003.13.009.262-.031.363-.117.101-.086.162-.21.172-.342.003-.036.068-.867.757-1.214.479-.238 1.183-.197 2.054.092.757.252 1.638.689 2.626 1.321.032.02.064.04.096.061-.007.853-.143 3.75-1.595 5.551-.009.011-.016.023-.024.035-.071.088-.148.166-.223.245-.047.05-.092.104-.141.151-.082.078-.169.146-.255.215-.05.04-.096.085-.148.122-.097.071-.201.13-.304.191-.046.027-.088.059-.135.083-.153.081-.312.153-.478.214-.163-.078-.435-.215-.752-.406-.005-.003-.008-.005-.013-.007-.05-.03-.107-.071-.159-.104-.284-.18-.589-.39-.886-.646 0 0 0 0 0 0-1.107-.959-1.537-1.994-1.279-3.075zm12.375 13.93l-3.443-.009v-3.742c0-.272-.22-.492-.492-.492s-.492.22-.492.492v3.739l-9.715-.026v-3.713c0-.272-.22-.492-.492-.492s-.492.22-.492.492v3.71l-3.493-.009v-1.8c0-3.098 2.525-5.619 5.629-5.619.071 0 .148-.005.227-.011.053-.004.127-.009.187-.009.026 0 .049 0 .067.003.01.007.019.012.029.018.108.105.206.234.304.361l.126.158c.038.057.084.114.159.208l1.808 2.154c.192.219.469.345.76.345s.567-.126.762-.35c.183-.213.402-.456.544-.612.087-.097.149-.166.158-.177l1.088-1.295c.076-.087.142-.165.177-.215.081-.086.156-.179.229-.269l.151-.185c.048-.061.104-.129.136-.149.005-.003.008-.008.012-.011.037-.008.134.004.205.012.096.012.191.022.283.022 3.104 0 5.629 2.521 5.629 5.619l-.049 1.85zM30.994 17.968c2.051 0 3.72-1.711 3.72-3.814s-1.669-3.813-3.72-3.813-3.72 1.711-3.72 3.813 1.669 3.814 3.72 3.814zm0-6.644c1.509 0 2.736 1.27 2.736 2.829s-1.227 2.83-2.736 2.83-2.736-1.27-2.736-2.83 1.227-2.829 2.736-2.829zM8.644 29.584c.022 0 .044 0 .066-.004l1.483-.198c.289.728.997 1.246 1.827 1.246 1.009 0 1.833-.766 1.946-1.745l13.915-1.843c.27-.037.459-.284.424-.553-.037-.271-.287-.46-.553-.424l-13.914 1.843c-.296-.712-.999-1.215-1.817-1.215-.997 0-1.815.749-1.942 1.712l-1.498.2c-.269.037-.458.284-.423.554.034.247.245.427.487.427zm3.376-1.908c.543 0 .984.441.984.984s-.441.984-.984.984-.984-.441-.984-.984.441-.984.984-.984zM8.644 37.093c.022 0 .043 0 .065-.004l14.084-1.866c.24.816.987 1.417 1.88 1.417 1.07 0 1.941-.861 1.964-1.926l1.243-.164c.269-.036.459-.284.424-.553-.036-.271-.287-.461-.553-.424l-1.349.178c-.332-.62-.978-1.048-1.729-1.048-.934 0-1.715.656-1.915 1.531l-14.178 1.879c-.27.037-.459.284-.424.553.034.248.244.428.487.428zm16.03-3.406c.543 0 .984.441.984.984s-.441.984-.984.984-.984-.441-.984-.984.441-.984.984-.984zM8.644 44.592c.022 0 .043 0 .065-.004l7.699-1.016c.292.721.998 1.233 1.823 1.233 1.003 0 1.824-.758 1.944-1.729l7.706-1.018c.269-.036.459-.284.424-.553-.036-.271-.287-.462-.553-.424l-7.7 1.017c-.293-.72-.998-1.23-1.822-1.23-1.002 0-1.823.756-1.944 1.726l-7.706 1.017c-.269.036-.459.284-.424.553.033.248.244.428.487.428zm9.587-2.739c.543 0 .984.441.984.984s-.441.984-.984.984-.984-.441-.984-.984.441-.984.984-.984z" class="color4d4d4d svgShape"></path>
  <path fill="#333999" d="M60.766,22.513h-6.524c-3.156-1.791-7.712-3.887-12.214-4.269l-1.113-.692c.045-.224,.086-.442,.118-.664l2.115-.396c.862-.157,1.464-1.059,1.313-1.971h0s-.552-3.332-.552-3.332c-.083-.471-.335-.873-.709-1.131-.349-.24-.768-.331-1.186-.251l-2.089,.392c-.096-.189-.198-.379-.305-.562l1.395-1.798c.563-.713,.475-1.782-.195-2.382l-2.41-2.164c-.338-.304-.764-.457-1.192-.414-.439,.037-.839,.258-1.13,.624l-1.364,1.75c-.174-.075-.354-.143-.541-.206V2.713c0-.945-.724-1.713-1.614-1.713h-3.149c-.901,0-1.634,.768-1.634,1.713v2.338c-.181,.062-.355,.13-.522,.201l-1.371-1.749c-.284-.365-.683-.587-1.126-.625-.432-.037-.858,.112-1.186,.413l-2.415,2.168c-.671,.614-.75,1.681-.184,2.368l1.394,1.786c-.105,.178-.209,.37-.312,.579l-2.096-.384c-.413-.079-.837,.012-1.19,.256-.374,.259-.622,.658-.698,1.122l-.551,3.337c-.151,.912,.451,1.814,1.31,1.97l2.11,.395c.03,.236,.068,.459,.108,.666l-1.803,1.13c-3.647,.811-7.118,2.484-9.496,3.831H3.234c-1.231,0-2.234,1.002-2.234,2.234v31.62c0,1.232,1.002,2.234,2.234,2.234H26.575c.471,2.537,2.663,4.399,5.268,4.399s4.806-1.862,5.27-4.399h23.655c1.231,0,2.234-1.002,2.234-2.234V24.747c0-1.231-1.002-2.234-2.234-2.234Zm-3.194,3.269c.175,.12,.28,.33,.28,.559v26.985c0,.092-.024,.173-.054,.249-.01,.024-.02,.049-.033,.071-.023,.042-.053,.077-.083,.112-.155,.169-.388,.253-.6,.242-.073-.007-.147-.015-.209-.042-.8-.358-1.576-.69-2.341-1.008-.208-.086-.413-.17-.618-.254-.627-.256-1.243-.498-1.846-.726-.137-.052-.278-.108-.414-.159-.71-.264-1.4-.506-2.075-.73-.173-.058-.341-.11-.512-.165-.531-.171-1.051-.33-1.56-.477-.17-.049-.342-.1-.51-.147-.626-.172-1.237-.329-1.827-.463-.116-.026-.226-.046-.34-.071-.486-.105-.96-.197-1.423-.275-.166-.028-.332-.056-.495-.081-.509-.077-1.006-.142-1.484-.185-.043-.004-.088-.011-.131-.015-.509-.044-.993-.061-1.467-.066-.061,0-.129-.009-.19-.009-.102,0-.195,.01-.296,.012-.23,.004-.456,.013-.677,.027-.166,.01-.33,.022-.49,.038-.22,.022-.433,.05-.643,.082-.146,.022-.294,.042-.436,.069-.225,.043-.44,.096-.654,.151-.114,.029-.232,.054-.343,.086-.318,.094-.625,.2-.916,.323-.315,.134-.596,.284-.861,.44-.056,.033-.112,.065-.165,.098-.244,.154-.469,.315-.672,.482-.042,.035-.08,.07-.12,.105-.182,.159-.35,.321-.501,.487-.02,.023-.044,.044-.063,.067-.159,.181-.297,.364-.422,.547-.013,.02-.032,.039-.045,.059V22.833s.005-.008,.008-.011c.012-.012,.025-.024,.039-.037,0,0,0,0,0,0,0,0,0,0,0,0,.254-.294,.522-.563,.796-.821,.069-.065,.138-.13,.208-.192,.264-.235,.535-.455,.817-.658,.077-.055,.155-.104,.232-.157,.246-.167,.498-.322,.757-.465,.072-.039,.142-.084,.214-.121,.294-.153,.599-.285,.91-.408,.104-.041,.209-.083,.314-.121,.309-.111,.626-.208,.951-.291,.102-.026,.205-.049,.308-.073,.345-.077,.696-.143,1.058-.189,.067-.009,.134-.014,.201-.022,.858-.095,1.76-.11,2.709-.032,.008,0,.013-.006,.021-.005,4.403,.343,8.913,2.448,11.988,4.204,.437,.249,.847,.492,1.227,.724,1.138,.695,2,1.286,2.477,1.625ZM6.231,53.642c-.011-.02-.02-.042-.029-.063-.031-.077-.054-.159-.054-.253V26.341c0-.23,.105-.439,.284-.563,.631-.449,1.951-1.348,3.699-2.345,2.509-1.431,6.318-3.283,10.215-3.979,.567-.101,1.117-.17,1.655-.217,.185-.016,.361-.016,.543-.026,.354-.019,.707-.034,1.048-.028,.155,.003,.307,.012,.46,.02,.342,.017,.677,.047,1.005,.09,.146,.019,.294,.035,.437,.06,.44,.074,.872,.164,1.286,.285,.038,.011,.074,.027,.112,.038,.387,.118,.761,.261,1.125,.42,.128,.056,.251,.119,.376,.18,.277,.136,.547,.285,.81,.446,.115,.071,.232,.139,.345,.215,.355,.239,.701,.493,1.028,.78,.021,.019,.041,.041,.062,.06,.255,.227,.493,.481,.731,.737-.011,.041-.019,.083-.019,.126v29.126c-.015-.018-.034-.036-.049-.054-.119-.143-.247-.285-.389-.424-.012-.012-.022-.025-.035-.037-.154-.149-.326-.294-.509-.436-.052-.041-.109-.079-.164-.119-.143-.104-.295-.204-.456-.301-.066-.04-.13-.08-.199-.118-.227-.127-.465-.249-.726-.36-4.32-1.83-11.618-.471-21.694,4.039-.067,.029-.144,.038-.221,.045-.134,.006-.275-.022-.4-.088-.01-.006-.02-.012-.03-.019-.051-.03-.098-.068-.141-.11-.041-.043-.078-.09-.107-.144Zm3.377,.315c.296-.124,.577-.234,.865-.351,.394-.16,.791-.323,1.171-.47,.284-.11,.555-.209,.83-.312,.362-.135,.726-.272,1.074-.395,.267-.095,.522-.18,.781-.267,.336-.114,.673-.228,.996-.331,.249-.079,.488-.151,.729-.224,.313-.095,.624-.188,.923-.272,.231-.065,.456-.124,.68-.184,.289-.076,.576-.15,.853-.217,.215-.052,.424-.099,.631-.145,.267-.059,.53-.116,.785-.166,.198-.039,.392-.076,.584-.11,.247-.044,.489-.084,.725-.12,.18-.027,.359-.053,.533-.076,.23-.03,.453-.055,.671-.078,.163-.017,.326-.033,.483-.046,.212-.017,.416-.029,.617-.038,.147-.007,.296-.015,.437-.018,.195-.005,.381-.004,.565-.002,.132,.001,.267,.001,.394,.006,.179,.006,.349,.018,.517,.03,.117,.008,.237,.015,.349,.026,.166,.017,.322,.039,.477,.06,.101,.014,.206,.026,.302,.043,.156,.026,.301,.058,.446,.09,.083,.018,.171,.034,.251,.053,.154,.038,.295,.081,.436,.124,.06,.018,.125,.034,.183,.053,.194,.064,.376,.132,.546,.204,1.818,.771,2.603,2.038,2.94,2.966,0,0,0,0,0,0l.067,.195c.004,.011,.007,.02,.01,.031H9.475c.043-.018,.09-.04,.133-.058Zm23.012-.158c.339-.932,1.125-2.205,2.949-2.976,.168-.071,.349-.139,.541-.202,.081-.027,.171-.049,.256-.074,.118-.035,.233-.071,.359-.102,.103-.025,.216-.046,.325-.069,.121-.025,.239-.052,.368-.074,.12-.02,.25-.036,.376-.053,.131-.018,.261-.037,.4-.051,.135-.014,.28-.022,.422-.032,.145-.01,.288-.02,.44-.026,.151-.005,.31-.006,.468-.007,.159,0,.318-.002,.484,.002,.167,.004,.341,.013,.516,.022,.174,.009,.35,.019,.533,.033,.182,.014,.372,.033,.563,.053,.191,.02,.386,.042,.586,.068,.2,.026,.405,.056,.614,.088,.208,.032,.421,.067,.638,.106,.217,.038,.439,.08,.665,.125,.228,.045,.461,.095,.698,.148,.234,.052,.47,.106,.713,.164,.249,.06,.506,.127,.765,.195,.251,.066,.503,.133,.763,.206,.271,.077,.553,.161,.835,.246,.267,.081,.533,.161,.81,.249,.298,.095,.609,.201,.919,.306,.28,.095,.558,.187,.848,.29,.332,.118,.679,.248,1.023,.377,.289,.108,.573,.211,.871,.327,.38,.148,.779,.311,1.174,.472,.282,.115,.557,.223,.847,.344,.045,.019,.093,.041,.138,.06h-21.972c.022-.073,.039-.142,.066-.215ZM19.018,15.524c-.339-.062-.58-.456-.517-.843l.551-3.337c.033-.198,.136-.367,.289-.474,.132-.093,.289-.127,.446-.095l2.471,.453c.227,.037,.442-.075,.535-.279,.201-.436,.395-.795,.594-1.098,.115-.176,.107-.407-.023-.573l-1.613-2.067c-.242-.294-.206-.764,.077-1.023l2.416-2.169c.126-.116,.27-.185,.442-.16,.164,.013,.317,.101,.432,.249l1.614,2.058c.145,.185,.4,.239,.607,.136,.323-.161,.686-.304,1.081-.421,.209-.062,.352-.255,.352-.472V2.713c0-.402,.291-.728,.65-.728h3.149c.347,0,.629,.327,.629,.728v2.697c0,.22,.146,.413,.358,.474,.402,.113,.759,.251,1.096,.419,.21,.104,.464,.048,.608-.137l1.601-2.055c.118-.148,.274-.237,.438-.251,.157-.023,.316,.043,.452,.164l2.411,2.165c.286,.257,.323,.733,.077,1.044l-1.604,2.067c-.126,.162-.137,.387-.029,.562,.215,.345,.42,.725,.591,1.097,.095,.205,.314,.322,.538,.278l2.461-.462c.198-.04,.351,.031,.443,.094,.157,.108,.262,.283,.299,.487l.551,3.325c.063,.387-.178,.781-.52,.844l-2.47,.462c-.213,.039-.376,.214-.399,.431-.046,.425-.127,.827-.219,1.271-.041,.194,.044,.387,.205,.5-2.607,.091-5.122,.874-7.254,2.748-.011,.01-.022,.021-.034,.031-.225,.199-.444,.411-.66,.635-.043,.044-.089,.082-.132,.127-.203-.215-.418-.409-.632-.604-.061-.056-.119-.119-.181-.173-.36-.314-.737-.599-1.127-.86-.1-.067-.205-.125-.307-.189-.306-.19-.62-.365-.944-.524-.124-.061-.248-.122-.375-.178-.383-.17-.776-.321-1.182-.447-.051-.016-.1-.038-.152-.053-.461-.137-.939-.241-1.428-.323-.128-.022-.261-.035-.392-.053-.381-.052-.769-.088-1.167-.108-.148-.007-.294-.016-.444-.019-.101-.002-.198-.013-.3-.013-.275,0-.564,.027-.847,.042-.2,.01-.394,.012-.598,.029-.054,.005-.104,.003-.158,.008l.094-.059c.175-.11,.262-.317,.22-.519-.076-.359-.159-.79-.198-1.257-.018-.221-.182-.403-.4-.443l-2.474-.463ZM62.016,56.367c0,.689-.56,1.25-1.249,1.25h-24.082c-.253,0-.464,.191-.489,.443-.225,2.256-2.096,3.956-4.353,3.956s-4.119-1.701-4.353-3.958c-.026-.251-.237-.441-.489-.441H3.234c-.689,0-1.249-.561-1.249-1.25V24.747c0-.689,.56-1.249,1.249-1.249h4.864c-.035,.022-.064,.041-.098,.062-.212,.132-.415,.26-.603,.382-.006,.004-.012,.008-.018,.012-.218,.14-.417,.271-.601,.394-.012,.008-.023,.015-.035,.023-.172,.115-.328,.221-.468,.317-.009,.006-.018,.012-.026,.018-.143,.099-.275,.19-.38,.265-.331,.228-.562,.574-.656,.966-.032,.131-.048,.266-.048,.405v26.985c0,.869,.672,1.577,1.526,1.657,.027,.004,.051,.016,.078,.016H57.479c.128,0,.242-.052,.33-.132,.604-.254,1.028-.85,1.028-1.541V26.341c0-.554-.263-1.066-.7-1.367-.098-.07-.218-.154-.349-.244-.033-.023-.067-.046-.102-.07-.115-.079-.241-.164-.377-.256-.036-.024-.069-.047-.107-.072-.173-.116-.359-.238-.561-.368-.032-.02-.066-.042-.099-.063-.169-.109-.347-.221-.535-.338-.037-.023-.068-.043-.105-.066h4.864c.689,0,1.249,.56,1.249,1.249v31.62Z" class="color4d4d4d svgShape"></path>
</svg>
