<svg xmlns="http://www.w3.org/2000/svg" enable-background="new 0 0 492 492" viewBox="0 0 492 492" id="ProgressTracking">
  <path d="M169.58,209.26c-1.73,0-3.41-0.9-4.33-2.5c-1.38-2.39-0.56-5.45,1.83-6.83l44.9-25.92c1.55-0.89,3.45-0.89,5,0
			l35.95,20.76l45.49-26.26c2.39-1.38,5.45-0.56,6.83,1.83c1.38,2.39,0.56,5.45-1.83,6.83l-47.99,27.71c-1.55,0.89-3.45,0.89-5,0
			l-35.95-20.76l-42.4,24.48C171.29,209.04,170.43,209.26,169.58,209.26z" fill="#333999" class="color000000 svgShape"></path>
  <path d="M311.94 190.53c-4.1 0-7.8-2.12-9.91-5.77l-11.98-20.75c-2.38-4.12-2.06-9.02.84-12.79 2.89-3.77 7.55-5.35 12.13-4.12 0 0 0 0 0 0l16.37 4.39c2.97.8 5.46 2.71 7 5.38s1.95 5.78 1.16 8.75l-4.38 16.37c-1.23 4.59-4.92 7.83-9.63 8.45C312.99 190.5 312.46 190.53 311.94 190.53zM299.98 156.69c-.45 0-.84.2-1.15.61-.41.54-.45 1.11-.11 1.7l11.98 20.75c.34.59.86.84 1.53.75.67-.09 1.1-.47 1.28-1.12l4.39-16.37c.14-.53-.04-.95-.16-1.16-.12-.21-.4-.58-.93-.72l-16.37-4.39C300.28 156.72 300.12 156.69 299.98 156.69zM176.27 269.91h-17.92c-6.77 0-12.28-5.51-12.28-12.28v-20.62c0-6.77 5.51-12.28 12.28-12.28h17.92c6.77 0 12.28 5.51 12.28 12.28v20.62C188.55 264.4 183.04 269.91 176.27 269.91zM158.35 234.73c-1.24 0-2.28 1.04-2.28 2.28v20.62c0 1.24 1.04 2.28 2.28 2.28h17.92c1.24 0 2.28-1.04 2.28-2.28v-20.62c0-1.24-1.04-2.28-2.28-2.28H158.35zM176.27 338.44h-17.92c-6.77 0-12.28-5.51-12.28-12.28v-20.62c0-6.77 5.51-12.28 12.28-12.28h17.92c6.77 0 12.28 5.51 12.28 12.28v20.62C188.55 332.94 183.04 338.44 176.27 338.44zM158.35 303.27c-1.24 0-2.28 1.04-2.28 2.28v20.62c0 1.24 1.04 2.28 2.28 2.28h17.92c1.24 0 2.28-1.04 2.28-2.28v-20.62c0-1.24-1.04-2.28-2.28-2.28H158.35zM176.27 406.98h-17.92c-6.77 0-12.28-5.51-12.28-12.28v-20.62c0-6.77 5.51-12.28 12.28-12.28h17.92c6.77 0 12.28 5.51 12.28 12.28v20.62C188.55 401.47 183.04 406.98 176.27 406.98zM158.35 371.8c-1.24 0-2.28 1.04-2.28 2.28v20.62c0 1.24 1.04 2.28 2.28 2.28h17.92c1.24 0 2.28-1.04 2.28-2.28v-20.62c0-1.24-1.04-2.28-2.28-2.28H158.35zM341.45 264.92H207.06c-2.76 0-5-2.24-5-5s2.24-5 5-5h134.39c2.76 0 5 2.24 5 5S344.21 264.92 341.45 264.92zM307.29 239.72H207.06c-2.76 0-5-2.24-5-5s2.24-5 5-5h100.23c2.76 0 5 2.24 5 5S310.06 239.72 307.29 239.72zM268.66 333.46h-61.59c-2.76 0-5-2.24-5-5s2.24-5 5-5h61.59c2.76 0 5 2.24 5 5S271.42 333.46 268.66 333.46zM307.29 308.26H207.06c-2.76 0-5-2.24-5-5s2.24-5 5-5h100.23c2.76 0 5 2.24 5 5S310.06 308.26 307.29 308.26zM268.66 401.99h-61.59c-2.76 0-5-2.24-5-5s2.24-5 5-5h61.59c2.76 0 5 2.24 5 5S271.42 401.99 268.66 401.99zM293.39 376.79h-86.32c-2.76 0-5-2.24-5-5s2.24-5 5-5h86.32c2.76 0 5 2.24 5 5S296.15 376.79 293.39 376.79z" fill="#333999" class="color000000 svgShape"></path>
  <path d="M373.03,467.74H119.49c-15.91,0-28.86-12.95-28.86-28.86V114.79c0-15.91,12.95-28.86,28.86-28.86h50.14c2.76,0,5,2.24,5,5
			s-2.24,5-5,5h-50.14c-10.4,0-18.86,8.46-18.86,18.86v324.09c0,10.4,8.46,18.86,18.86,18.86h253.54c10.4,0,18.86-8.46,18.86-18.86
			V114.79c0-10.4-8.46-18.86-18.86-18.86h-50.14c-2.76,0-5-2.24-5-5s2.24-5,5-5h50.14c15.91,0,28.86,12.95,28.86,28.86v324.09
			C401.89,454.79,388.94,467.74,373.03,467.74z" fill="#333999" class="color000000 svgShape"></path>
  <path d="M363.29 434.14H129.23c-2.76 0-5-2.24-5-5V124.53c0-2.76 2.24-5 5-5h234.06c2.76 0 5 2.24 5 5v304.61C368.29 431.91 366.05 434.14 363.29 434.14zM134.23 424.14h224.06V129.53H134.23V424.14zM249.06 66.82h-33.88c-2.76 0-5-2.24-5-5s2.24-5 5-5h33.88c2.76 0 5 2.24 5 5S251.82 66.82 249.06 66.82z" fill="#333999" class="color000000 svgShape"></path>
  <path d="M322.97,129.53c-2.76,0-5-2.24-5-5V93.17c0-14.53-11.82-26.36-26.36-26.36h-14.28c-2.76,0-5-2.24-5-5
			c0-14.38-11.7-26.08-26.08-26.08s-26.08,11.7-26.08,26.08c0,2.76-2.24,5-5,5H200.9c-14.53,0-26.36,11.82-26.36,26.36v31.36
			c0,2.76-2.24,5-5,5s-5-2.24-5-5V93.17c0-20.05,16.31-36.36,36.36-36.36h9.62c2.44-17.54,17.54-31.08,35.73-31.08
			c18.2,0,33.29,13.54,35.73,31.08h9.63c20.05,0,36.36,16.31,36.36,36.36v31.36C327.97,127.29,325.73,129.53,322.97,129.53z" fill="#333999" class="color000000 svgShape"></path>
</svg>
