<svg xmlns="http://www.w3.org/2000/svg" xml:space="preserve" viewBox="0 0 128 128" id="Responsive">
  <path d="M24.3 15.1h13.3c.4 0 .8-.3.8-.8 0-.4-.3-.8-.8-.8H24.3c-.4 0-.8.3-.8.8.1.4.4.8.8.8zM15.7 15.1H20c.4 0 .8-.3.8-.8 0-.4-.3-.8-.8-.8h-4.3c-.4 0-.8.3-.8.8 0 .4.4.8.8.8zM15.7 19.6H25c.4 0 .8-.3.8-.8 0-.4-.3-.8-.8-.8h-9.3c-.4 0-.8.3-.8.8s.4.8.8.8zM28.9 18.1c-.4 0-.8.3-.8.8 0 .4.3.8.8.8h3c.4 0 .8-.3.8-.8 0-.4-.3-.8-.8-.8h-3zM104.7 112.9H91.4c-.4 0-.8.3-.8.8s.3.8.8.8h13.3c.4 0 .8-.3.8-.8s-.4-.8-.8-.8zM113.4 112.9h-4.3c-.4 0-.8.3-.8.8s.3.8.8.8h4.3c.4 0 .8-.3.8-.8s-.4-.8-.8-.8zM113.4 108.4h-9.3c-.4 0-.8.3-.8.8 0 .4.3.8.8.8h9.3c.4 0 .8-.3.8-.8-.1-.5-.4-.8-.8-.8zM100.1 109.9c.4 0 .8-.3.8-.8 0-.4-.3-.8-.8-.8h-3c-.4 0-.8.3-.8.8 0 .4.3.8.8.8h3zM30.9 107.4H17.7c-.4 0-.8.3-.8.8 0 .4.3.8.8.8H31c.4 0 .8-.3.8-.8-.1-.5-.4-.8-.9-.8zM9 108.9h4.3c.4 0 .8-.3.8-.8 0-.4-.3-.8-.8-.8H9c-.4 0-.8.3-.8.8 0 .4.4.8.8.8zM18.3 111.9H9c-.4 0-.8.3-.8.8 0 .4.3.8.8.8h9.3c.4 0 .8-.3.8-.8-.1-.4-.4-.8-.8-.8zM25.2 111.9h-3c-.4 0-.8.3-.8.8 0 .4.3.8.8.8h3c.4 0 .8-.3.8-.8 0-.4-.4-.8-.8-.8zM1.3 38.5c.4 0 .8-.3.8-.8V26.5c0-.4-.3-.8-.8-.8s-.8.3-.8.8v11.3c0 .4.3.7.8.7zM1.3 45.9c.4 0 .8-.3.8-.8v-3.7c0-.4-.3-.8-.8-.8s-.8.3-.8.8v3.7c0 .5.3.8.8.8zM114.3 36.7c.1.1.3.2.5.2s.4-.1.5-.2c.3-.3.3-.8 0-1.1l-1.5-1.5c-.3-.3-.8-.3-1.1 0-.3.3-.3.8 0 1.1l1.6 1.5zM119.1 41.4c.1.1.3.2.5.2s.4-.1.5-.2c.3-.3.3-.8 0-1.1l-1.5-1.5c-.3-.3-.8-.3-1.1 0-.3.3-.3.8 0 1.1l1.6 1.5zM113.4 41.7c.2 0 .4-.1.5-.2l1.5-1.5c.3-.3.3-.8 0-1.1-.3-.3-.8-.3-1.1 0l-1.5 1.5c-.3.3-.3.8 0 1.1.2.1.4.2.6.2zM118.2 36.9c.2 0 .4-.1.5-.2l1.5-1.5c.3-.3.3-.8 0-1.1-.3-.3-.8-.3-1.1 0l-1.5 1.5c-.3.3-.3.8 0 1.1.2.1.4.2.6.2zM26.7 94.8c.1.1.3.2.5.2s.4-.1.5-.2c.3-.3.3-.8 0-1.1l-1.5-1.5c-.3-.3-.8-.3-1.1 0-.3.3-.3.8 0 1.1l1.6 1.5zM31.1 97c-.3-.3-.8-.3-1.1 0-.3.3-.3.8 0 1.1l1.5 1.5c.1.1.3.2.5.2s.4-.1.5-.2c.3-.3.3-.8 0-1.1L31.1 97zM25.3 99.5c.1.1.3.2.5.2s.4-.1.5-.2l1.5-1.5c.3-.3.3-.8 0-1.1-.3-.3-.8-.3-1.1 0l-1.5 1.5c-.2.4-.2.9.1 1.1zM31.5 92.2 30 93.7c-.3.3-.3.8 0 1.1.1.1.3.2.5.2s.4-.1.5-.2l1.5-1.5c.3-.3.3-.8 0-1.1-.2-.3-.7-.3-1 0zM85.1 21.9c1.7 0 3-1.4 3-3 0-1.7-1.4-3-3-3-1.7 0-3 1.4-3 3s1.4 3 3 3zm0-4.5c.8 0 1.5.7 1.5 1.5s-.7 1.5-1.5 1.5-1.5-.7-1.5-1.5c0-.9.7-1.5 1.5-1.5zM64 106.1c-1.7 0-3 1.4-3 3 0 1.7 1.4 3 3 3 1.7 0 3-1.4 3-3s-1.3-3-3-3zm0 4.5c-.8 0-1.5-.7-1.5-1.5s.7-1.5 1.5-1.5 1.5.7 1.5 1.5c0 .9-.7 1.5-1.5 1.5zM73.9 54.3c-.1-.2-.4-.4-.7-.4h-6.9c-.3 0-.5.1-.6.3l-1.5 2.3H60c-.1-1.4-.4-2.8-.9-4.1-.2-.4-.3-.8-.5-1.1l6.3-6.3 1.4 1.4c.1.1.2.1.2.2.1 0 .2.1.3.1.1 0 .2 0 .3-.1.2-.1.3-.2.4-.4 0-.1.1-.2.1-.3v-7.6c0-.4-.3-.8-.8-.8h-7.6c-.1 0-.2 0-.3.1-.2.1-.3.2-.4.4-.1.2-.1.4 0 .6 0 .1.1.2.2.2l1.4 1.4-6.1 6.1c-.1.1-.1.1-.1.2-.4-.2-.9-.5-1.3-.7-.1 0-.2-.1-.3-.1-.4-.2-.9-.3-1.3-.4-1-.3-1.9-.4-3-.4-.5 0-.9 0-1.3.1-1.2.1-2.3.4-3.5.9-1.5.6-2.9 1.5-4.1 2.7-1.1 1.1-2 2.4-2.6 3.9-.6 1.5-.9 3-1 4.6 0 1.6.3 3.3.9 4.8.2.5.4.9.7 1.4l-5.9 5.9-1.4-1.4c-.1-.1-.2-.1-.2-.2-.2-.1-.4-.1-.6 0 0 0-.1 0-.1.1l-.1.1c-.1.1-.1.1-.1.2v.1c0 .1-.1.2-.1.3V76c0 .4.3.8.8.8H37c.1 0 .2 0 .3-.1.2-.1.3-.2.4-.4v-.5c0-.1-.1-.2-.2-.3l-1.4-1.4 6-6c.3.2.7.3 1 .5 1.1.5 2.3.8 3.6.9.3 0 .7.1 1.1.1h.3c1 0 2-.1 2.9-.4.4-.1.9-.3 1.3-.4.1 0 .1 0 .2-.1 1.5-.6 2.9-1.5 4.1-2.7 1.1-1.1 2-2.4 2.6-3.9.2-.4 0-.8-.4-1-.4-.2-.8 0-1 .4-.5 1.3-1.3 2.5-2.3 3.4-1 1-2.2 1.8-3.6 2.4h-.1c-.4.2-.8.3-1.2.4-.8.2-1.7.3-2.6.4h-.3c-.3 0-.6 0-.9-.1-1.1-.1-2.1-.4-3.1-.8-1.3-.5-2.4-1.3-3.4-2.3-1-1-1.8-2.2-2.4-3.6-.6-1.3-.8-2.8-.8-4.2 0-1.4.3-2.8.8-4.1.5-1.3 1.3-2.5 2.3-3.4 1-1 2.2-1.8 3.6-2.4 1-.4 2-.7 3.1-.8.4 0 .8-.1 1.2-.1.9 0 1.7.1 2.6.3.4.1.8.2 1.2.4.1 0 .2.1.2.1 1.3.5 2.5 1.3 3.4 2.3 1 1 1.8 2.2 2.4 3.6.5 1.1.7 2.3.8 3.6h-4.6c-.1-.6-.2-1.2-.4-1.8-.3-.6-.6-1.2-1-1.7-.1-.1-.2-.3-.4-.4-.3-.3-.7-.6-1.1-.8-.3-.2-.6-.3-.9-.5-.7-.3-1.5-.5-2.3-.5-.5 0-.9 0-1.3.1s-.7.2-1.1.3c-.8.3-1.5.8-2.1 1.4-.6.6-1 1.2-1.3 2-.3.7-.5 1.5-.5 2.3 0 .8.1 1.7.5 2.4.3.8.8 1.5 1.4 2.1.6.6 1.2 1 2 1.3.4.2.7.3 1.1.3h.1c.4.1.8.1 1.2.1h.2c.7 0 1.5-.2 2.2-.5.3-.1.7-.3 1-.5.4-.2.8-.5 1.1-.9.1-.1.2-.2.3-.4.3-.3.2-.8-.1-1.1-.3-.3-.8-.2-1.1.1l-.3.3c-.3.3-.5.5-.8.7-.2.1-.5.3-.7.4-.5.2-1.1.3-1.7.4H48c-.3 0-.6 0-.9-.1-.3-.1-.6-.1-.9-.3-.6-.2-1.1-.6-1.5-1-.4-.4-.8-1-1-1.6-.2-.6-.4-1.2-.4-1.8 0-.6.1-1.2.4-1.8.2-.6.6-1.1 1-1.5.4-.5 1-.8 1.6-1 .3-.1.5-.2.8-.3.3-.1.7-.1 1.1-.1.6 0 1.2.1 1.7.4.2.1.5.2.7.4.3.2.6.4.8.6l.3.3c.3.4.6.8.8 1.3.2.4.2.8.3 1.3h-4.9c-.4 0-.8.3-.8.8 0 .4.3.8.8.8h16.7l1.5 2.3c.1.2.4.3.6.3h6.9c.3 0 .5-.2.7-.4.1-.2.1-.5 0-.8l-1.5-2.2 1.5-2.2c-.2-.2-.2-.5-.4-.8zM37.8 64.4c.4.5.7 1 1.2 1.4.5.5 1 .9 1.6 1.3l-6.3 6.3c-.2.2-.3.5-.2.8 0 .1.1.2.2.3l.6.6h-5v-5l.6.6c.1.1.3.2.5.2s.4-.1.5-.2l6.3-6.3zM57.7 50c-.4-.6-.9-1.1-1.4-1.6-.4-.4-.9-.8-1.3-1.1l6.5-6.5c.3-.3.3-.8 0-1.1l-.6-.7h5v5l-.6-.6c-.3-.3-.8-.3-1.1 0L57.7 50zm13.2 7.7 1 1.5h-5.1l-1.3-1.9 1.3-1.9h5.1l-1 1.5c-.2.2-.2.6 0 .8z" fill="#333999" class="color000000 svgShape"></path>
  <path d="M125.1 53.4h-21.9V29.8c0-2.3-1.8-4.1-4.1-4.1H11.5c-2.3 0-4.1 1.8-4.1 4.1V70H1.3c-.4 0-.8.3-.8.8V103c0 .4.3.8.8.8h18.4c.4 0 .8-.3.8-.8V88.4h25.2v6.4l-5.8 7.2c-.2.2-.2.5-.1.8.1.3.4.4.7.4h29.9c.3 0 .6-.2.7-.4.1-.3.1-.6-.1-.8l-6-7.2v-6.4h23.4v12.5c0 1.3 1.1 2.4 2.4 2.4h34.3c1.3 0 2.4-1.1 2.4-2.4V55.8c0-1.3-1.1-2.4-2.4-2.4zM8.9 29.8c0-1.4 1.2-2.6 2.6-2.6H99c1.4 0 2.6 1.2 2.6 2.6v23.6h-2.2v-23c0-.5-.4-.9-.9-.9H12.1c-.5 0-.9.4-.9.9V70H8.9V29.8zm10 72.4H2v-5.3h16.9v5.3zm0-18.3v11.5H2V76.7h16.9v7.2zm0-8.7H2v-3.7h16.9v3.7zm49.8 26.5H41.9l4.8-5.9h17.2l4.8 5.9zm-21.6-7.4v-5.9h16.4v5.9H47.1zm41.3-7.4h-68v-2.2h68v2.2zm0-31.1v27.4h-68V70.8c0-.4-.3-.8-.8-.8h-7V31h85.3v22.5h-7.1c-1.3-.1-2.4 1-2.4 2.3zm37.6 45.1c0 .5-.4.9-.9.9H90.8c-.5 0-.9-.4-.9-.9V55.8c0-.5.4-.9.9-.9h34.3c.5 0 .9.4.9.9v45.1z" fill="#333999" class="color000000 svgShape"></path>
  <path d="M123 57.1H92.9c-.4 0-.8.3-.8.8v38c0 .4.3.8.8.8H123c.4 0 .8-.3.8-.8v-38c0-.5-.4-.8-.8-.8zm-.7 38H93.6V58.6h28.7v36.5zM111.1 98.4h-6.4c-.4 0-.8.3-.8.8 0 .4.3.8.8.8h6.4c.4 0 .8-.3.8-.8s-.4-.8-.8-.8zM11.1 72.6H9.7c-.4 0-.8.3-.8.8 0 .4.3.8.8.8h1.4c.4 0 .8-.3.8-.8s-.3-.8-.8-.8zM7.5 100.4h5.9c.4 0 .8-.3.8-.8 0-.4-.3-.8-.8-.8H7.5c-.4 0-.8.3-.8.8 0 .4.4.8.8.8z" fill="#333999" class="color000000 svgShape"></path>
</svg>
