<svg xmlns="http://www.w3.org/2000/svg" enable-background="new 0 0 66 66" viewBox="0 0 66 66" id="Review">
  <path d="M61.5,1h-57C2.6,1,1,2.6,1,4.5V44c0,1.9,1.6,3.5,3.5,3.5H10v15.1c0,2.2,2.6,3.3,4.1,1.7l16.6-16.8h30.8
		c1.9,0,3.5-1.6,3.5-3.5V4.5C65,2.6,63.4,1,61.5,1z M63.1,44c0,0.9-0.7,1.6-1.6,1.6H30.3c-0.3,0-0.5,0.1-0.7,0.3L12.7,62.9
		c-0.3,0.3-0.8,0.1-0.8-0.4v-16c0-0.5-0.4-1-1-1H4.5c-0.9,0-1.6-0.7-1.6-1.6V4.5c0-0.9,0.7-1.6,1.6-1.6h57c0.9,0,1.6,0.7,1.6,1.6V44
		z" fill="#333999" class="color000000 svgShape"></path>
  <path d="M10.6 17l-.7 4.2c-.1.4.1.7.4.9.3.2.7.2 1 .1l3.7-2 3.7 2c.3.2.7.1 1-.1.3-.2.5-.6.4-.9L19.4 17l3-3c.3-.3.4-.6.2-1-.1-.3-.4-.6-.8-.7l-4.1-.6-1.9-3.8c-.3-.7-1.4-.7-1.7 0l-1.9 3.8-4.1.6c-.4.1-.7.3-.8.7-.1.3 0 .7.2 1L10.6 17zM13.1 13.6c.3 0 .6-.2.7-.5l1.2-2.5 1.2 2.5c.1.3.4.5.7.5l2.7.4-2 2c-.2.2-.3.5-.3.9l.5 2.7-2.4-1.3c-.1-.1-.3-.1-.5-.1-.2 0-.3 0-.5.1l-2.4 1.3.5-2.7c.1-.3-.1-.6-.3-.9l-2-2L13.1 13.6zM28.6 17l-.7 4.2c-.1.4.1.7.4.9.3.2.7.2 1 .1l3.7-2 3.7 2c.3.2.7.1 1-.1.3-.2.5-.6.4-.9L37.4 17l3-3c.3-.3.4-.6.2-1-.1-.3-.4-.6-.8-.7l-4.1-.6-1.9-3.8c-.2-.3-.5-.5-.9-.5-.4 0-.7.2-.9.5l-1.9 3.8-4.1.6c-.4.1-.7.3-.8.7-.1.3 0 .7.2 1L28.6 17zM31.1 13.6c.3 0 .6-.2.7-.5l1.2-2.5 1.2 2.5c.1.3.4.5.7.5l2.7.4-2 2c-.2.2-.3.5-.3.9l.5 2.7-2.4-1.3c-.3-.2-.6-.2-.9 0l-2.4 1.3.5-2.7c.1-.3-.1-.6-.3-.9l-2-2L31.1 13.6zM46.6 17l-.7 4.2c-.1.4.1.7.4.9.3.2.7.2 1 .1l3.7-2 3.7 2c.3.2.7.1 1-.1.3-.2.5-.6.4-.9L55.4 17l3-3c.3-.3.4-.6.2-1-.1-.3-.4-.6-.8-.7l-4.1-.6-1.9-3.8c-.3-.7-1.4-.7-1.7 0l-1.9 3.8-4.1.6c-.4.1-.7.3-.8.7-.1.3 0 .7.2 1L46.6 17zM49.1 13.6c.3 0 .6-.2.7-.5l1.2-2.5 1.2 2.5c.1.3.4.5.7.5l2.7.4-2 2c-.2.2-.3.5-.3.9l.5 2.7-2.4-1.3c-.1-.1-.3-.1-.5-.1s-.3 0-.5.1l-2.4 1.3.5-2.7c.1-.3-.1-.6-.3-.9l-2-2L49.1 13.6zM57.7 39.2H33c-.5 0-1 .4-1 1s.4 1 1 1h24.7c.5 0 1-.4 1-1S58.3 39.2 57.7 39.2zM57.7 33H8.3c-.5 0-1 .4-1 1s.4 1 1 1h49.5c.5 0 1-.4 1-1S58.3 33 57.7 33zM57.7 26.7H8.3c-.5 0-1 .4-1 1s.4 1 1 1h49.5c.5 0 1-.4 1-1S58.3 26.7 57.7 26.7z" fill="#333999" class="color000000 svgShape"></path>
</svg>
