<svg xmlns="http://www.w3.org/2000/svg" id="study" enable-background="new 0 0 64 64" viewBox="0 0 64 64">
  <path fill="#333999" d="M59 58h-6.5l1.25-21.9000244c.0200195-.3399658-.1099854-.6799927-.3400269-.9299927-.2399902-.25-.5699463-.3899536-.9199829-.3899536h-2.8699951c-2.8200073-4.7700195-8-7.9800415-13.9299927-7.9800415h-7.3800049c-5.9299927 0-11.1099854 3.210022-13.9299927 7.9800415h-2.8699951c-.3500366 0-.6799927.1399536-.9199829.3899536-.2300415.25-.3600464.5900269-.3400269.9400024L11.5 58H5c-.5499878 0-1 .4500122-1 1s.4500122 1 1 1h54c.5499878 0 1-.4500122 1-1S59.5499878 58 59 58zM28.3099976 28.7999878h7.3800049c4.7700195 0 8.9799805 2.3699951 11.5499878 5.9800415H16.7600098C19.3300171 31.1699829 23.539978 28.7999878 28.3099976 28.7999878zM50.5 58h-37l-1.210022-21.2199707H51.710022L50.5 58zM32 4c-5.710022 0-10.3499756 4.6799927-10.3499756 10.4199829 0 5.75 4.6399536 10.4200439 10.3499756 10.4200439s10.3499756-4.6700439 10.3499756-10.4200439C42.3499756 8.6799927 37.710022 4 32 4zM32 22.8400269c-4.5999756 0-8.3499756-3.7800293-8.3499756-8.4200439C23.6500244 9.7800293 27.4000244 6 32 6s8.3499756 3.7800293 8.3499756 8.4199829C40.3499756 19.0599976 36.5999756 22.8400269 32 22.8400269z" class="color58595b svgShape"></path>
  <path fill="#333999" d="M32,43.0499878c-3.5800171,0-6.3900146,1.9100342-6.3900146,4.3400269
		c0,2.4400024,2.8099976,4.3399658,6.3900146,4.3399658s6.3900146-1.8999634,6.3900146-4.3399658
		C38.3900146,44.960022,35.5800171,43.0499878,32,43.0499878z M32,49.7299805c-2.5900269,0-4.3900146-1.2299805-4.3900146-2.3399658
		S29.4099731,45.0499878,32,45.0499878s4.3900146,1.2300415,4.3900146,2.3400269S34.5900269,49.7299805,32,49.7299805z" class="color58595b svgShape"></path>
</svg>
