<svg xmlns="http://www.w3.org/2000/svg" viewBox="0 0 64 64" id="Verification">
  <path d="M60.35,42.74a4.83,4.83,0,0,0-5.66-1.88l-16.43,5.4a4.11,4.11,0,0,0,.05-1.4A4.34,4.34,0,0,0,36.51,42l-5.32-3.68a1,1,0,0,0-1.39.25,1,1,0,0,0,.25,1.4l5.32,3.68a2.3,2.3,0,0,1,.49,3.31,2.3,2.3,0,0,1-3,.53l-7.53-4.52a1,1,0,0,0-1.38.35,1,1,0,0,0,.35,1.37l7.53,4.52a4.25,4.25,0,0,0,2.2.61,4.33,4.33,0,0,0,2.74-1,1.1,1.1,0,0,0,.35-.05l18.2-6a2.85,2.85,0,0,1,3.73,3.35,2.79,2.79,0,0,1-1.32,1.77l-6.44,2.76a1,1,0,0,0,.39,1.92.92.92,0,0,0,.4-.08l6.53-2.8a4.84,4.84,0,0,0,1.71-6.93Z" fill="#333999" class="color000000 svgShape"></path>
  <path d="M48.63 51.79l-.71.3a1 1 0 0 0 .4 1.92 1.09 1.09 0 0 0 .39-.08l.71-.3a1 1 0 0 0 .52-1.32A1 1 0 0 0 48.63 51.79zM44.88 53.39L41 55.08a17.61 17.61 0 0 1-12.5.52l-8.86-3A1 1 0 0 0 19 54.54l8.85 3a19.42 19.42 0 0 0 6.21 1 19.71 19.71 0 0 0 7.72-1.58l3.93-1.69a1 1 0 0 0 .52-1.31A1 1 0 0 0 44.88 53.39zM16.86 51.74l-2.7-.91a1.12 1.12 0 0 0-.31 0l-4 0v-8l4 .06h0a1 1 0 0 0 .71-.29l4-4a5.72 5.72 0 0 1 4-1.67h1.12a5.67 5.67 0 0 1 3.26 1l.73.5a1 1 0 1 0 1.13-1.64l-.73-.51a7.71 7.71 0 0 0-4.39-1.37H22.62A7.65 7.65 0 0 0 17.17 37l-3.74 3.74-3.59-.06V38.78a1 1 0 0 0-1-1h-5a1 1 0 0 0 0 2h4v13h-4a1 1 0 0 0 0 2h5a1 1 0 0 0 1-1v-1l3.84 0 2.55.85a.89.89 0 0 0 .32 0 1 1 0 0 0 .31-1.94zM28.11 21.42l2.12 1.12a1.11 1.11 0 0 0 .46.11 1 1 0 0 0 .47-1.88l-2.11-1.12a.36.36 0 0 1-.2-.41.35.35 0 0 1 .32-.31l2.38-.33a3.75 3.75 0 0 0 2.95-5.12l-.9-2.22a.37.37 0 0 1 .11-.44.38.38 0 0 1 .45 0l2 1.28a3.75 3.75 0 0 0 5-1A1 1 0 0 0 41 9.72a1 1 0 0 0-1.4.21 1.74 1.74 0 0 1-2.33.44l-2-1.27A2.38 2.38 0 0 0 31.75 12l.9 2.22a1.75 1.75 0 0 1-1.38 2.38L28.9 17a2.39 2.39 0 0 0-.79 4.47zM52 30.45a1 1 0 0 0 .42-2 3.76 3.76 0 0 0-4.53 3.8l.09 2.4a.38.38 0 0 1-.68.25L45.8 33.05a3.74 3.74 0 0 0-5.91 0l-1.47 1.89a.36.36 0 0 1-.44.12.35.35 0 0 1-.25-.37l.09-2.4a3.76 3.76 0 0 0-4.53-3.8L31 29a.37.37 0 0 1-.41-.19.34.34 0 0 1 0-.44l1.61-1.78a1 1 0 0 0-.07-1.42 1 1 0 0 0-1.41.08L29.1 27A2.38 2.38 0 0 0 31.37 31l2.34-.5a1.74 1.74 0 0 1 2.11 1.77l-.09 2.39A2.39 2.39 0 0 0 40 36.17l1.47-1.9a1.81 1.81 0 0 1 2.76 0l1.47 1.9a2.38 2.38 0 0 0 1.86.92 2.48 2.48 0 0 0 .84-.15A2.34 2.34 0 0 0 50 34.61l-.09-2.39A1.74 1.74 0 0 1 52 30.45zM41.22 8.41a1 1 0 0 0 1.26-.64.36.36 0 0 1 .36-.27.37.37 0 0 1 .37.27l.73 2.28a3.74 3.74 0 0 0 5.56 2l2-1.28a.38.38 0 0 1 .45 0 .37.37 0 0 1 .11.44l-.9 2.22a3.75 3.75 0 0 0 3 5.12l2.37.33a.34.34 0 0 1 .32.31.37.37 0 0 1-.19.41l-2.12 1.12a3.74 3.74 0 0 0-1 5.82l1.61 1.78a.35.35 0 0 1 .1.3A.43.43 0 0 1 55 29a1 1 0 0 0-.38 1.36 1 1 0 0 0 .87.51 1.07 1.07 0 0 0 .49-.12A2.47 2.47 0 0 0 57.17 29a2.38 2.38 0 0 0-.59-2L55 25.25a1.74 1.74 0 0 1 .47-2.71l2.12-1.12A2.39 2.39 0 0 0 56.78 17l-2.37-.33A1.75 1.75 0 0 1 53 14.24L53.94 12A2.39 2.39 0 0 0 50.46 9.1l-2 1.27a1.74 1.74 0 0 1-1.52.17 1.76 1.76 0 0 1-1.07-1.11l-.73-2.28A2.34 2.34 0 0 0 42.84 5.5h0a2.36 2.36 0 0 0-2.27 1.65A1 1 0 0 0 41.22 8.41z" fill="#333999" class="color000000 svgShape"></path>
  <path d="M41.59,25.54a1,1,0,0,0,.71-.29l6.5-6.5a1,1,0,0,0,0-1.41,1,1,0,0,0-1.42,0l-5.79,5.79L38.3,19.84a1,1,0,0,0-1.42,0,1,1,0,0,0,0,1.41l4,4A1,1,0,0,0,41.59,25.54Z" fill="#333999" class="color000000 svgShape"></path>
</svg>
