<svg xmlns="http://www.w3.org/2000/svg" viewBox="0 0 68 68" id="VerifiedSecurity">
  <path d="M11.8 53.5c0 8.9 13.2 13 22.1 13 9.2 0 22.3-4.3 22.3-13.1V49c0-4.5-3.6-7.8-7.7-9.8 4.9-8 6.4-16.2 5.9-20.7-.4-3.5-.9-7.7-1.6-13.5 0-.4-.2-.8-.5-1l-4.2-2.4c-.3-.2-.6-.1-.9.1-1.2.7-8.1 7.8-12.9 5l-.3-.1c-.8-.5-1.5.2-1.9 1.1-2.6 4.8-7.2 8.7-12.6 10.1-1.1.3-1.5.9-1.6 2.1l-.4 3.9c-.3 3.2-.6 6.4-.9 9.5-.3 2.9-.2 5.4.2 7.6-3.2 2.3-5 5.2-5 8.2v4.4zm7.8 8.8v-3.2c4.1 2 9.2 3.1 14.3 3.1 5.4 0 11.3-1.2 16-4v3.2c-7.5 5-21.5 5.5-30.3.9zm33.8-43.7c.9 7.6-3.4 17.3-8.2 23.7-2.4 3.3-5 6.7-7.4 10-.2.3-.5.6-.8.6-2.6-.5-5.2-.9-7.7-1.5-1.2-.3-2.1-.7-3-1.3-4.5-2.9-5-9-4.6-14.3.1-1.3 1.3-13.3 1.4-13.8.1-.3.1-.5.4-.7.6-.3 8.7-1.8 13.7-10.8.3-.5.4-.6.6-.7l.2.1c.8.5 1.6.7 2.5.8 5 .4 10.3-5 11.4-5.7-.1.2 1.1 10.4 1.5 13.6zM44.1 5.4l3.2 1.9c-1.8 1.2-4.3 2.5-6.5 2.5-1.8 0-2.5-.8-3.7-1.4 2.3-.2 5-1.6 7-3zM33 8.1c.1-.2.2-.4.3-.5l3.3 1.9c-.6.9-3 6.2-9.3 9.3-.7-.4-3.3-1.9-3.2-1.8 3.3-1.8 6.7-4.8 8.9-8.9zM17.5 33.4c.3-2.9.6-5.8.9-8.8l3.3 1.9c-.3 3.1-.6 6.2-.9 9.2-.2 2-.2 4.4.1 6.5-.1-.1-3.3-1.9-3.1-1.8-.5-2-.5-4.3-.3-7zm-.5 8.5c.8 3.1 2.4 5.4 4.8 6.8l4 2.3c.9.6 2 1 3.2 1.3 2.5.6 5.2 1 7.8 1.5.8.1 1.3-.3 1.8-1 2.5-3.4 4.9-6.6 7.4-10 .7-1 1.4-1.9 2-2.9 3.7 1.9 7.2 4.9 7.2 9 0 3.2-2.2 6.2-6.1 8.5-13.4 7.7-36.3 2.2-36.3-8.4 0-2.5 1.5-5 4.2-7.1z" fill="#333999" class="color000000 svgShape"></path>
  <path d="M48.5 55.1c.9-.6 1.7-1.3 2.4-2.1.1-.2.1-.4 0-.5-.2-.1-.4-.1-.5 0-.6.7-1.4 1.3-2.2 1.9-.2.1-.2.4-.1.5 0 .3.2.3.4.2zm2.9-4.1c-.1.2 0 .4.2.5.2.1.4 0 .5-.2 1.1-2.2.9-4.6-.9-6.9-.1-.2-.4-.2-.5-.1-.2.1-.2.4-.1.5 1.5 2 1.9 4.1.8 6.2zm-1-32.1-.9-7.5c0-.2-.1-.3-.3-.4-.2-.1-.3-.1-.5 0-.3.2-.5.3-.8.5-3.3 1.9-6.1 2.5-8.8 2.1-.2 0-.4 0-.5.2-1.4 2.1-3.1 4-5 5.6-2.2 1.9-4.7 3.3-7.4 4.2-.2.1-.3.2-.3.4l-.2 2.3c-.3 3.3-.7 6.5-1 9.7-1 10.8 3.6 12 5.3 12.4 1.6.4 3.4.7 5.7 1.1h.1c.2 0 .3-.1.4-.2 2.2-3 4.4-5.9 6.6-8.9 6.1-8.2 8.1-16.8 7.6-21.5zm-8.4 21c-2.2 3-4 5.4-6.4 8.6-2-.3-3.8-.6-5.4-1-1.5-.4-5.5-1.4-4.6-11.3.3-3.2.6-6.5 1-9.7l.2-2c2.7-.9 5.1-2.3 7.5-4.3 1.9-1.6 3.6-3.5 5-5.5 2.8.4 5.8-.3 9.1-2.2.1 0 .1-.1.2-.1.3 2.2.5 4.5.8 6.7.8 6.5-3.4 15.4-7.4 20.8z" fill="#333999" class="color000000 svgShape"></path>
  <path d="M39.4 21.5c-1 0-2.2.2-3.2.9-3.6 2.2-6.4 7-6.4 11 0 4.8 4 7.1 8.2 4.6 3.6-2.1 6.3-6.8 6.3-10.9-.2-3.1-1.8-5.6-4.9-5.6zm1.6 4.6-4.8 8.2c-.1.2-.5.3-.7.2L33 33.1c-.2-.1-.3-.4-.2-.7.1-.2.4-.3.7-.2l2.1 1.2 4.5-7.8c.1-.2.4-.3.7-.2.3.2.4.5.2.7z" fill="#333999" class="color000000 svgShape"></path>
</svg>
