<svg xmlns="http://www.w3.org/2000/svg" id="Worldwide" viewBox="0 0 79.07 79.07">
  <g fill="#333999" class="color000000 svgShape">
    <path d="M31.87,46.02c-3.53-4.06-5.48-9.27-5.48-14.68,0-12.36,10.05-22.41,22.41-22.41s22.42,10.05,22.42,22.41c0,4.61-1.38,9.03-4,12.78l-1.64-1.14c2.38-3.42,3.64-7.44,3.64-11.64,0-11.25-9.16-20.41-20.42-20.41s-20.41,9.16-20.41,20.41c0,4.92,1.77,9.67,4.98,13.36l-1.51,1.31Z" fill="#333999" class="color000000 svgShape"></path>
    <path d="M61.97 39.02c-.2 0-.38-.01-.54-.02-1.21-.08-2.87-.18-4.12-1.22l-.16-.14c-.06-.05-.14-.12-.19-.16-.03 0-.05.02-.08.03-.21.07-.5.16-.86.14-.74-.05-1.39-.62-1.62-1.42-.12-.41-.12-.8-.11-1.11v-.22c0-.3-.06-.38-.06-.38-.09-.07-.52-.09-.75-.11-1.13-.06-1.87-.45-2.23-1.16-.3-.58-.26-1.27.09-1.82t0 0c.77-1.18 2.35-1.96 4.21-2.07.57-.04 2.52-.07 3.4.97.16.19.56.31.89.41.84.26 1.38 1.24 1.99 2.37.25.47.67 1.23.9 1.44.26.08.56.18.86.38.6.4.97 1.11.97 1.83 0 .73-.38 1.43-.98 1.83-.52.35-1.1.42-1.6.42Zm-4.97-3.56s.05 0 .08 0c.65.03 1.09.42 1.39.67l.12.11c.69.58 1.76.69 2.97.76.27.02.73.05.9-.07.05-.03.09-.11.09-.17s-.04-.14-.09-.17c-.08-.05-.24-.1-.39-.15-.84-.26-1.38-1.24-1.99-2.37-.25-.47-.67-1.23-.9-1.44-.51-.16-1.25-.4-1.76-1.01-.13-.12-.94-.38-2.09-.24-.96.12-1.76.47-2.19.97.09.02.22.04.42.05.63.03 1.55.09 2.17.8.52.6.54 1.39.54 1.65v.27c0 .18 0 .34.02.47.18-.06.42-.13.7-.13Zm5.76-.88h0Zm-.1-.05h0Zm-9.64-2.01h0ZM48.51 46.86c-.6 0-1.16-.06-1.65-.11-.6-.06-1.7-.18-2.38-1.03-.4-.51-.5-1.08-.58-1.55l-.05-.26c-.24-1.22-1.15-2.27-2.32-2.7l-.27-.09c-.29-.09-.63-.2-.96-.4-.69-.41-1.1-1.1-1.09-1.8h0c.02-.81.54-1.32.89-1.65l.13-.12c.21-.21.35-.43.51-.72.83-1.47 2.38-1.3 2.97-1.24 2.55.27 5 .63 7.03 2.03.18.12.73.5.8 1.2 0 .01 0 .03 0 .04.09-.01.19-.02.28-.01.33.02 1.15.18 1.48 1.41.33 1.23.36 2.44.06 3.5-.36 1.29-1.19 2.36-2.27 2.94-.83.44-1.74.56-2.59.56Zm-7.25-7.91s.04.03.06.05c.14.08.34.15.56.22.11.04.23.07.34.11 1.81.66 3.23 2.3 3.6 4.19l.06.32c.04.25.09.54.18.65.15.19.75.25 1.01.28 1.22.13 2.3.2 3.1-.23.6-.32 1.08-.95 1.29-1.71.15-.53.17-1.14.08-1.78-.03.03-.07.06-.11.09-.63.46-1.53.4-2.11-.12-.57-.53-.69-1.43-.29-2.09.06-.11.14-.2.21-.28-1.63-.95-3.57-1.23-5.74-1.46-.83-.09-.91.06-1.01.23-.21.37-.45.76-.83 1.15l-.16.16c-.07.07-.17.17-.23.24Z" fill="#333999" class="color000000 svgShape"></path>
    <path d="M41.86 33.33c-.59 0-1.12-.35-1.35-.91l-.1-.25c-.56-1.37-1.09-2.67-1.04-4.19.02-1.11.95-2.07 2.07-2.13.07 0 .13-.04.16-.09l1.74-2.75s.07-.12.11-.18c-.05-.07-.13-.15-.17-.19-.24-.27-.7-.76-.71-1.46 0-.08 0-.16.01-.24l-2.29.62c-.82.22-1.67-.05-2.22-.69-.55-.65-.67-1.53-.31-2.31l1.22-2.62c.12-.25.17-.41.19-.5-.08 0-.21 0-.38.05l-.14.04c-.54.14-1.29.33-2.04-.01-.53-.23-.87-.81-1.07-1.25-.19-.43-.05-.94.34-1.22 3.79-2.68 8.26-4.1 12.93-4.1 9.22 0 17.39 5.53 20.82 14.09.19.49-.02 1.04-.49 1.27-.48.24-.99.37-1.49.4-.21 0-.43 0-.64 0-.25 0-.73-.03-.81.06-.07.07-.12.36-.16.56-.06.31-.13.66-.29 1.01-.5 1.11-1.7 1.73-3.55 1.84-1.13.07-2.44.05-3.54-.65-.58-.36-1.04-.94-1.29-1.6l-.51.32c-1.01.63-2.05 1.28-3.26 1.64-1.25.38-2.46.36-3.49-.03-1.3.81-2.76 1.22-4.06 1.58-1.11.32-2.38 1.51-2.68 2.51-.04.15-.1.31-.16.47-.22.55-.74.91-1.34.92h-.01Zm-.51-1.66s0 0 0 0c0 0 0 0 0 0Zm3.5-10.27c.25.29.59.72.62 1.31.03.62-.27 1.09-.45 1.37l-1.75 2.76c-.38.59-1.02.96-1.71 1.01-.11 0-.2.1-.2.18-.02.8.2 1.57.5 2.4.76-1.32 2.19-2.5 3.61-2.91 1.33-.38 2.82-.8 3.95-1.62.32-.23.74-.25 1.08-.06.65.37 1.56.42 2.51.13.96-.29 1.84-.84 2.78-1.42l.71-.45c.48-.3 1.06-.36 1.59-.16.54.2.96.66 1.12 1.22.08.27.27.53.5.67.62.39 1.54.39 2.35.34 1.03-.06 1.68-.3 1.86-.69.06-.14.1-.34.14-.55.09-.47.21-1.1.72-1.6.69-.69 1.61-.66 2.29-.64.08 0 .15 0 .23 0-3.35-7.18-10.49-11.76-18.5-11.76-3.47 0-6.83.86-9.82 2.5 1.03-.06 1.56.41 1.81.74.75.99.2 2.17-.01 2.61l-1.22 2.61s-.04.09.03.17c.07.08.14.06.17.05l2.72-.74c.39-.1 1.04-.28 1.69-.03.48.18.87.61 1.02 1.12.13.46.04.94-.24 1.3-.03.04-.07.08-.11.12Zm12.45 4.33h0ZM30.84 41.09c-.43 0-.86-.09-1.29-.27-.45-.19-.89-.48-1.35-.88-.12-.1-.21-.24-.27-.38-1.03-2.62-1.55-5.38-1.55-8.21 0-1.07.08-2.15.23-3.21.04-.28.2-.54.44-.69.24-.16.54-.21.81-.13 1.24.34 3.01 1.02 4.06 2.97.49.9.69 1.88.86 2.88.08.5.08.96.08 1.37 0 .72 0 1.29.4 1.98.71 1.19.43 2.95-.63 3.91 0 0 0 0 0 0-.48.43-1.12.66-1.8.66Zm1.13-1.4h0Zm-2.26-1.09c.22.17.42.3.62.38.36.16.77.14.96-.03.36-.33.49-1.03.26-1.41-.69-1.17-.69-2.2-.68-3.02 0-.36 0-.7-.05-1.03-.15-.85-.29-1.61-.64-2.25-.39-.71-.93-1.22-1.72-1.59-.05.57-.07 1.14-.07 1.7 0 2.49.44 4.93 1.32 7.24Z" fill="#333999" class="color000000 svgShape"></path>
  </g>
  <g fill="#333999" class="color000000 svgShape">
    <path d="M47.17,66.4c-2.46,0-7.36-1.42-14.51-3.73-1.17-.38-2.18-.71-2.44-.77-.64-.15-2.92,.59-4.66,1.37-.44,.19-.95,.05-1.22-.33l-8.3-11.66c-.28-.4-.24-.95,.11-1.29,9.33-9.2,18.9-5.31,22.99-3.65l.47,.19c3.81,1.53,6.76,2.71,13.34,2.24,3.17-.24,4.77-.1,5.69,.24,1.2-1.05,4.17-3.66,6.3-5.59,1.07-.97,2.21-1.45,3.4-1.36,1.74,.1,2.85,1.31,2.97,1.45,.24,.28,.31,.67,.18,1.01-.1,.26-2.45,6.36-7.41,11.27-4.82,4.76-13.1,9.22-15.62,10.41-.3,.14-.73,.21-1.27,.21Zm-17.11-6.51c.22,0,.42,.02,.6,.06,.33,.07,1.08,.32,2.61,.81,3.17,1.03,12.83,4.15,14.32,3.61,2.43-1.15,10.43-5.46,15.05-10.02,3.74-3.7,5.95-8.25,6.68-9.91-.17-.11-.38-.22-.62-.3-.8-.26-1.6-.01-2.44,.75-2.72,2.47-6.81,6.05-6.85,6.08-.38,.34-.96,.33-1.34-.02-.1-.09-.81-.51-5-.2-7.04,.5-10.33-.82-14.14-2.34l-.56-.23c-3.94-1.6-12.03-4.89-20.22,2.63l7.33,10.3c1.21-.5,3.22-1.23,4.57-1.23Z" fill="#333999" class="color000000 svgShape"></path>
    <path d="M41.92 57.11c-.54 0-.99-.43-1-.98-.01-.55.43-1.01.98-1.02.09 0 9.14-.18 12.69-.43 3.33-.23 3.43-2.71 3.43-2.99 0-.14 0-.28.02-.42 0-.12.02-.31 0-.37-.4-.38-.41-.98-.04-1.39.38-.4 1.03-.4 1.43-.02.68.64.63 1.44.59 1.92 0 .09-.01.19-.01.28 0 1.6-1.11 4.7-5.29 4.99-3.6.25-12.42.42-12.79.43h-.02ZM19.09 70.53 7.14 53.72l6.31-4.48c1.31-.93 3.14-.62 4.08.69l8.57 12.03c.45.64.63 1.41.5 2.18-.13.77-.55 1.45-1.19 1.9h0s-6.32 4.49-6.32 4.49Zm-9.16-16.34 9.63 13.55 4.68-3.33c.2-.14.34-.36.38-.6.04-.24-.02-.49-.16-.69l-8.57-12.03c-.3-.42-.88-.52-1.29-.22l-4.68 3.32Z" fill="#333999" class="color000000 svgShape"></path>
  </g>
</svg>
